<?xml version="1.0" encoding="utf-8" standalone="no"?>
<!DOCTYPE svg PUBLIC "-//W3C//DTD SVG 1.1//EN"
  "http://www.w3.org/Graphics/SVG/1.1/DTD/svg11.dtd">
<!-- Created with matplotlib (https://matplotlib.org/) -->
<svg height="277.31625pt" version="1.1" viewBox="0 0 398.50625 277.31625" width="398.50625pt" xmlns="http://www.w3.org/2000/svg" xmlns:xlink="http://www.w3.org/1999/xlink">
 <defs>
  <style type="text/css">
*{stroke-linecap:butt;stroke-linejoin:round;}
  </style>
 </defs>
 <g id="figure_1">
  <g id="patch_1">
   <path d="M 0 277.31625 
L 398.50625 277.31625 
L 398.50625 0 
L 0 0 
z
" style="fill:#ffffff;"/>
  </g>
  <g id="axes_1">
   <g id="patch_2">
    <path d="M 56.50625 239.76 
L 391.30625 239.76 
L 391.30625 22.32 
L 56.50625 22.32 
z
" style="fill:#ffffff;"/>
   </g>
   <g id="matplotlib.axis_1">
    <g id="xtick_1">
     <g id="line2d_1">
      <defs>
       <path d="M 0 0 
L 0 3.5 
" id="m52ea9ff6c7" style="stroke:#000000;stroke-width:0.8;"/>
      </defs>
      <g>
       <use style="stroke:#000000;stroke-width:0.8;" x="71.724432" xlink:href="#m52ea9ff6c7" y="239.76"/>
      </g>
     </g>
     <g id="text_1">
      <!-- 0 -->
      <defs>
       <path d="M 31.78125 66.40625 
Q 24.171875 66.40625 20.328125 58.90625 
Q 16.5 51.421875 16.5 36.375 
Q 16.5 21.390625 20.328125 13.890625 
Q 24.171875 6.390625 31.78125 6.390625 
Q 39.453125 6.390625 43.28125 13.890625 
Q 47.125 21.390625 47.125 36.375 
Q 47.125 51.421875 43.28125 58.90625 
Q 39.453125 66.40625 31.78125 66.40625 
z
M 31.78125 74.21875 
Q 44.046875 74.21875 50.515625 64.515625 
Q 56.984375 54.828125 56.984375 36.375 
Q 56.984375 17.96875 50.515625 8.265625 
Q 44.046875 -1.421875 31.78125 -1.421875 
Q 19.53125 -1.421875 13.0625 8.265625 
Q 6.59375 17.96875 6.59375 36.375 
Q 6.59375 54.828125 13.0625 64.515625 
Q 19.53125 74.21875 31.78125 74.21875 
z
" id="DejaVuSans-48"/>
      </defs>
      <g transform="translate(68.543182 254.358437)scale(0.1 -0.1)">
       <use xlink:href="#DejaVuSans-48"/>
      </g>
     </g>
    </g>
    <g id="xtick_2">
     <g id="line2d_2">
      <g>
       <use style="stroke:#000000;stroke-width:0.8;" x="109.96107" xlink:href="#m52ea9ff6c7" y="239.76"/>
      </g>
     </g>
     <g id="text_2">
      <!-- 25 -->
      <defs>
       <path d="M 19.1875 8.296875 
L 53.609375 8.296875 
L 53.609375 0 
L 7.328125 0 
L 7.328125 8.296875 
Q 12.9375 14.109375 22.625 23.890625 
Q 32.328125 33.6875 34.8125 36.53125 
Q 39.546875 41.84375 41.421875 45.53125 
Q 43.3125 49.21875 43.3125 52.78125 
Q 43.3125 58.59375 39.234375 62.25 
Q 35.15625 65.921875 28.609375 65.921875 
Q 23.96875 65.921875 18.8125 64.3125 
Q 13.671875 62.703125 7.8125 59.421875 
L 7.8125 69.390625 
Q 13.765625 71.78125 18.9375 73 
Q 24.125 74.21875 28.421875 74.21875 
Q 39.75 74.21875 46.484375 68.546875 
Q 53.21875 62.890625 53.21875 53.421875 
Q 53.21875 48.921875 51.53125 44.890625 
Q 49.859375 40.875 45.40625 35.40625 
Q 44.1875 33.984375 37.640625 27.21875 
Q 31.109375 20.453125 19.1875 8.296875 
z
" id="DejaVuSans-50"/>
       <path d="M 10.796875 72.90625 
L 49.515625 72.90625 
L 49.515625 64.59375 
L 19.828125 64.59375 
L 19.828125 46.734375 
Q 21.96875 47.46875 24.109375 47.828125 
Q 26.265625 48.1875 28.421875 48.1875 
Q 40.625 48.1875 47.75 41.5 
Q 54.890625 34.8125 54.890625 23.390625 
Q 54.890625 11.625 47.5625 5.09375 
Q 40.234375 -1.421875 26.90625 -1.421875 
Q 22.3125 -1.421875 17.546875 -0.640625 
Q 12.796875 0.140625 7.71875 1.703125 
L 7.71875 11.625 
Q 12.109375 9.234375 16.796875 8.0625 
Q 21.484375 6.890625 26.703125 6.890625 
Q 35.15625 6.890625 40.078125 11.328125 
Q 45.015625 15.765625 45.015625 23.390625 
Q 45.015625 31 40.078125 35.4375 
Q 35.15625 39.890625 26.703125 39.890625 
Q 22.75 39.890625 18.8125 39.015625 
Q 14.890625 38.140625 10.796875 36.28125 
z
" id="DejaVuSans-53"/>
      </defs>
      <g transform="translate(103.59857 254.358437)scale(0.1 -0.1)">
       <use xlink:href="#DejaVuSans-50"/>
       <use x="63.623047" xlink:href="#DejaVuSans-53"/>
      </g>
     </g>
    </g>
    <g id="xtick_3">
     <g id="line2d_3">
      <g>
       <use style="stroke:#000000;stroke-width:0.8;" x="148.197707" xlink:href="#m52ea9ff6c7" y="239.76"/>
      </g>
     </g>
     <g id="text_3">
      <!-- 50 -->
      <g transform="translate(141.835207 254.358437)scale(0.1 -0.1)">
       <use xlink:href="#DejaVuSans-53"/>
       <use x="63.623047" xlink:href="#DejaVuSans-48"/>
      </g>
     </g>
    </g>
    <g id="xtick_4">
     <g id="line2d_4">
      <g>
       <use style="stroke:#000000;stroke-width:0.8;" x="186.434345" xlink:href="#m52ea9ff6c7" y="239.76"/>
      </g>
     </g>
     <g id="text_4">
      <!-- 75 -->
      <defs>
       <path d="M 8.203125 72.90625 
L 55.078125 72.90625 
L 55.078125 68.703125 
L 28.609375 0 
L 18.3125 0 
L 43.21875 64.59375 
L 8.203125 64.59375 
z
" id="DejaVuSans-55"/>
      </defs>
      <g transform="translate(180.071845 254.358437)scale(0.1 -0.1)">
       <use xlink:href="#DejaVuSans-55"/>
       <use x="63.623047" xlink:href="#DejaVuSans-53"/>
      </g>
     </g>
    </g>
    <g id="xtick_5">
     <g id="line2d_5">
      <g>
       <use style="stroke:#000000;stroke-width:0.8;" x="224.670983" xlink:href="#m52ea9ff6c7" y="239.76"/>
      </g>
     </g>
     <g id="text_5">
      <!-- 100 -->
      <defs>
       <path d="M 12.40625 8.296875 
L 28.515625 8.296875 
L 28.515625 63.921875 
L 10.984375 60.40625 
L 10.984375 69.390625 
L 28.421875 72.90625 
L 38.28125 72.90625 
L 38.28125 8.296875 
L 54.390625 8.296875 
L 54.390625 0 
L 12.40625 0 
z
" id="DejaVuSans-49"/>
      </defs>
      <g transform="translate(215.127233 254.358437)scale(0.1 -0.1)">
       <use xlink:href="#DejaVuSans-49"/>
       <use x="63.623047" xlink:href="#DejaVuSans-48"/>
       <use x="127.246094" xlink:href="#DejaVuSans-48"/>
      </g>
     </g>
    </g>
    <g id="xtick_6">
     <g id="line2d_6">
      <g>
       <use style="stroke:#000000;stroke-width:0.8;" x="262.90762" xlink:href="#m52ea9ff6c7" y="239.76"/>
      </g>
     </g>
     <g id="text_6">
      <!-- 125 -->
      <g transform="translate(253.36387 254.358437)scale(0.1 -0.1)">
       <use xlink:href="#DejaVuSans-49"/>
       <use x="63.623047" xlink:href="#DejaVuSans-50"/>
       <use x="127.246094" xlink:href="#DejaVuSans-53"/>
      </g>
     </g>
    </g>
    <g id="xtick_7">
     <g id="line2d_7">
      <g>
       <use style="stroke:#000000;stroke-width:0.8;" x="301.144258" xlink:href="#m52ea9ff6c7" y="239.76"/>
      </g>
     </g>
     <g id="text_7">
      <!-- 150 -->
      <g transform="translate(291.600508 254.358437)scale(0.1 -0.1)">
       <use xlink:href="#DejaVuSans-49"/>
       <use x="63.623047" xlink:href="#DejaVuSans-53"/>
       <use x="127.246094" xlink:href="#DejaVuSans-48"/>
      </g>
     </g>
    </g>
    <g id="xtick_8">
     <g id="line2d_8">
      <g>
       <use style="stroke:#000000;stroke-width:0.8;" x="339.380896" xlink:href="#m52ea9ff6c7" y="239.76"/>
      </g>
     </g>
     <g id="text_8">
      <!-- 175 -->
      <g transform="translate(329.837146 254.358437)scale(0.1 -0.1)">
       <use xlink:href="#DejaVuSans-49"/>
       <use x="63.623047" xlink:href="#DejaVuSans-55"/>
       <use x="127.246094" xlink:href="#DejaVuSans-53"/>
      </g>
     </g>
    </g>
    <g id="xtick_9">
     <g id="line2d_9">
      <g>
       <use style="stroke:#000000;stroke-width:0.8;" x="377.617534" xlink:href="#m52ea9ff6c7" y="239.76"/>
      </g>
     </g>
     <g id="text_9">
      <!-- 200 -->
      <g transform="translate(368.073784 254.358437)scale(0.1 -0.1)">
       <use xlink:href="#DejaVuSans-50"/>
       <use x="63.623047" xlink:href="#DejaVuSans-48"/>
       <use x="127.246094" xlink:href="#DejaVuSans-48"/>
      </g>
     </g>
    </g>
    <g id="text_10">
     <!-- epoch -->
     <defs>
      <path d="M 56.203125 29.59375 
L 56.203125 25.203125 
L 14.890625 25.203125 
Q 15.484375 15.921875 20.484375 11.0625 
Q 25.484375 6.203125 34.421875 6.203125 
Q 39.59375 6.203125 44.453125 7.46875 
Q 49.3125 8.734375 54.109375 11.28125 
L 54.109375 2.78125 
Q 49.265625 0.734375 44.1875 -0.34375 
Q 39.109375 -1.421875 33.890625 -1.421875 
Q 20.796875 -1.421875 13.15625 6.1875 
Q 5.515625 13.8125 5.515625 26.8125 
Q 5.515625 40.234375 12.765625 48.109375 
Q 20.015625 56 32.328125 56 
Q 43.359375 56 49.78125 48.890625 
Q 56.203125 41.796875 56.203125 29.59375 
z
M 47.21875 32.234375 
Q 47.125 39.59375 43.09375 43.984375 
Q 39.0625 48.390625 32.421875 48.390625 
Q 24.90625 48.390625 20.390625 44.140625 
Q 15.875 39.890625 15.1875 32.171875 
z
" id="DejaVuSans-101"/>
      <path d="M 18.109375 8.203125 
L 18.109375 -20.796875 
L 9.078125 -20.796875 
L 9.078125 54.6875 
L 18.109375 54.6875 
L 18.109375 46.390625 
Q 20.953125 51.265625 25.265625 53.625 
Q 29.59375 56 35.59375 56 
Q 45.5625 56 51.78125 48.09375 
Q 58.015625 40.1875 58.015625 27.296875 
Q 58.015625 14.40625 51.78125 6.484375 
Q 45.5625 -1.421875 35.59375 -1.421875 
Q 29.59375 -1.421875 25.265625 0.953125 
Q 20.953125 3.328125 18.109375 8.203125 
z
M 48.6875 27.296875 
Q 48.6875 37.203125 44.609375 42.84375 
Q 40.53125 48.484375 33.40625 48.484375 
Q 26.265625 48.484375 22.1875 42.84375 
Q 18.109375 37.203125 18.109375 27.296875 
Q 18.109375 17.390625 22.1875 11.75 
Q 26.265625 6.109375 33.40625 6.109375 
Q 40.53125 6.109375 44.609375 11.75 
Q 48.6875 17.390625 48.6875 27.296875 
z
" id="DejaVuSans-112"/>
      <path d="M 30.609375 48.390625 
Q 23.390625 48.390625 19.1875 42.75 
Q 14.984375 37.109375 14.984375 27.296875 
Q 14.984375 17.484375 19.15625 11.84375 
Q 23.34375 6.203125 30.609375 6.203125 
Q 37.796875 6.203125 41.984375 11.859375 
Q 46.1875 17.53125 46.1875 27.296875 
Q 46.1875 37.015625 41.984375 42.703125 
Q 37.796875 48.390625 30.609375 48.390625 
z
M 30.609375 56 
Q 42.328125 56 49.015625 48.375 
Q 55.71875 40.765625 55.71875 27.296875 
Q 55.71875 13.875 49.015625 6.21875 
Q 42.328125 -1.421875 30.609375 -1.421875 
Q 18.84375 -1.421875 12.171875 6.21875 
Q 5.515625 13.875 5.515625 27.296875 
Q 5.515625 40.765625 12.171875 48.375 
Q 18.84375 56 30.609375 56 
z
" id="DejaVuSans-111"/>
      <path d="M 48.78125 52.59375 
L 48.78125 44.1875 
Q 44.96875 46.296875 41.140625 47.34375 
Q 37.3125 48.390625 33.40625 48.390625 
Q 24.65625 48.390625 19.8125 42.84375 
Q 14.984375 37.3125 14.984375 27.296875 
Q 14.984375 17.28125 19.8125 11.734375 
Q 24.65625 6.203125 33.40625 6.203125 
Q 37.3125 6.203125 41.140625 7.25 
Q 44.96875 8.296875 48.78125 10.40625 
L 48.78125 2.09375 
Q 45.015625 0.34375 40.984375 -0.53125 
Q 36.96875 -1.421875 32.421875 -1.421875 
Q 20.0625 -1.421875 12.78125 6.34375 
Q 5.515625 14.109375 5.515625 27.296875 
Q 5.515625 40.671875 12.859375 48.328125 
Q 20.21875 56 33.015625 56 
Q 37.15625 56 41.109375 55.140625 
Q 45.0625 54.296875 48.78125 52.59375 
z
" id="DejaVuSans-99"/>
      <path d="M 54.890625 33.015625 
L 54.890625 0 
L 45.90625 0 
L 45.90625 32.71875 
Q 45.90625 40.484375 42.875 44.328125 
Q 39.84375 48.1875 33.796875 48.1875 
Q 26.515625 48.1875 22.3125 43.546875 
Q 18.109375 38.921875 18.109375 30.90625 
L 18.109375 0 
L 9.078125 0 
L 9.078125 75.984375 
L 18.109375 75.984375 
L 18.109375 46.1875 
Q 21.34375 51.125 25.703125 53.5625 
Q 30.078125 56 35.796875 56 
Q 45.21875 56 50.046875 50.171875 
Q 54.890625 44.34375 54.890625 33.015625 
z
" id="DejaVuSans-104"/>
     </defs>
     <g transform="translate(208.678125 268.036562)scale(0.1 -0.1)">
      <use xlink:href="#DejaVuSans-101"/>
      <use x="61.523438" xlink:href="#DejaVuSans-112"/>
      <use x="125" xlink:href="#DejaVuSans-111"/>
      <use x="186.181641" xlink:href="#DejaVuSans-99"/>
      <use x="241.162109" xlink:href="#DejaVuSans-104"/>
     </g>
    </g>
   </g>
   <g id="matplotlib.axis_2">
    <g id="ytick_1">
     <g id="line2d_10">
      <defs>
       <path d="M 0 0 
L -3.5 0 
" id="m2d06804b43" style="stroke:#000000;stroke-width:0.8;"/>
      </defs>
      <g>
       <use style="stroke:#000000;stroke-width:0.8;" x="56.50625" xlink:href="#m2d06804b43" y="239.76"/>
      </g>
     </g>
     <g id="text_11">
      <!-- 0.990 -->
      <defs>
       <path d="M 10.6875 12.40625 
L 21 12.40625 
L 21 0 
L 10.6875 0 
z
" id="DejaVuSans-46"/>
       <path d="M 10.984375 1.515625 
L 10.984375 10.5 
Q 14.703125 8.734375 18.5 7.8125 
Q 22.3125 6.890625 25.984375 6.890625 
Q 35.75 6.890625 40.890625 13.453125 
Q 46.046875 20.015625 46.78125 33.40625 
Q 43.953125 29.203125 39.59375 26.953125 
Q 35.25 24.703125 29.984375 24.703125 
Q 19.046875 24.703125 12.671875 31.3125 
Q 6.296875 37.9375 6.296875 49.421875 
Q 6.296875 60.640625 12.9375 67.421875 
Q 19.578125 74.21875 30.609375 74.21875 
Q 43.265625 74.21875 49.921875 64.515625 
Q 56.59375 54.828125 56.59375 36.375 
Q 56.59375 19.140625 48.40625 8.859375 
Q 40.234375 -1.421875 26.421875 -1.421875 
Q 22.703125 -1.421875 18.890625 -0.6875 
Q 15.09375 0.046875 10.984375 1.515625 
z
M 30.609375 32.421875 
Q 37.25 32.421875 41.125 36.953125 
Q 45.015625 41.5 45.015625 49.421875 
Q 45.015625 57.28125 41.125 61.84375 
Q 37.25 66.40625 30.609375 66.40625 
Q 23.96875 66.40625 20.09375 61.84375 
Q 16.21875 57.28125 16.21875 49.421875 
Q 16.21875 41.5 20.09375 36.953125 
Q 23.96875 32.421875 30.609375 32.421875 
z
" id="DejaVuSans-57"/>
      </defs>
      <g transform="translate(20.878125 243.559219)scale(0.1 -0.1)">
       <use xlink:href="#DejaVuSans-48"/>
       <use x="63.623047" xlink:href="#DejaVuSans-46"/>
       <use x="95.410156" xlink:href="#DejaVuSans-57"/>
       <use x="159.033203" xlink:href="#DejaVuSans-57"/>
       <use x="222.65625" xlink:href="#DejaVuSans-48"/>
      </g>
     </g>
    </g>
    <g id="ytick_2">
     <g id="line2d_11">
      <g>
       <use style="stroke:#000000;stroke-width:0.8;" x="56.50625" xlink:href="#m2d06804b43" y="196.272"/>
      </g>
     </g>
     <g id="text_12">
      <!-- 0.992 -->
      <g transform="translate(20.878125 200.071219)scale(0.1 -0.1)">
       <use xlink:href="#DejaVuSans-48"/>
       <use x="63.623047" xlink:href="#DejaVuSans-46"/>
       <use x="95.410156" xlink:href="#DejaVuSans-57"/>
       <use x="159.033203" xlink:href="#DejaVuSans-57"/>
       <use x="222.65625" xlink:href="#DejaVuSans-50"/>
      </g>
     </g>
    </g>
    <g id="ytick_3">
     <g id="line2d_12">
      <g>
       <use style="stroke:#000000;stroke-width:0.8;" x="56.50625" xlink:href="#m2d06804b43" y="152.784"/>
      </g>
     </g>
     <g id="text_13">
      <!-- 0.994 -->
      <defs>
       <path d="M 37.796875 64.3125 
L 12.890625 25.390625 
L 37.796875 25.390625 
z
M 35.203125 72.90625 
L 47.609375 72.90625 
L 47.609375 25.390625 
L 58.015625 25.390625 
L 58.015625 17.1875 
L 47.609375 17.1875 
L 47.609375 0 
L 37.796875 0 
L 37.796875 17.1875 
L 4.890625 17.1875 
L 4.890625 26.703125 
z
" id="DejaVuSans-52"/>
      </defs>
      <g transform="translate(20.878125 156.583219)scale(0.1 -0.1)">
       <use xlink:href="#DejaVuSans-48"/>
       <use x="63.623047" xlink:href="#DejaVuSans-46"/>
       <use x="95.410156" xlink:href="#DejaVuSans-57"/>
       <use x="159.033203" xlink:href="#DejaVuSans-57"/>
       <use x="222.65625" xlink:href="#DejaVuSans-52"/>
      </g>
     </g>
    </g>
    <g id="ytick_4">
     <g id="line2d_13">
      <g>
       <use style="stroke:#000000;stroke-width:0.8;" x="56.50625" xlink:href="#m2d06804b43" y="109.296"/>
      </g>
     </g>
     <g id="text_14">
      <!-- 0.996 -->
      <defs>
       <path d="M 33.015625 40.375 
Q 26.375 40.375 22.484375 35.828125 
Q 18.609375 31.296875 18.609375 23.390625 
Q 18.609375 15.53125 22.484375 10.953125 
Q 26.375 6.390625 33.015625 6.390625 
Q 39.65625 6.390625 43.53125 10.953125 
Q 47.40625 15.53125 47.40625 23.390625 
Q 47.40625 31.296875 43.53125 35.828125 
Q 39.65625 40.375 33.015625 40.375 
z
M 52.59375 71.296875 
L 52.59375 62.3125 
Q 48.875 64.0625 45.09375 64.984375 
Q 41.3125 65.921875 37.59375 65.921875 
Q 27.828125 65.921875 22.671875 59.328125 
Q 17.53125 52.734375 16.796875 39.40625 
Q 19.671875 43.65625 24.015625 45.921875 
Q 28.375 48.1875 33.59375 48.1875 
Q 44.578125 48.1875 50.953125 41.515625 
Q 57.328125 34.859375 57.328125 23.390625 
Q 57.328125 12.15625 50.6875 5.359375 
Q 44.046875 -1.421875 33.015625 -1.421875 
Q 20.359375 -1.421875 13.671875 8.265625 
Q 6.984375 17.96875 6.984375 36.375 
Q 6.984375 53.65625 15.1875 63.9375 
Q 23.390625 74.21875 37.203125 74.21875 
Q 40.921875 74.21875 44.703125 73.484375 
Q 48.484375 72.75 52.59375 71.296875 
z
" id="DejaVuSans-54"/>
      </defs>
      <g transform="translate(20.878125 113.095219)scale(0.1 -0.1)">
       <use xlink:href="#DejaVuSans-48"/>
       <use x="63.623047" xlink:href="#DejaVuSans-46"/>
       <use x="95.410156" xlink:href="#DejaVuSans-57"/>
       <use x="159.033203" xlink:href="#DejaVuSans-57"/>
       <use x="222.65625" xlink:href="#DejaVuSans-54"/>
      </g>
     </g>
    </g>
    <g id="ytick_5">
     <g id="line2d_14">
      <g>
       <use style="stroke:#000000;stroke-width:0.8;" x="56.50625" xlink:href="#m2d06804b43" y="65.808"/>
      </g>
     </g>
     <g id="text_15">
      <!-- 0.998 -->
      <defs>
       <path d="M 31.78125 34.625 
Q 24.75 34.625 20.71875 30.859375 
Q 16.703125 27.09375 16.703125 20.515625 
Q 16.703125 13.921875 20.71875 10.15625 
Q 24.75 6.390625 31.78125 6.390625 
Q 38.8125 6.390625 42.859375 10.171875 
Q 46.921875 13.96875 46.921875 20.515625 
Q 46.921875 27.09375 42.890625 30.859375 
Q 38.875 34.625 31.78125 34.625 
z
M 21.921875 38.8125 
Q 15.578125 40.375 12.03125 44.71875 
Q 8.5 49.078125 8.5 55.328125 
Q 8.5 64.0625 14.71875 69.140625 
Q 20.953125 74.21875 31.78125 74.21875 
Q 42.671875 74.21875 48.875 69.140625 
Q 55.078125 64.0625 55.078125 55.328125 
Q 55.078125 49.078125 51.53125 44.71875 
Q 48 40.375 41.703125 38.8125 
Q 48.828125 37.15625 52.796875 32.3125 
Q 56.78125 27.484375 56.78125 20.515625 
Q 56.78125 9.90625 50.3125 4.234375 
Q 43.84375 -1.421875 31.78125 -1.421875 
Q 19.734375 -1.421875 13.25 4.234375 
Q 6.78125 9.90625 6.78125 20.515625 
Q 6.78125 27.484375 10.78125 32.3125 
Q 14.796875 37.15625 21.921875 38.8125 
z
M 18.3125 54.390625 
Q 18.3125 48.734375 21.84375 45.5625 
Q 25.390625 42.390625 31.78125 42.390625 
Q 38.140625 42.390625 41.71875 45.5625 
Q 45.3125 48.734375 45.3125 54.390625 
Q 45.3125 60.0625 41.71875 63.234375 
Q 38.140625 66.40625 31.78125 66.40625 
Q 25.390625 66.40625 21.84375 63.234375 
Q 18.3125 60.0625 18.3125 54.390625 
z
" id="DejaVuSans-56"/>
      </defs>
      <g transform="translate(20.878125 69.607219)scale(0.1 -0.1)">
       <use xlink:href="#DejaVuSans-48"/>
       <use x="63.623047" xlink:href="#DejaVuSans-46"/>
       <use x="95.410156" xlink:href="#DejaVuSans-57"/>
       <use x="159.033203" xlink:href="#DejaVuSans-57"/>
       <use x="222.65625" xlink:href="#DejaVuSans-56"/>
      </g>
     </g>
    </g>
    <g id="ytick_6">
     <g id="line2d_15">
      <g>
       <use style="stroke:#000000;stroke-width:0.8;" x="56.50625" xlink:href="#m2d06804b43" y="22.32"/>
      </g>
     </g>
     <g id="text_16">
      <!-- 1.000 -->
      <g transform="translate(20.878125 26.119219)scale(0.1 -0.1)">
       <use xlink:href="#DejaVuSans-49"/>
       <use x="63.623047" xlink:href="#DejaVuSans-46"/>
       <use x="95.410156" xlink:href="#DejaVuSans-48"/>
       <use x="159.033203" xlink:href="#DejaVuSans-48"/>
       <use x="222.65625" xlink:href="#DejaVuSans-48"/>
      </g>
     </g>
    </g>
    <g id="text_17">
     <!-- accuracy -->
     <defs>
      <path d="M 34.28125 27.484375 
Q 23.390625 27.484375 19.1875 25 
Q 14.984375 22.515625 14.984375 16.5 
Q 14.984375 11.71875 18.140625 8.90625 
Q 21.296875 6.109375 26.703125 6.109375 
Q 34.1875 6.109375 38.703125 11.40625 
Q 43.21875 16.703125 43.21875 25.484375 
L 43.21875 27.484375 
z
M 52.203125 31.203125 
L 52.203125 0 
L 43.21875 0 
L 43.21875 8.296875 
Q 40.140625 3.328125 35.546875 0.953125 
Q 30.953125 -1.421875 24.3125 -1.421875 
Q 15.921875 -1.421875 10.953125 3.296875 
Q 6 8.015625 6 15.921875 
Q 6 25.140625 12.171875 29.828125 
Q 18.359375 34.515625 30.609375 34.515625 
L 43.21875 34.515625 
L 43.21875 35.40625 
Q 43.21875 41.609375 39.140625 45 
Q 35.0625 48.390625 27.6875 48.390625 
Q 23 48.390625 18.546875 47.265625 
Q 14.109375 46.140625 10.015625 43.890625 
L 10.015625 52.203125 
Q 14.9375 54.109375 19.578125 55.046875 
Q 24.21875 56 28.609375 56 
Q 40.484375 56 46.34375 49.84375 
Q 52.203125 43.703125 52.203125 31.203125 
z
" id="DejaVuSans-97"/>
      <path d="M 8.5 21.578125 
L 8.5 54.6875 
L 17.484375 54.6875 
L 17.484375 21.921875 
Q 17.484375 14.15625 20.5 10.265625 
Q 23.53125 6.390625 29.59375 6.390625 
Q 36.859375 6.390625 41.078125 11.03125 
Q 45.3125 15.671875 45.3125 23.6875 
L 45.3125 54.6875 
L 54.296875 54.6875 
L 54.296875 0 
L 45.3125 0 
L 45.3125 8.40625 
Q 42.046875 3.421875 37.71875 1 
Q 33.40625 -1.421875 27.6875 -1.421875 
Q 18.265625 -1.421875 13.375 4.4375 
Q 8.5 10.296875 8.5 21.578125 
z
M 31.109375 56 
z
" id="DejaVuSans-117"/>
      <path d="M 41.109375 46.296875 
Q 39.59375 47.171875 37.8125 47.578125 
Q 36.03125 48 33.890625 48 
Q 26.265625 48 22.1875 43.046875 
Q 18.109375 38.09375 18.109375 28.8125 
L 18.109375 0 
L 9.078125 0 
L 9.078125 54.6875 
L 18.109375 54.6875 
L 18.109375 46.1875 
Q 20.953125 51.171875 25.484375 53.578125 
Q 30.03125 56 36.53125 56 
Q 37.453125 56 38.578125 55.875 
Q 39.703125 55.765625 41.0625 55.515625 
z
" id="DejaVuSans-114"/>
      <path d="M 32.171875 -5.078125 
Q 28.375 -14.84375 24.75 -17.8125 
Q 21.140625 -20.796875 15.09375 -20.796875 
L 7.90625 -20.796875 
L 7.90625 -13.28125 
L 13.1875 -13.28125 
Q 16.890625 -13.28125 18.9375 -11.515625 
Q 21 -9.765625 23.484375 -3.21875 
L 25.09375 0.875 
L 2.984375 54.6875 
L 12.5 54.6875 
L 29.59375 11.921875 
L 46.6875 54.6875 
L 56.203125 54.6875 
z
" id="DejaVuSans-121"/>
     </defs>
     <g transform="translate(14.798437 153.599375)rotate(-90)scale(0.1 -0.1)">
      <use xlink:href="#DejaVuSans-97"/>
      <use x="61.279297" xlink:href="#DejaVuSans-99"/>
      <use x="116.259766" xlink:href="#DejaVuSans-99"/>
      <use x="171.240234" xlink:href="#DejaVuSans-117"/>
      <use x="234.619141" xlink:href="#DejaVuSans-114"/>
      <use x="275.732422" xlink:href="#DejaVuSans-97"/>
      <use x="337.011719" xlink:href="#DejaVuSans-99"/>
      <use x="391.992188" xlink:href="#DejaVuSans-121"/>
     </g>
    </g>
   </g>
   <g id="line2d_16">
    <path clip-path="url(#p92c45109cd)" d="M 72.19659 278.31625 
L 73.253897 197.884631 
L 74.783363 151.656059 
L 76.312828 128.801629 
L 77.842294 114.516639 
L 79.371759 111.660159 
L 80.901225 105.427487 
L 82.43069 94.259481 
L 83.960156 88.286017 
L 85.489621 94.000272 
L 87.019087 84.130902 
L 88.548552 86.728173 
L 90.078018 84.130902 
L 91.607483 84.130902 
L 93.136949 79.716578 
L 94.666414 73.743114 
L 96.19588 77.378516 
L 97.725345 78.417942 
L 99.254811 74.002323 
L 100.784276 74.261531 
L 102.313742 72.183974 
L 103.843208 69.327494 
L 105.372673 68.548572 
L 106.902139 69.847207 
L 108.431604 67.249936 
L 111.490535 66.730223 
L 113.020001 69.586703 
L 114.549466 65.172379 
L 116.078932 65.951301 
L 117.608397 64.652665 
L 119.137863 62.834317 
L 120.667328 67.509145 
L 122.196794 61.017264 
L 123.726259 66.730223 
L 125.255725 60.238342 
L 126.78519 61.796186 
L 128.314656 62.055394 
L 129.844121 60.238342 
L 131.373587 62.834317 
L 132.903052 62.315899 
L 134.432518 65.172379 
L 137.491449 61.017264 
L 139.020914 65.692092 
L 140.55038 59.198915 
L 142.079845 59.458124 
L 143.609311 58.159488 
L 145.138776 59.718628 
L 146.668242 63.35403 
L 148.197707 58.679201 
L 149.727173 62.315899 
L 151.256638 59.198915 
L 152.786104 55.822722 
L 154.315569 57.900279 
L 155.845035 61.017264 
L 158.903966 57.380566 
L 160.433431 59.977837 
L 161.962897 56.342435 
L 163.492362 57.641071 
L 165.021828 56.860853 
L 166.551293 59.977837 
L 168.080759 54.783295 
L 169.610224 56.860853 
L 171.13969 59.198915 
L 172.669155 59.977837 
L 174.198621 54.004373 
L 175.728086 57.380566 
L 177.257552 53.48466 
L 178.787017 54.783295 
L 180.316483 53.745164 
L 181.845948 54.264878 
L 183.375414 51.926815 
L 184.90488 56.08193 
L 186.434345 56.08193 
L 187.963811 51.926815 
L 189.493276 52.446529 
L 191.022742 55.822722 
L 192.552207 53.48466 
L 194.081673 50.108466 
L 195.611138 50.108466 
L 197.140604 54.783295 
L 198.670069 55.822722 
L 200.199535 54.264878 
L 201.729 50.62818 
L 203.258466 49.590049 
L 204.787931 52.966242 
L 206.317397 54.004373 
L 207.846862 52.18732 
L 209.376328 53.225451 
L 210.905793 52.18732 
L 212.435259 50.888685 
L 213.964724 56.08193 
L 215.49419 52.705737 
L 217.023655 51.926815 
L 218.553121 50.888685 
L 220.082586 50.368971 
L 221.612052 55.563513 
L 223.141517 52.446529 
L 224.670983 51.147893 
L 226.200448 51.147893 
L 227.729914 52.705737 
L 229.259379 49.849258 
L 230.788845 51.926815 
L 232.31831 49.329544 
L 233.847776 50.108466 
L 235.377241 51.407102 
L 236.906707 50.368971 
L 238.436172 48.030909 
L 239.965638 49.329544 
L 241.495103 49.849258 
L 243.024569 53.48466 
L 244.554034 51.147893 
L 246.0835 49.849258 
L 247.612965 50.888685 
L 249.142431 49.590049 
L 250.671896 52.966242 
L 252.201362 47.251987 
L 253.730827 50.368971 
L 255.260293 47.7717 
L 256.789758 49.590049 
L 258.319224 49.590049 
L 259.848689 48.291414 
L 261.378155 48.291414 
L 262.90762 50.62818 
L 264.437086 47.7717 
L 265.966552 49.590049 
L 267.496017 48.291414 
L 269.025483 50.888685 
L 270.554948 48.291414 
L 272.084414 49.070336 
L 273.613879 44.915221 
L 275.143345 46.473065 
L 276.67281 44.915221 
L 278.202276 49.329544 
L 279.731741 45.953351 
L 281.261207 48.550622 
L 282.790672 44.915221 
L 284.320138 48.550622 
L 285.849603 46.213856 
L 287.379069 46.473065 
L 288.908534 49.070336 
L 290.438 45.953351 
L 291.967465 44.654716 
L 293.496931 44.915221 
L 295.026396 43.875794 
L 296.555862 48.291414 
L 298.085327 49.590049 
L 299.614793 47.251987 
L 301.144258 44.654716 
L 302.673724 45.174429 
L 304.203189 46.992778 
L 305.732655 44.136298 
L 307.26212 45.953351 
L 308.791586 44.915221 
L 310.321051 47.251987 
L 311.850517 46.732273 
L 313.379982 48.809831 
L 314.909448 49.070336 
L 316.438913 43.096872 
L 317.968379 46.473065 
L 319.497844 45.953351 
L 321.02731 48.030909 
L 322.556775 43.616585 
L 324.086241 48.030909 
L 325.615706 43.616585 
L 327.145172 44.654716 
L 328.674637 46.213856 
L 330.204103 43.875794 
L 331.733568 47.251987 
L 333.263034 48.030909 
L 334.792499 46.213856 
L 336.321965 46.992778 
L 337.85143 45.174429 
L 339.380896 47.251987 
L 340.910361 44.654716 
L 342.439827 45.694143 
L 343.969292 41.019314 
L 345.498758 44.654716 
L 347.028224 45.433638 
L 348.557689 42.31795 
L 350.087155 43.875794 
L 351.61662 43.616585 
L 353.146086 46.213856 
L 354.675551 43.35608 
L 356.205017 41.798236 
L 357.734482 42.577158 
L 359.263948 46.213856 
L 360.793413 42.31795 
L 362.322879 42.057445 
L 363.852344 44.654716 
L 365.38181 43.35608 
L 366.911275 42.837663 
L 368.440741 42.837663 
L 369.970206 43.096872 
L 371.499672 40.758809 
L 373.029137 42.837663 
L 374.558603 43.616585 
L 376.088068 43.616585 
L 376.088068 43.616585 
" style="fill:none;stroke:#1f77b4;stroke-linecap:square;stroke-width:1.5;"/>
   </g>
   <g id="line2d_17">
    <path clip-path="url(#p92c45109cd)" d="M 71.724432 246.710473 
L 73.253897 132.437031 
L 74.783363 125.164932 
L 76.312828 105.427487 
L 77.842294 101.272372 
L 79.371759 102.310502 
L 80.901225 92.960845 
L 82.43069 102.310502 
L 83.960156 81.533631 
L 85.489621 80.4955 
L 87.019087 83.611188 
L 88.548552 91.922715 
L 90.078018 82.573057 
L 91.607483 86.728173 
L 93.136949 81.533631 
L 94.666414 75.300958 
L 96.19588 76.340385 
L 97.725345 81.533631 
L 99.254811 83.611188 
L 100.784276 73.2234 
L 102.313742 73.2234 
L 103.843208 78.417942 
L 105.372673 80.4955 
L 106.902139 75.300958 
L 108.431604 77.378516 
L 109.96107 70.106416 
L 111.490535 71.145843 
L 113.020001 77.378516 
L 114.549466 73.2234 
L 116.078932 75.300958 
L 117.608397 79.456073 
L 119.137863 75.300958 
L 120.667328 66.990728 
L 122.196794 72.183974 
L 123.726259 75.300958 
L 125.255725 79.456073 
L 126.78519 74.261531 
L 128.314656 72.183974 
L 129.844121 84.650615 
L 131.373587 68.028858 
L 132.903052 72.183974 
L 134.432518 72.183974 
L 135.961983 69.068285 
L 137.491449 64.911874 
L 139.020914 68.028858 
L 140.55038 74.261531 
L 142.079845 75.300958 
L 143.609311 70.106416 
L 145.138776 75.300958 
L 146.668242 70.106416 
L 148.197707 68.028858 
L 149.727173 63.873743 
L 152.786104 68.028858 
L 154.315569 68.028858 
L 155.845035 70.106416 
L 157.3745 63.873743 
L 158.903966 71.145843 
L 160.433431 73.2234 
L 161.962897 73.2234 
L 163.492362 75.300958 
L 165.021828 65.951301 
L 166.551293 64.911874 
L 168.080759 64.911874 
L 169.610224 71.145843 
L 171.13969 65.951301 
L 172.669155 72.183974 
L 174.198621 68.028858 
L 175.728086 65.951301 
L 177.257552 64.911874 
L 178.787017 68.028858 
L 181.845948 70.106416 
L 183.375414 64.911874 
L 184.90488 71.145843 
L 186.434345 66.990728 
L 189.493276 66.990728 
L 191.022742 61.796186 
L 192.552207 68.028858 
L 194.081673 72.183974 
L 195.611138 71.145843 
L 197.140604 72.183974 
L 198.670069 70.106416 
L 200.199535 65.951301 
L 201.729 65.951301 
L 204.787931 63.873743 
L 206.317397 61.796186 
L 207.846862 69.068285 
L 209.376328 66.990728 
L 210.905793 66.990728 
L 212.435259 60.756759 
L 213.964724 61.796186 
L 215.49419 64.911874 
L 218.553121 66.990728 
L 220.082586 65.951301 
L 221.612052 62.834317 
L 223.141517 65.951301 
L 224.670983 66.990728 
L 226.200448 66.990728 
L 227.729914 65.951301 
L 229.259379 59.718628 
L 230.788845 65.951301 
L 232.31831 68.028858 
L 235.377241 63.873743 
L 238.436172 63.873743 
L 239.965638 58.679201 
L 241.495103 58.679201 
L 243.024569 61.796186 
L 244.554034 61.796186 
L 246.0835 63.873743 
L 247.612965 62.834317 
L 249.142431 73.2234 
L 250.671896 70.106416 
L 252.201362 59.718628 
L 253.730827 65.951301 
L 255.260293 65.951301 
L 258.319224 59.718628 
L 259.848689 65.951301 
L 261.378155 60.756759 
L 262.90762 61.796186 
L 264.437086 60.756759 
L 265.966552 64.911874 
L 267.496017 60.756759 
L 269.025483 72.183974 
L 270.554948 59.718628 
L 272.084414 56.601644 
L 273.613879 59.718628 
L 275.143345 59.718628 
L 276.67281 65.951301 
L 278.202276 61.796186 
L 279.731741 59.718628 
L 281.261207 62.834317 
L 282.790672 70.106416 
L 287.379069 60.756759 
L 288.908534 65.951301 
L 290.438 65.951301 
L 293.496931 61.796186 
L 295.026396 61.796186 
L 296.555862 64.911874 
L 298.085327 59.718628 
L 299.614793 59.718628 
L 301.144258 64.911874 
L 302.673724 64.911874 
L 304.203189 63.873743 
L 305.732655 65.951301 
L 307.26212 61.796186 
L 308.791586 63.873743 
L 310.321051 64.911874 
L 311.850517 75.300958 
L 313.379982 62.834317 
L 314.909448 57.641071 
L 316.438913 65.951301 
L 317.968379 64.911874 
L 319.497844 58.679201 
L 321.02731 69.068285 
L 322.556775 59.718628 
L 324.086241 62.834317 
L 325.615706 63.873743 
L 327.145172 59.718628 
L 328.674637 62.834317 
L 330.204103 63.873743 
L 331.733568 58.679201 
L 333.263034 65.951301 
L 334.792499 59.718628 
L 336.321965 62.834317 
L 339.380896 58.679201 
L 340.910361 69.068285 
L 342.439827 63.873743 
L 343.969292 56.601644 
L 345.498758 62.834317 
L 347.028224 58.679201 
L 348.557689 59.718628 
L 350.087155 61.796186 
L 351.61662 56.601644 
L 353.146086 57.641071 
L 354.675551 62.834317 
L 356.205017 62.834317 
L 357.734482 65.951301 
L 359.263948 59.718628 
L 360.793413 60.756759 
L 362.322879 65.951301 
L 363.852344 60.756759 
L 365.38181 58.679201 
L 366.911275 60.756759 
L 368.440741 64.911874 
L 369.970206 60.756759 
L 371.499672 57.641071 
L 373.029137 62.834317 
L 374.558603 63.873743 
L 376.088068 65.951301 
L 376.088068 65.951301 
" style="fill:none;stroke:#ff7f0e;stroke-linecap:square;stroke-width:1.5;"/>
   </g>
   <g id="patch_3">
    <path d="M 56.50625 239.76 
L 56.50625 22.32 
" style="fill:none;stroke:#000000;stroke-linecap:square;stroke-linejoin:miter;stroke-width:0.8;"/>
   </g>
   <g id="patch_4">
    <path d="M 391.30625 239.76 
L 391.30625 22.32 
" style="fill:none;stroke:#000000;stroke-linecap:square;stroke-linejoin:miter;stroke-width:0.8;"/>
   </g>
   <g id="patch_5">
    <path d="M 56.50625 239.76 
L 391.30625 239.76 
" style="fill:none;stroke:#000000;stroke-linecap:square;stroke-linejoin:miter;stroke-width:0.8;"/>
   </g>
   <g id="patch_6">
    <path d="M 56.50625 22.32 
L 391.30625 22.32 
" style="fill:none;stroke:#000000;stroke-linecap:square;stroke-linejoin:miter;stroke-width:0.8;"/>
   </g>
   <g id="text_18">
    <!-- Bilayer neural network with lr = 0.001 and $\alpha=$0.0 -->
    <defs>
     <path d="M 19.671875 34.8125 
L 19.671875 8.109375 
L 35.5 8.109375 
Q 43.453125 8.109375 47.28125 11.40625 
Q 51.125 14.703125 51.125 21.484375 
Q 51.125 28.328125 47.28125 31.5625 
Q 43.453125 34.8125 35.5 34.8125 
z
M 19.671875 64.796875 
L 19.671875 42.828125 
L 34.28125 42.828125 
Q 41.5 42.828125 45.03125 45.53125 
Q 48.578125 48.25 48.578125 53.8125 
Q 48.578125 59.328125 45.03125 62.0625 
Q 41.5 64.796875 34.28125 64.796875 
z
M 9.8125 72.90625 
L 35.015625 72.90625 
Q 46.296875 72.90625 52.390625 68.21875 
Q 58.5 63.53125 58.5 54.890625 
Q 58.5 48.1875 55.375 44.234375 
Q 52.25 40.28125 46.1875 39.3125 
Q 53.46875 37.75 57.5 32.78125 
Q 61.53125 27.828125 61.53125 20.40625 
Q 61.53125 10.640625 54.890625 5.3125 
Q 48.25 0 35.984375 0 
L 9.8125 0 
z
" id="DejaVuSans-66"/>
     <path d="M 9.421875 54.6875 
L 18.40625 54.6875 
L 18.40625 0 
L 9.421875 0 
z
M 9.421875 75.984375 
L 18.40625 75.984375 
L 18.40625 64.59375 
L 9.421875 64.59375 
z
" id="DejaVuSans-105"/>
     <path d="M 9.421875 75.984375 
L 18.40625 75.984375 
L 18.40625 0 
L 9.421875 0 
z
" id="DejaVuSans-108"/>
     <path id="DejaVuSans-32"/>
     <path d="M 54.890625 33.015625 
L 54.890625 0 
L 45.90625 0 
L 45.90625 32.71875 
Q 45.90625 40.484375 42.875 44.328125 
Q 39.84375 48.1875 33.796875 48.1875 
Q 26.515625 48.1875 22.3125 43.546875 
Q 18.109375 38.921875 18.109375 30.90625 
L 18.109375 0 
L 9.078125 0 
L 9.078125 54.6875 
L 18.109375 54.6875 
L 18.109375 46.1875 
Q 21.34375 51.125 25.703125 53.5625 
Q 30.078125 56 35.796875 56 
Q 45.21875 56 50.046875 50.171875 
Q 54.890625 44.34375 54.890625 33.015625 
z
" id="DejaVuSans-110"/>
     <path d="M 18.3125 70.21875 
L 18.3125 54.6875 
L 36.8125 54.6875 
L 36.8125 47.703125 
L 18.3125 47.703125 
L 18.3125 18.015625 
Q 18.3125 11.328125 20.140625 9.421875 
Q 21.96875 7.515625 27.59375 7.515625 
L 36.8125 7.515625 
L 36.8125 0 
L 27.59375 0 
Q 17.1875 0 13.234375 3.875 
Q 9.28125 7.765625 9.28125 18.015625 
L 9.28125 47.703125 
L 2.6875 47.703125 
L 2.6875 54.6875 
L 9.28125 54.6875 
L 9.28125 70.21875 
z
" id="DejaVuSans-116"/>
     <path d="M 4.203125 54.6875 
L 13.1875 54.6875 
L 24.421875 12.015625 
L 35.59375 54.6875 
L 46.1875 54.6875 
L 57.421875 12.015625 
L 68.609375 54.6875 
L 77.59375 54.6875 
L 63.28125 0 
L 52.6875 0 
L 40.921875 44.828125 
L 29.109375 0 
L 18.5 0 
z
" id="DejaVuSans-119"/>
     <path d="M 9.078125 75.984375 
L 18.109375 75.984375 
L 18.109375 31.109375 
L 44.921875 54.6875 
L 56.390625 54.6875 
L 27.390625 29.109375 
L 57.625 0 
L 45.90625 0 
L 18.109375 26.703125 
L 18.109375 0 
L 9.078125 0 
z
" id="DejaVuSans-107"/>
     <path d="M 10.59375 45.40625 
L 73.1875 45.40625 
L 73.1875 37.203125 
L 10.59375 37.203125 
z
M 10.59375 25.484375 
L 73.1875 25.484375 
L 73.1875 17.1875 
L 10.59375 17.1875 
z
" id="DejaVuSans-61"/>
     <path d="M 45.40625 46.390625 
L 45.40625 75.984375 
L 54.390625 75.984375 
L 54.390625 0 
L 45.40625 0 
L 45.40625 8.203125 
Q 42.578125 3.328125 38.25 0.953125 
Q 33.9375 -1.421875 27.875 -1.421875 
Q 17.96875 -1.421875 11.734375 6.484375 
Q 5.515625 14.40625 5.515625 27.296875 
Q 5.515625 40.1875 11.734375 48.09375 
Q 17.96875 56 27.875 56 
Q 33.9375 56 38.25 53.625 
Q 42.578125 51.265625 45.40625 46.390625 
z
M 14.796875 27.296875 
Q 14.796875 17.390625 18.875 11.75 
Q 22.953125 6.109375 30.078125 6.109375 
Q 37.203125 6.109375 41.296875 11.75 
Q 45.40625 17.390625 45.40625 27.296875 
Q 45.40625 37.203125 41.296875 42.84375 
Q 37.203125 48.484375 30.078125 48.484375 
Q 22.953125 48.484375 18.875 42.84375 
Q 14.796875 37.203125 14.796875 27.296875 
z
" id="DejaVuSans-100"/>
     <path d="M 40.921875 25.4375 
L 40.96875 36.71875 
Q 41.015625 48.25 32.328125 48.296875 
Q 25.828125 48.34375 21.78125 42.921875 
Q 16.703125 36.234375 14.984375 27.296875 
Q 12.890625 16.546875 15.53125 11.421875 
Q 18.265625 6.203125 24.171875 6.203125 
Q 30.71875 6.203125 36.234375 16.609375 
z
M 33.84375 55.90625 
Q 49.078125 56.15625 48.875 40.375 
Q 48.875 40.375 56.5 54.6875 
L 64.5 54.6875 
L 48.734375 25.046875 
L 48.578125 14.359375 
Q 48.578125 11.96875 49.90625 9.96875 
Q 51.421875 7.625 52.984375 7.625 
L 57.328125 7.625 
L 55.859375 0 
L 50.4375 0 
Q 45.84375 0 42.53125 4.109375 
Q 40.96875 6.15625 40.921875 10.453125 
Q 37.75 5.21875 32.28125 0.78125 
Q 29.6875 -1.265625 22.703125 -1.21875 
Q 11.28125 -1.125 7.125 6.203125 
Q 2.875 13.8125 5.515625 27.296875 
Q 8.34375 41.796875 15.765625 48.390625 
Q 24.125 55.765625 33.84375 55.90625 
z
" id="DejaVuSans-Oblique-945"/>
    </defs>
    <g transform="translate(73.06625 16.32)scale(0.12 -0.12)">
     <use transform="translate(0 0.015625)" xlink:href="#DejaVuSans-66"/>
     <use transform="translate(68.603516 0.015625)" xlink:href="#DejaVuSans-105"/>
     <use transform="translate(96.386719 0.015625)" xlink:href="#DejaVuSans-108"/>
     <use transform="translate(124.169922 0.015625)" xlink:href="#DejaVuSans-97"/>
     <use transform="translate(185.449219 0.015625)" xlink:href="#DejaVuSans-121"/>
     <use transform="translate(244.628906 0.015625)" xlink:href="#DejaVuSans-101"/>
     <use transform="translate(306.152344 0.015625)" xlink:href="#DejaVuSans-114"/>
     <use transform="translate(347.265625 0.015625)" xlink:href="#DejaVuSans-32"/>
     <use transform="translate(379.052734 0.015625)" xlink:href="#DejaVuSans-110"/>
     <use transform="translate(442.431641 0.015625)" xlink:href="#DejaVuSans-101"/>
     <use transform="translate(503.955078 0.015625)" xlink:href="#DejaVuSans-117"/>
     <use transform="translate(567.333984 0.015625)" xlink:href="#DejaVuSans-114"/>
     <use transform="translate(608.447266 0.015625)" xlink:href="#DejaVuSans-97"/>
     <use transform="translate(669.726562 0.015625)" xlink:href="#DejaVuSans-108"/>
     <use transform="translate(697.509766 0.015625)" xlink:href="#DejaVuSans-32"/>
     <use transform="translate(729.296875 0.015625)" xlink:href="#DejaVuSans-110"/>
     <use transform="translate(792.675781 0.015625)" xlink:href="#DejaVuSans-101"/>
     <use transform="translate(854.199219 0.015625)" xlink:href="#DejaVuSans-116"/>
     <use transform="translate(893.408203 0.015625)" xlink:href="#DejaVuSans-119"/>
     <use transform="translate(975.195312 0.015625)" xlink:href="#DejaVuSans-111"/>
     <use transform="translate(1036.376953 0.015625)" xlink:href="#DejaVuSans-114"/>
     <use transform="translate(1077.490234 0.015625)" xlink:href="#DejaVuSans-107"/>
     <use transform="translate(1135.400391 0.015625)" xlink:href="#DejaVuSans-32"/>
     <use transform="translate(1167.1875 0.015625)" xlink:href="#DejaVuSans-119"/>
     <use transform="translate(1248.974609 0.015625)" xlink:href="#DejaVuSans-105"/>
     <use transform="translate(1276.757812 0.015625)" xlink:href="#DejaVuSans-116"/>
     <use transform="translate(1315.966797 0.015625)" xlink:href="#DejaVuSans-104"/>
     <use transform="translate(1379.345703 0.015625)" xlink:href="#DejaVuSans-32"/>
     <use transform="translate(1411.132812 0.015625)" xlink:href="#DejaVuSans-108"/>
     <use transform="translate(1438.916016 0.015625)" xlink:href="#DejaVuSans-114"/>
     <use transform="translate(1480.029297 0.015625)" xlink:href="#DejaVuSans-32"/>
     <use transform="translate(1511.816406 0.015625)" xlink:href="#DejaVuSans-61"/>
     <use transform="translate(1595.605469 0.015625)" xlink:href="#DejaVuSans-32"/>
     <use transform="translate(1627.392578 0.015625)" xlink:href="#DejaVuSans-48"/>
     <use transform="translate(1691.015625 0.015625)" xlink:href="#DejaVuSans-46"/>
     <use transform="translate(1722.802734 0.015625)" xlink:href="#DejaVuSans-48"/>
     <use transform="translate(1786.425781 0.015625)" xlink:href="#DejaVuSans-48"/>
     <use transform="translate(1850.048828 0.015625)" xlink:href="#DejaVuSans-49"/>
     <use transform="translate(1913.671875 0.015625)" xlink:href="#DejaVuSans-32"/>
     <use transform="translate(1945.458984 0.015625)" xlink:href="#DejaVuSans-97"/>
     <use transform="translate(2006.738281 0.015625)" xlink:href="#DejaVuSans-110"/>
     <use transform="translate(2070.117188 0.015625)" xlink:href="#DejaVuSans-100"/>
     <use transform="translate(2133.59375 0.015625)" xlink:href="#DejaVuSans-32"/>
     <use transform="translate(2165.380859 0.015625)" xlink:href="#DejaVuSans-Oblique-945"/>
     <use transform="translate(2250.78125 0.015625)" xlink:href="#DejaVuSans-61"/>
     <use transform="translate(2354.052734 0.015625)" xlink:href="#DejaVuSans-48"/>
     <use transform="translate(2417.675781 0.015625)" xlink:href="#DejaVuSans-46"/>
     <use transform="translate(2449.462891 0.015625)" xlink:href="#DejaVuSans-48"/>
    </g>
   </g>
   <g id="legend_1">
    <g id="patch_7">
     <path d="M 254.775 234.76 
L 384.30625 234.76 
Q 386.30625 234.76 386.30625 232.76 
L 386.30625 204.40375 
Q 386.30625 202.40375 384.30625 202.40375 
L 254.775 202.40375 
Q 252.775 202.40375 252.775 204.40375 
L 252.775 232.76 
Q 252.775 234.76 254.775 234.76 
z
" style="fill:#ffffff;opacity:0.8;stroke:#cccccc;stroke-linejoin:miter;"/>
    </g>
    <g id="line2d_18">
     <path d="M 256.775 210.502187 
L 276.775 210.502187 
" style="fill:none;stroke:#1f77b4;stroke-linecap:square;stroke-width:1.5;"/>
    </g>
    <g id="line2d_19"/>
    <g id="text_19">
     <!-- training accuracy -->
     <defs>
      <path d="M 45.40625 27.984375 
Q 45.40625 37.75 41.375 43.109375 
Q 37.359375 48.484375 30.078125 48.484375 
Q 22.859375 48.484375 18.828125 43.109375 
Q 14.796875 37.75 14.796875 27.984375 
Q 14.796875 18.265625 18.828125 12.890625 
Q 22.859375 7.515625 30.078125 7.515625 
Q 37.359375 7.515625 41.375 12.890625 
Q 45.40625 18.265625 45.40625 27.984375 
z
M 54.390625 6.78125 
Q 54.390625 -7.171875 48.1875 -13.984375 
Q 42 -20.796875 29.203125 -20.796875 
Q 24.46875 -20.796875 20.265625 -20.09375 
Q 16.0625 -19.390625 12.109375 -17.921875 
L 12.109375 -9.1875 
Q 16.0625 -11.328125 19.921875 -12.34375 
Q 23.78125 -13.375 27.78125 -13.375 
Q 36.625 -13.375 41.015625 -8.765625 
Q 45.40625 -4.15625 45.40625 5.171875 
L 45.40625 9.625 
Q 42.625 4.78125 38.28125 2.390625 
Q 33.9375 0 27.875 0 
Q 17.828125 0 11.671875 7.65625 
Q 5.515625 15.328125 5.515625 27.984375 
Q 5.515625 40.671875 11.671875 48.328125 
Q 17.828125 56 27.875 56 
Q 33.9375 56 38.28125 53.609375 
Q 42.625 51.21875 45.40625 46.390625 
L 45.40625 54.6875 
L 54.390625 54.6875 
z
" id="DejaVuSans-103"/>
     </defs>
     <g transform="translate(284.775 214.002187)scale(0.1 -0.1)">
      <use xlink:href="#DejaVuSans-116"/>
      <use x="39.208984" xlink:href="#DejaVuSans-114"/>
      <use x="80.322266" xlink:href="#DejaVuSans-97"/>
      <use x="141.601562" xlink:href="#DejaVuSans-105"/>
      <use x="169.384766" xlink:href="#DejaVuSans-110"/>
      <use x="232.763672" xlink:href="#DejaVuSans-105"/>
      <use x="260.546875" xlink:href="#DejaVuSans-110"/>
      <use x="323.925781" xlink:href="#DejaVuSans-103"/>
      <use x="387.402344" xlink:href="#DejaVuSans-32"/>
      <use x="419.189453" xlink:href="#DejaVuSans-97"/>
      <use x="480.46875" xlink:href="#DejaVuSans-99"/>
      <use x="535.449219" xlink:href="#DejaVuSans-99"/>
      <use x="590.429688" xlink:href="#DejaVuSans-117"/>
      <use x="653.808594" xlink:href="#DejaVuSans-114"/>
      <use x="694.921875" xlink:href="#DejaVuSans-97"/>
      <use x="756.201172" xlink:href="#DejaVuSans-99"/>
      <use x="811.181641" xlink:href="#DejaVuSans-121"/>
     </g>
    </g>
    <g id="line2d_20">
     <path d="M 256.775 225.180312 
L 276.775 225.180312 
" style="fill:none;stroke:#ff7f0e;stroke-linecap:square;stroke-width:1.5;"/>
    </g>
    <g id="line2d_21"/>
    <g id="text_20">
     <!-- validation accuracy -->
     <defs>
      <path d="M 2.984375 54.6875 
L 12.5 54.6875 
L 29.59375 8.796875 
L 46.6875 54.6875 
L 56.203125 54.6875 
L 35.6875 0 
L 23.484375 0 
z
" id="DejaVuSans-118"/>
     </defs>
     <g transform="translate(284.775 228.680312)scale(0.1 -0.1)">
      <use xlink:href="#DejaVuSans-118"/>
      <use x="59.179688" xlink:href="#DejaVuSans-97"/>
      <use x="120.458984" xlink:href="#DejaVuSans-108"/>
      <use x="148.242188" xlink:href="#DejaVuSans-105"/>
      <use x="176.025391" xlink:href="#DejaVuSans-100"/>
      <use x="239.501953" xlink:href="#DejaVuSans-97"/>
      <use x="300.78125" xlink:href="#DejaVuSans-116"/>
      <use x="339.990234" xlink:href="#DejaVuSans-105"/>
      <use x="367.773438" xlink:href="#DejaVuSans-111"/>
      <use x="428.955078" xlink:href="#DejaVuSans-110"/>
      <use x="492.333984" xlink:href="#DejaVuSans-32"/>
      <use x="524.121094" xlink:href="#DejaVuSans-97"/>
      <use x="585.400391" xlink:href="#DejaVuSans-99"/>
      <use x="640.380859" xlink:href="#DejaVuSans-99"/>
      <use x="695.361328" xlink:href="#DejaVuSans-117"/>
      <use x="758.740234" xlink:href="#DejaVuSans-114"/>
      <use x="799.853516" xlink:href="#DejaVuSans-97"/>
      <use x="861.132812" xlink:href="#DejaVuSans-99"/>
      <use x="916.113281" xlink:href="#DejaVuSans-121"/>
     </g>
    </g>
   </g>
  </g>
 </g>
 <defs>
  <clipPath id="p92c45109cd">
   <rect height="217.44" width="334.8" x="56.50625" y="22.32"/>
  </clipPath>
 </defs>
</svg>
