<svg height="493.755" viewBox="0 0 726.944 370.316" width="969.258" xmlns="http://www.w3.org/2000/svg" xmlns:xlink="http://www.w3.org/1999/xlink"><defs><style>*{stroke-linecap:butt;stroke-linejoin:round}</style></defs><g id="figure_1"><path d="M0 370.316h726.944V0H0z" fill="#fff" id="patch_1"/><g id="axes_1"><path d="M50.144 239.758h669.6V22.318h-669.6z" fill="#fff" id="patch_2"/><path clip-path="url(#p2a27189300)" d="M80.58 239.758h24.595v-3.043H80.58z" fill="red" id="patch_3"/><path clip-path="url(#p2a27189300)" d="M111.324 239.758h24.595v-3.656h-24.595z" fill="red" id="patch_4"/><path clip-path="url(#p2a27189300)" d="M142.068 239.758h24.595v-15.634h-24.595z" fill="red" id="patch_5"/><path clip-path="url(#p2a27189300)" d="M172.812 239.758h24.595v-4.33h-24.595z" fill="red" id="patch_6"/><path clip-path="url(#p2a27189300)" d="M203.555 239.758h24.595v-11.874h-24.595z" fill="red" id="patch_7"/><path clip-path="url(#p2a27189300)" d="M234.3 239.758h24.594V32.672H234.3z" fill="red" id="patch_8"/><path clip-path="url(#p2a27189300)" d="M265.043 239.758h24.595v-6.764h-24.595z" fill="red" id="patch_9"/><path clip-path="url(#p2a27189300)" d="M295.787 239.758h24.595v-31.163h-24.595z" fill="red" id="patch_10"/><path clip-path="url(#p2a27189300)" d="M326.53 239.758h24.596v-24.596H326.53z" fill="red" id="patch_11"/><path clip-path="url(#p2a27189300)" d="M357.274 239.758h24.595v-2.262h-24.595z" fill="red" id="patch_12"/><path clip-path="url(#p2a27189300)" d="M388.018 239.758h24.595v-26.426h-24.595z" fill="red" id="patch_13"/><path clip-path="url(#p2a27189300)" d="M418.762 239.758h24.595V217.61h-24.595z" fill="red" id="patch_14"/><path clip-path="url(#p2a27189300)" d="M449.506 239.758H474.1v-16.131h-24.595z" fill="red" id="patch_15"/><path clip-path="url(#p2a27189300)" d="M480.25 239.758h24.595V191.62H480.25z" fill="red" id="patch_16"/><path clip-path="url(#p2a27189300)" d="M510.993 239.758h24.595V133.66h-24.595z" fill="red" id="patch_17"/><path clip-path="url(#p2a27189300)" d="M541.737 239.758h24.595v-45.91h-24.595z" fill="red" id="patch_18"/><path clip-path="url(#p2a27189300)" d="M572.48 239.758h24.596v-4.14h-24.595z" fill="red" id="patch_19"/><path clip-path="url(#p2a27189300)" d="M603.225 239.758h24.595V74.78h-24.595z" fill="red" id="patch_20"/><path clip-path="url(#p2a27189300)" d="M633.969 239.758h24.595V218.14h-24.595z" fill="red" id="patch_21"/><path clip-path="url(#p2a27189300)" d="M664.712 239.758h24.595v-106.29h-24.595z" fill="red" id="patch_22"/><g id="matplotlib.axis_1"><g id="xtick_1"><g id="line2d_1"><defs><path d="M0 0v3.5" id="m04ce5230be" stroke="#000" stroke-width=".8"/></defs><use x="92.878" xlink:href="#m04ce5230be" y="239.758" stroke="#000" stroke-width=".8"/></g><g id="text_1"><defs><path d="M34.281 27.484q-10.89 0-15.093-2.484-4.204-2.484-4.204-8.5 0-4.781 3.157-7.594 3.156-2.797 8.562-2.797 7.485 0 12 5.297 4.516 5.297 4.516 14.078v2zm17.922 3.72V0H43.22v8.297Q40.14 3.328 35.547.953q-4.594-2.375-11.234-2.375-8.391 0-13.36 4.719Q6 8.016 6 15.922q0 9.219 6.172 13.906 6.187 4.688 18.437 4.688h12.61v.89q0 6.203-4.078 9.594-4.078 3.39-11.453 3.39-4.688 0-9.141-1.124-4.438-1.125-8.531-3.375v8.312q4.921 1.906 9.562 2.844 4.64.953 9.031.953 11.875 0 17.735-6.156 5.86-6.14 5.86-18.64z" id="DejaVuSans-97"/><path d="M48.781 52.594v-8.407q-3.812 2.11-7.64 3.157-3.828 1.047-7.735 1.047-8.75 0-13.593-5.547-4.829-5.532-4.829-15.547 0-10.016 4.829-15.563 4.843-5.53 13.593-5.53 3.907 0 7.735 1.046 3.828 1.047 7.64 3.156V2.094Q45.016.344 40.984-.531q-4.015-.89-8.562-.89-12.36 0-19.64 7.765-7.266 7.765-7.266 20.953 0 13.375 7.343 21.031Q20.22 56 33.016 56q4.14 0 8.093-.86 3.953-.843 7.672-2.546z" id="DejaVuSans-99"/><path d="M41.11 46.297q-1.516.875-3.297 1.281Q36.03 48 33.89 48q-7.625 0-11.703-4.953-4.079-4.953-4.079-14.234V0H9.08v54.688h9.03v-8.5q2.844 4.984 7.375 7.39Q30.031 56 36.531 56q.922 0 2.047-.125 1.125-.11 2.484-.36z" id="DejaVuSans-114"/><path d="M45.406 46.39v29.594h8.985V0h-8.985v8.203Q42.578 3.328 38.25.953q-4.313-2.375-10.375-2.375-9.906 0-16.14 7.906-6.22 7.922-6.22 20.813 0 12.89 6.22 20.797Q17.968 56 27.874 56q6.063 0 10.375-2.375 4.328-2.36 7.156-7.234zm-30.61-19.093q0-9.906 4.079-15.547 4.078-5.64 11.203-5.64 7.125 0 11.219 5.64 4.11 5.64 4.11 15.547 0 9.906-4.11 15.547-4.094 5.64-11.219 5.64-7.125 0-11.203-5.64-4.078-5.64-4.078-15.547z" id="DejaVuSans-100"/><path d="M9.422 54.688h8.984V0H9.422zm0 21.296h8.984v-11.39H9.422z" id="DejaVuSans-105"/><path d="M54.89 33.016V0h-8.984v32.719q0 7.765-3.031 11.61-3.031 3.858-9.078 3.858-7.281 0-11.484-4.64-4.204-4.625-4.204-12.64V0H9.08v54.688h9.03v-8.5q3.235 4.937 7.594 7.374Q30.078 56 35.797 56q9.422 0 14.25-5.828 4.844-5.828 4.844-17.156z" id="DejaVuSans-110"/><path d="M30.61 48.39q-7.22 0-11.422-5.64-4.204-5.64-4.204-15.453 0-9.813 4.172-15.453 4.188-5.64 11.453-5.64 7.188 0 11.375 5.655 4.203 5.672 4.203 15.438 0 9.719-4.203 15.406-4.187 5.688-11.375 5.688zm0 7.61q11.718 0 18.406-7.625 6.703-7.61 6.703-21.078 0-13.422-6.703-21.078-6.688-7.64-18.407-7.64-11.765 0-18.437 7.64-6.656 7.656-6.656 21.078 0 13.469 6.656 21.078Q18.844 56 30.609 56z" id="DejaVuSans-111"/><path d="M18.313 70.219V54.688h18.5v-6.985h-18.5V18.016q0-6.688 1.828-8.594 1.828-1.906 7.453-1.906h9.218V0h-9.218q-10.407 0-14.36 3.875-3.953 3.89-3.953 14.14v29.688H2.687v6.984h6.594V70.22z" id="DejaVuSans-116"/><path d="M56.203 29.594v-4.39H14.891q.593-9.282 5.593-14.142 5-4.859 13.938-4.859 5.172 0 10.031 1.266 4.86 1.265 9.656 3.812v-8.5Q49.266.734 44.187-.344 39.11-1.422 33.892-1.422q-13.094 0-20.735 7.61-7.64 7.625-7.64 20.625 0 13.421 7.25 21.296Q20.016 56 32.328 56q11.031 0 17.453-7.11 6.422-7.093 6.422-19.296zm-8.984 2.64q-.094 7.36-4.125 11.75-4.032 4.407-10.672 4.407-7.516 0-12.031-4.25-4.516-4.25-5.203-11.97z" id="DejaVuSans-101"/><path d="M50.984-16.61v-6.968H-.984v6.969z" id="DejaVuSans-95"/><path d="M9.813 72.906h46.093v-8.312H19.672V43.016H54.39v-8.297H19.67V8.297h37.11V0H9.813z" id="DejaVuSans-69"/><path d="M9.422 75.984h8.984V0H9.422z" id="DejaVuSans-108"/></defs><g transform="matrix(0 -.1 -.1 0 95.498 341.916)"><use xlink:href="#DejaVuSans-99"/><use x="54.98" xlink:href="#DejaVuSans-111"/><use x="116.162" xlink:href="#DejaVuSans-111"/><use x="177.344" xlink:href="#DejaVuSans-114"/><use x="218.441" xlink:href="#DejaVuSans-100"/><use x="281.918" xlink:href="#DejaVuSans-105"/><use x="309.701" xlink:href="#DejaVuSans-110"/><use x="373.08" xlink:href="#DejaVuSans-97"/><use x="434.359" xlink:href="#DejaVuSans-116"/><use x="473.568" xlink:href="#DejaVuSans-101"/><use x="535.092" xlink:href="#DejaVuSans-95"/><use x="585.092" xlink:href="#DejaVuSans-69"/><use x="648.275" xlink:href="#DejaVuSans-95"/><use x="698.275" xlink:href="#DejaVuSans-100"/><use x="761.752" xlink:href="#DejaVuSans-101"/><use x="823.275" xlink:href="#DejaVuSans-108"/><use x="851.059" xlink:href="#DejaVuSans-116"/><use x="890.268" xlink:href="#DejaVuSans-97"/></g></g></g><g id="xtick_2"><use x="123.621" xlink:href="#m04ce5230be" y="239.758" stroke="#000" stroke-width=".8" id="line2d_2"/><g id="text_2"><defs><path d="M9.813 72.906h13.28l32.329-60.984v60.984h9.562V0h-13.28L19.39 60.984V0H9.813z" id="DejaVuSans-78"/></defs><g transform="matrix(0 -.1 -.1 0 126.242 343.078)"><use xlink:href="#DejaVuSans-99"/><use x="54.98" xlink:href="#DejaVuSans-111"/><use x="116.162" xlink:href="#DejaVuSans-111"/><use x="177.344" xlink:href="#DejaVuSans-114"/><use x="218.441" xlink:href="#DejaVuSans-100"/><use x="281.918" xlink:href="#DejaVuSans-105"/><use x="309.701" xlink:href="#DejaVuSans-110"/><use x="373.08" xlink:href="#DejaVuSans-97"/><use x="434.359" xlink:href="#DejaVuSans-116"/><use x="473.568" xlink:href="#DejaVuSans-101"/><use x="535.092" xlink:href="#DejaVuSans-95"/><use x="585.092" xlink:href="#DejaVuSans-78"/><use x="659.896" xlink:href="#DejaVuSans-95"/><use x="709.896" xlink:href="#DejaVuSans-100"/><use x="773.373" xlink:href="#DejaVuSans-101"/><use x="834.896" xlink:href="#DejaVuSans-108"/><use x="862.68" xlink:href="#DejaVuSans-116"/><use x="901.889" xlink:href="#DejaVuSans-97"/></g></g></g><g id="xtick_3"><use x="154.365" xlink:href="#m04ce5230be" y="239.758" stroke="#000" stroke-width=".8" id="line2d_3"/><g id="text_3"><defs><path d="M18.11 8.203v-29H9.077v75.484h9.031v-8.296q2.844 4.875 7.157 7.234Q29.594 56 35.594 56q9.968 0 16.187-7.906 6.235-7.907 6.235-20.797T51.78 6.484q-6.218-7.906-16.187-7.906-6 0-10.328 2.375-4.313 2.375-7.157 7.25zm30.578 19.094q0 9.906-4.079 15.547-4.078 5.64-11.203 5.64-7.14 0-11.218-5.64-4.079-5.64-4.079-15.547 0-9.906 4.078-15.547 4.079-5.64 11.22-5.64 7.124 0 11.202 5.64t4.078 15.547z" id="DejaVuSans-112"/><path d="M37.11 75.984V68.5h-8.594q-4.828 0-6.72-1.953-1.874-1.953-1.874-7.031v-4.828h14.797v-6.985H19.922V0H10.89v47.703H2.297v6.984h8.594V58.5q0 9.125 4.25 13.297 4.25 4.187 13.468 4.187z" id="DejaVuSans-102"/><path d="M8.5 21.578v33.11h8.984V21.922q0-7.766 3.016-11.656 3.031-3.875 9.094-3.875 7.265 0 11.484 4.64 4.234 4.64 4.234 12.656v31h8.985V0h-8.984v8.406Q42.047 3.422 37.718 1q-4.313-2.422-10.032-2.422-9.421 0-14.312 5.86Q8.5 10.296 8.5 21.578zM31.11 56z" id="DejaVuSans-117"/></defs><g transform="matrix(0 -.1 -.1 0 156.986 346.008)"><use xlink:href="#DejaVuSans-99"/><use x="54.98" xlink:href="#DejaVuSans-111"/><use x="116.162" xlink:href="#DejaVuSans-114"/><use x="157.275" xlink:href="#DejaVuSans-112"/><use x="220.752" xlink:href="#DejaVuSans-111"/><use x="281.934" xlink:href="#DejaVuSans-114"/><use x="323.047" xlink:href="#DejaVuSans-97"/><use x="384.326" xlink:href="#DejaVuSans-116"/><use x="423.535" xlink:href="#DejaVuSans-101"/><use x="485.059" xlink:href="#DejaVuSans-95"/><use x="535.059" xlink:href="#DejaVuSans-102"/><use x="570.264" xlink:href="#DejaVuSans-117"/><use x="633.643" xlink:href="#DejaVuSans-108"/><use x="661.426" xlink:href="#DejaVuSans-108"/><use x="689.209" xlink:href="#DejaVuSans-95"/><use x="739.209" xlink:href="#DejaVuSans-100"/><use x="802.686" xlink:href="#DejaVuSans-101"/><use x="864.209" xlink:href="#DejaVuSans-108"/><use x="891.992" xlink:href="#DejaVuSans-116"/><use x="931.201" xlink:href="#DejaVuSans-97"/></g></g></g><g id="xtick_4"><use x="185.109" xlink:href="#m04ce5230be" y="239.758" stroke="#000" stroke-width=".8" id="line2d_4"/><g transform="matrix(0 -.1 -.1 0 187.73 292.332)" id="text_4"><use xlink:href="#DejaVuSans-100"/><use x="63.477" xlink:href="#DejaVuSans-111"/><use x="124.658" xlink:href="#DejaVuSans-105"/><use x="152.441" xlink:href="#DejaVuSans-95"/><use x="202.441" xlink:href="#DejaVuSans-100"/><use x="265.918" xlink:href="#DejaVuSans-101"/><use x="327.441" xlink:href="#DejaVuSans-108"/><use x="355.225" xlink:href="#DejaVuSans-116"/><use x="394.434" xlink:href="#DejaVuSans-97"/></g></g><g id="xtick_5"><use x="215.853" xlink:href="#m04ce5230be" y="239.758" stroke="#000" stroke-width=".8" id="line2d_5"/><g transform="matrix(0 -.1 -.1 0 218.473 311.52)" id="text_5"><use xlink:href="#DejaVuSans-101"/><use x="61.523" xlink:href="#DejaVuSans-100"/><use x="125" xlink:href="#DejaVuSans-105"/><use x="152.783" xlink:href="#DejaVuSans-116"/><use x="191.992" xlink:href="#DejaVuSans-105"/><use x="219.775" xlink:href="#DejaVuSans-111"/><use x="280.957" xlink:href="#DejaVuSans-110"/><use x="344.336" xlink:href="#DejaVuSans-95"/><use x="394.336" xlink:href="#DejaVuSans-100"/><use x="457.813" xlink:href="#DejaVuSans-101"/><use x="519.336" xlink:href="#DejaVuSans-108"/><use x="547.119" xlink:href="#DejaVuSans-116"/><use x="586.328" xlink:href="#DejaVuSans-97"/></g></g><g id="xtick_6"><use x="246.597" xlink:href="#m04ce5230be" y="239.758" stroke="#000" stroke-width=".8" id="line2d_6"/><g id="text_6"><defs><path d="M54.89 54.688l-19.78-26.61L55.905 0H45.313L29.39 21.484 13.484 0H2.875l21.25 28.61L4.687 54.687h10.594l14.5-19.485 14.5 19.484z" id="DejaVuSans-120"/><path d="M19.672 64.797V8.109h11.922q15.093 0 22.093 6.829 7 6.843 7 21.593 0 14.64-7 21.453-7 6.813-22.093 6.813zm-9.86 8.11h20.266q21.188 0 31.094-8.813 9.922-8.813 9.922-27.563 0-18.86-9.969-27.703Q51.172 0 30.078 0H9.813z" id="DejaVuSans-68"/></defs><g transform="matrix(0 -.1 -.1 0 249.217 328.605)"><use xlink:href="#DejaVuSans-101"/><use x="61.508" xlink:href="#DejaVuSans-120"/><use x="120.688" xlink:href="#DejaVuSans-97"/><use x="181.967" xlink:href="#DejaVuSans-99"/><use x="236.947" xlink:href="#DejaVuSans-116"/><use x="276.156" xlink:href="#DejaVuSans-68"/><use x="353.158" xlink:href="#DejaVuSans-97"/><use x="414.438" xlink:href="#DejaVuSans-116"/><use x="453.646" xlink:href="#DejaVuSans-101"/><use x="515.17" xlink:href="#DejaVuSans-95"/><use x="565.17" xlink:href="#DejaVuSans-100"/><use x="628.646" xlink:href="#DejaVuSans-101"/><use x="690.17" xlink:href="#DejaVuSans-108"/><use x="717.953" xlink:href="#DejaVuSans-116"/><use x="757.162" xlink:href="#DejaVuSans-97"/></g></g></g><g id="xtick_7"><use x="277.34" xlink:href="#m04ce5230be" y="239.758" stroke="#000" stroke-width=".8" id="line2d_7"/><g id="text_7"><defs><path d="M52 44.188q3.375 6.062 8.063 8.937Q64.75 56 71.093 56q8.548 0 13.188-5.984 4.64-5.97 4.64-17V0h-9.03v32.719q0 7.86-2.797 11.656-2.781 3.813-8.485 3.813-6.984 0-11.046-4.641-4.047-4.625-4.047-12.64V0h-9.032v32.719q0 7.906-2.78 11.687-2.782 3.782-8.595 3.782-6.89 0-10.953-4.657-4.047-4.656-4.047-12.625V0H9.08v54.688h9.03v-8.5q3.078 5.03 7.375 7.421Q29.781 56 35.687 56q5.97 0 10.141-3.031Q50 49.953 52 44.187z" id="DejaVuSans-109"/></defs><g transform="matrix(0 -.1 -.1 0 279.96 344.45)"><use xlink:href="#DejaVuSans-102"/><use x="35.205" xlink:href="#DejaVuSans-111"/><use x="96.387" xlink:href="#DejaVuSans-114"/><use x="137.484" xlink:href="#DejaVuSans-109"/><use x="234.896" xlink:href="#DejaVuSans-97"/><use x="296.176" xlink:href="#DejaVuSans-116"/><use x="335.385" xlink:href="#DejaVuSans-95"/><use x="385.385" xlink:href="#DejaVuSans-112"/><use x="448.861" xlink:href="#DejaVuSans-114"/><use x="489.943" xlink:href="#DejaVuSans-101"/><use x="551.467" xlink:href="#DejaVuSans-102"/><use x="586.672" xlink:href="#DejaVuSans-105"/><use x="614.455" xlink:href="#DejaVuSans-120"/><use x="673.635" xlink:href="#DejaVuSans-95"/><use x="723.635" xlink:href="#DejaVuSans-100"/><use x="787.111" xlink:href="#DejaVuSans-101"/><use x="848.635" xlink:href="#DejaVuSans-108"/><use x="876.418" xlink:href="#DejaVuSans-116"/><use x="915.627" xlink:href="#DejaVuSans-97"/></g></g></g><g id="xtick_8"><use x="308.084" xlink:href="#m04ce5230be" y="239.758" stroke="#000" stroke-width=".8" id="line2d_8"/><g id="text_8"><defs><path d="M44.281 53.078v-8.5q-3.797 1.953-7.906 2.922-4.094.984-8.5.984-6.688 0-10.031-2.047-3.344-2.046-3.344-6.156 0-3.125 2.39-4.906 2.391-1.781 9.626-3.39l3.078-.688q9.562-2.047 13.593-5.781 4.032-3.735 4.032-10.422 0-7.625-6.032-12.078-6.03-4.438-16.578-4.438-4.39 0-9.156.86Q10.688.296 5.422 2v9.281q4.984-2.594 9.812-3.89 4.829-1.282 9.579-1.282 6.343 0 9.75 2.172 3.421 2.172 3.421 6.125 0 3.656-2.468 5.61-2.453 1.953-10.813 3.765l-3.125.735q-8.344 1.75-12.062 5.39-3.704 3.64-3.704 9.985 0 7.718 5.47 11.906Q16.75 56 26.811 56q4.97 0 9.36-.734 4.406-.72 8.11-2.188z" id="DejaVuSans-115"/></defs><g transform="matrix(0 -.1 -.1 0 310.705 349.438)"><use xlink:href="#DejaVuSans-102"/><use x="35.205" xlink:href="#DejaVuSans-111"/><use x="96.387" xlink:href="#DejaVuSans-114"/><use x="137.484" xlink:href="#DejaVuSans-109"/><use x="234.896" xlink:href="#DejaVuSans-97"/><use x="296.176" xlink:href="#DejaVuSans-116"/><use x="335.385" xlink:href="#DejaVuSans-95"/><use x="385.385" xlink:href="#DejaVuSans-112"/><use x="448.861" xlink:href="#DejaVuSans-111"/><use x="510.043" xlink:href="#DejaVuSans-115"/><use x="562.143" xlink:href="#DejaVuSans-116"/><use x="601.352" xlink:href="#DejaVuSans-102"/><use x="636.557" xlink:href="#DejaVuSans-105"/><use x="664.34" xlink:href="#DejaVuSans-120"/><use x="723.52" xlink:href="#DejaVuSans-95"/><use x="773.52" xlink:href="#DejaVuSans-100"/><use x="836.996" xlink:href="#DejaVuSans-101"/><use x="898.52" xlink:href="#DejaVuSans-108"/><use x="926.303" xlink:href="#DejaVuSans-116"/><use x="965.512" xlink:href="#DejaVuSans-97"/></g></g></g><g id="xtick_9"><use x="338.828" xlink:href="#m04ce5230be" y="239.758" stroke="#000" stroke-width=".8" id="line2d_9"/><g id="text_9"><defs><path d="M48.688 27.297q0 9.906-4.079 15.547-4.078 5.64-11.203 5.64-7.14 0-11.218-5.64-4.079-5.64-4.079-15.547 0-9.906 4.078-15.547 4.079-5.64 11.22-5.64 7.124 0 11.202 5.64t4.078 15.547zM18.108 46.39q2.844 4.875 7.157 7.234Q29.594 56 35.594 56q9.968 0 16.187-7.906 6.235-7.907 6.235-20.797T51.78 6.484q-6.218-7.906-16.187-7.906-6 0-10.328 2.375-4.313 2.375-7.157 7.25V0H9.08v75.984h9.03z" id="DejaVuSans-98"/></defs><g transform="matrix(0 -.1 -.1 0 341.448 297.76)"><use xlink:href="#DejaVuSans-105"/><use x="27.783" xlink:href="#DejaVuSans-115"/><use x="79.883" xlink:href="#DejaVuSans-98"/><use x="143.359" xlink:href="#DejaVuSans-110"/><use x="206.738" xlink:href="#DejaVuSans-95"/><use x="256.738" xlink:href="#DejaVuSans-100"/><use x="320.215" xlink:href="#DejaVuSans-101"/><use x="381.738" xlink:href="#DejaVuSans-108"/><use x="409.521" xlink:href="#DejaVuSans-116"/><use x="448.73" xlink:href="#DejaVuSans-97"/></g></g></g><g id="xtick_10"><use x="369.572" xlink:href="#m04ce5230be" y="239.758" stroke="#000" stroke-width=".8" id="line2d_10"/><g transform="matrix(0 -.1 -.1 0 372.192 301.152)" id="text_10"><use xlink:href="#DejaVuSans-105"/><use x="27.783" xlink:href="#DejaVuSans-115"/><use x="79.883" xlink:href="#DejaVuSans-109"/><use x="177.295" xlink:href="#DejaVuSans-110"/><use x="240.674" xlink:href="#DejaVuSans-95"/><use x="290.674" xlink:href="#DejaVuSans-100"/><use x="354.15" xlink:href="#DejaVuSans-101"/><use x="415.674" xlink:href="#DejaVuSans-108"/><use x="443.457" xlink:href="#DejaVuSans-116"/><use x="482.666" xlink:href="#DejaVuSans-97"/></g></g><g id="xtick_11"><use x="400.316" xlink:href="#m04ce5230be" y="239.758" stroke="#000" stroke-width=".8" id="line2d_11"/><g transform="matrix(0 -.1 -.1 0 402.936 315.777)" id="text_11"><use xlink:href="#DejaVuSans-109"/><use x="97.412" xlink:href="#DejaVuSans-117"/><use x="160.791" xlink:href="#DejaVuSans-115"/><use x="212.891" xlink:href="#DejaVuSans-105"/><use x="240.674" xlink:href="#DejaVuSans-99"/><use x="295.654" xlink:href="#DejaVuSans-105"/><use x="323.438" xlink:href="#DejaVuSans-100"/><use x="386.914" xlink:href="#DejaVuSans-95"/><use x="436.914" xlink:href="#DejaVuSans-100"/><use x="500.391" xlink:href="#DejaVuSans-101"/><use x="561.914" xlink:href="#DejaVuSans-108"/><use x="589.697" xlink:href="#DejaVuSans-116"/><use x="628.906" xlink:href="#DejaVuSans-97"/></g></g><g id="xtick_12"><use x="431.059" xlink:href="#m04ce5230be" y="239.758" stroke="#000" stroke-width=".8" id="line2d_12"/><g transform="matrix(0 -.1 -.1 0 433.68 297.594)" id="text_12"><use xlink:href="#DejaVuSans-112"/><use x="63.477" xlink:href="#DejaVuSans-97"/><use x="124.756" xlink:href="#DejaVuSans-114"/><use x="165.869" xlink:href="#DejaVuSans-116"/><use x="205.078" xlink:href="#DejaVuSans-95"/><use x="255.078" xlink:href="#DejaVuSans-100"/><use x="318.555" xlink:href="#DejaVuSans-101"/><use x="380.078" xlink:href="#DejaVuSans-108"/><use x="407.861" xlink:href="#DejaVuSans-116"/><use x="447.07" xlink:href="#DejaVuSans-97"/></g></g><g id="xtick_13"><use x="461.803" xlink:href="#m04ce5230be" y="239.758" stroke="#000" stroke-width=".8" id="line2d_13"/><g id="text_13"><defs><path d="M12.406 8.297h16.11v55.625l-17.532-3.516v8.985l17.438 3.515h9.86V8.296H54.39V0H12.406z" id="DejaVuSans-49"/><path d="M31.781 66.406q-7.61 0-11.453-7.5Q16.5 51.422 16.5 36.375q0-14.984 3.828-22.484 3.844-7.5 11.453-7.5 7.672 0 11.5 7.5 3.844 7.5 3.844 22.484 0 15.047-3.844 22.531-3.828 7.5-11.5 7.5zm0 7.813q12.266 0 18.735-9.703 6.468-9.688 6.468-28.141 0-18.406-6.468-28.11-6.47-9.687-18.735-9.687-12.25 0-18.718 9.688-6.47 9.703-6.47 28.109 0 18.453 6.47 28.14Q19.53 74.22 31.78 74.22z" id="DejaVuSans-48"/></defs><g transform="matrix(0 -.1 -.1 0 464.424 335.452)"><use xlink:href="#DejaVuSans-112"/><use x="63.477" xlink:href="#DejaVuSans-101"/><use x="125" xlink:href="#DejaVuSans-114"/><use x="166.113" xlink:href="#DejaVuSans-115"/><use x="218.213" xlink:href="#DejaVuSans-111"/><use x="279.395" xlink:href="#DejaVuSans-110"/><use x="342.773" xlink:href="#DejaVuSans-95"/><use x="392.773" xlink:href="#DejaVuSans-49"/><use x="456.396" xlink:href="#DejaVuSans-48"/><use x="520.02" xlink:href="#DejaVuSans-48"/><use x="583.643" xlink:href="#DejaVuSans-95"/><use x="633.643" xlink:href="#DejaVuSans-100"/><use x="697.119" xlink:href="#DejaVuSans-101"/><use x="758.643" xlink:href="#DejaVuSans-108"/><use x="786.426" xlink:href="#DejaVuSans-116"/><use x="825.635" xlink:href="#DejaVuSans-97"/></g></g></g><g id="xtick_14"><use x="492.547" xlink:href="#m04ce5230be" y="239.758" stroke="#000" stroke-width=".8" id="line2d_14"/><g id="text_14"><defs><path d="M8.203 72.906h46.875v-4.203L28.61 0H18.312L43.22 64.594H8.203z" id="DejaVuSans-55"/></defs><g transform="matrix(0 -.1 -.1 0 495.167 335.452)"><use xlink:href="#DejaVuSans-112"/><use x="63.477" xlink:href="#DejaVuSans-101"/><use x="125" xlink:href="#DejaVuSans-114"/><use x="166.113" xlink:href="#DejaVuSans-115"/><use x="218.213" xlink:href="#DejaVuSans-111"/><use x="279.395" xlink:href="#DejaVuSans-110"/><use x="342.773" xlink:href="#DejaVuSans-95"/><use x="392.773" xlink:href="#DejaVuSans-55"/><use x="456.396" xlink:href="#DejaVuSans-48"/><use x="520.02" xlink:href="#DejaVuSans-48"/><use x="583.643" xlink:href="#DejaVuSans-95"/><use x="633.643" xlink:href="#DejaVuSans-100"/><use x="697.119" xlink:href="#DejaVuSans-101"/><use x="758.643" xlink:href="#DejaVuSans-108"/><use x="786.426" xlink:href="#DejaVuSans-116"/><use x="825.635" xlink:href="#DejaVuSans-97"/></g></g></g><g id="xtick_15"><use x="523.291" xlink:href="#m04ce5230be" y="239.758" stroke="#000" stroke-width=".8" id="line2d_15"/><g id="text_15"><defs><path d="M19.188 8.297h34.421V0H7.33v8.297q5.609 5.812 15.296 15.594 9.703 9.797 12.188 12.64 4.734 5.313 6.609 9 1.89 3.688 1.89 7.25 0 5.813-4.078 9.469-4.078 3.672-10.625 3.672-4.64 0-9.797-1.61-5.14-1.609-11-4.89v9.969Q13.767 71.78 18.938 73q5.188 1.219 9.485 1.219 11.328 0 18.062-5.672 6.735-5.656 6.735-15.125 0-4.5-1.688-8.531-1.672-4.016-6.125-9.485-1.218-1.422-7.765-8.187-6.532-6.766-18.453-18.922z" id="DejaVuSans-50"/><path d="M37.797 64.313L12.89 25.39h24.906zm-2.594 8.593H47.61V25.391h10.407v-8.203H47.609V0h-9.812v17.188H4.89v9.515z" id="DejaVuSans-52"/><path d="M10.797 72.906h38.719v-8.312H19.828v-17.86q2.14.735 4.281 1.094 2.157.36 4.313.36 12.203 0 19.328-6.688 7.14-6.688 7.14-18.11 0-11.765-7.328-18.296-7.328-6.516-20.656-6.516-4.593 0-9.36.781-4.75.782-9.827 2.344v9.922q4.39-2.39 9.078-3.563 4.687-1.171 9.906-1.171 8.453 0 13.375 4.437 4.938 4.438 4.938 12.063 0 7.609-4.938 12.047-4.922 4.453-13.375 4.453-3.953 0-7.89-.875-3.922-.875-8.016-2.735z" id="DejaVuSans-53"/></defs><g transform="matrix(0 -.1 -.1 0 525.911 340.95)"><use xlink:href="#DejaVuSans-112"/><use x="63.477" xlink:href="#DejaVuSans-101"/><use x="125" xlink:href="#DejaVuSans-114"/><use x="166.113" xlink:href="#DejaVuSans-115"/><use x="218.213" xlink:href="#DejaVuSans-111"/><use x="279.395" xlink:href="#DejaVuSans-110"/><use x="342.773" xlink:href="#DejaVuSans-95"/><use x="392.773" xlink:href="#DejaVuSans-50"/><use x="456.396" xlink:href="#DejaVuSans-52"/><use x="520.02" xlink:href="#DejaVuSans-53"/><use x="583.643" xlink:href="#DejaVuSans-99"/><use x="638.623" xlink:href="#DejaVuSans-95"/><use x="688.623" xlink:href="#DejaVuSans-100"/><use x="752.1" xlink:href="#DejaVuSans-101"/><use x="813.623" xlink:href="#DejaVuSans-108"/><use x="841.406" xlink:href="#DejaVuSans-116"/><use x="880.615" xlink:href="#DejaVuSans-97"/></g></g></g><g id="xtick_16"><use x="554.035" xlink:href="#m04ce5230be" y="239.758" stroke="#000" stroke-width=".8" id="line2d_16"/><g transform="matrix(0 -.1 -.1 0 556.655 311.935)" id="text_16"><use xlink:href="#DejaVuSans-112"/><use x="63.477" xlink:href="#DejaVuSans-117"/><use x="126.855" xlink:href="#DejaVuSans-98"/><use x="190.332" xlink:href="#DejaVuSans-105"/><use x="218.115" xlink:href="#DejaVuSans-110"/><use x="281.494" xlink:href="#DejaVuSans-105"/><use x="309.277" xlink:href="#DejaVuSans-116"/><use x="348.486" xlink:href="#DejaVuSans-95"/><use x="398.486" xlink:href="#DejaVuSans-100"/><use x="461.963" xlink:href="#DejaVuSans-101"/><use x="523.486" xlink:href="#DejaVuSans-108"/><use x="551.27" xlink:href="#DejaVuSans-116"/><use x="590.479" xlink:href="#DejaVuSans-97"/></g></g><g id="xtick_17"><use x="584.778" xlink:href="#m04ce5230be" y="239.758" stroke="#000" stroke-width=".8" id="line2d_17"/><g transform="matrix(0 -.1 -.1 0 587.399 302.853)" id="text_17"><use xlink:href="#DejaVuSans-115"/><use x="52.1" xlink:href="#DejaVuSans-99"/><use x="107.08" xlink:href="#DejaVuSans-97"/><use x="168.359" xlink:href="#DejaVuSans-108"/><use x="196.143" xlink:href="#DejaVuSans-101"/><use x="257.666" xlink:href="#DejaVuSans-95"/><use x="307.666" xlink:href="#DejaVuSans-100"/><use x="371.143" xlink:href="#DejaVuSans-101"/><use x="432.666" xlink:href="#DejaVuSans-108"/><use x="460.449" xlink:href="#DejaVuSans-116"/><use x="499.658" xlink:href="#DejaVuSans-97"/></g></g><g id="xtick_18"><use x="615.522" xlink:href="#m04ce5230be" y="239.758" stroke="#000" stroke-width=".8" id="line2d_18"/><g transform="matrix(0 -.1 -.1 0 618.143 327.207)" id="text_18"><use xlink:href="#DejaVuSans-116"/><use x="39.209" xlink:href="#DejaVuSans-116"/><use x="78.418" xlink:href="#DejaVuSans-108"/><use x="106.201" xlink:href="#DejaVuSans-102"/><use x="141.406" xlink:href="#DejaVuSans-117"/><use x="204.785" xlink:href="#DejaVuSans-108"/><use x="232.568" xlink:href="#DejaVuSans-108"/><use x="260.352" xlink:href="#DejaVuSans-95"/><use x="310.352" xlink:href="#DejaVuSans-50"/><use x="373.975" xlink:href="#DejaVuSans-52"/><use x="437.598" xlink:href="#DejaVuSans-53"/><use x="501.221" xlink:href="#DejaVuSans-95"/><use x="551.221" xlink:href="#DejaVuSans-100"/><use x="614.697" xlink:href="#DejaVuSans-101"/><use x="676.221" xlink:href="#DejaVuSans-108"/><use x="704.004" xlink:href="#DejaVuSans-116"/><use x="743.213" xlink:href="#DejaVuSans-97"/></g></g><g id="xtick_19"><use x="646.266" xlink:href="#m04ce5230be" y="239.758" stroke="#000" stroke-width=".8" id="line2d_19"/><g id="text_19"><defs><path d="M33.016 40.375q-6.641 0-10.532-4.547-3.875-4.531-3.875-12.437 0-7.86 3.875-12.438 3.891-4.562 10.532-4.562 6.64 0 10.515 4.562 3.875 4.578 3.875 12.438 0 7.906-3.875 12.437-3.875 4.547-10.515 4.547zm19.578 30.922v-8.984q-3.719 1.75-7.5 2.671-3.782.938-7.5.938-9.766 0-14.922-6.594-5.14-6.594-5.875-19.922 2.875 4.25 7.219 6.516 4.359 2.266 9.578 2.266 10.984 0 17.36-6.672 6.374-6.657 6.374-18.125 0-11.235-6.64-18.032-6.641-6.78-17.672-6.78-12.657 0-19.344 9.687-6.688 9.703-6.688 28.109 0 17.281 8.204 27.563 8.203 10.28 22.015 10.28 3.719 0 7.5-.734t7.89-2.187z" id="DejaVuSans-54"/></defs><g transform="matrix(0 -.1 -.1 0 648.886 327.207)"><use xlink:href="#DejaVuSans-116"/><use x="39.209" xlink:href="#DejaVuSans-116"/><use x="78.418" xlink:href="#DejaVuSans-108"/><use x="106.201" xlink:href="#DejaVuSans-102"/><use x="141.406" xlink:href="#DejaVuSans-117"/><use x="204.785" xlink:href="#DejaVuSans-108"/><use x="232.568" xlink:href="#DejaVuSans-108"/><use x="260.352" xlink:href="#DejaVuSans-95"/><use x="310.352" xlink:href="#DejaVuSans-50"/><use x="373.975" xlink:href="#DejaVuSans-52"/><use x="437.598" xlink:href="#DejaVuSans-54"/><use x="501.221" xlink:href="#DejaVuSans-95"/><use x="551.221" xlink:href="#DejaVuSans-100"/><use x="614.697" xlink:href="#DejaVuSans-101"/><use x="676.221" xlink:href="#DejaVuSans-108"/><use x="704.004" xlink:href="#DejaVuSans-116"/><use x="743.213" xlink:href="#DejaVuSans-97"/></g></g></g><g id="xtick_20"><use x="677.01" xlink:href="#m04ce5230be" y="239.758" stroke="#000" stroke-width=".8" id="line2d_20"/><g id="text_20"><defs><path d="M2.984 54.688H12.5L29.594 8.797l17.093 45.89h9.516L35.687 0H23.485z" id="DejaVuSans-118"/></defs><g transform="matrix(0 -.1 -.1 0 679.63 319.342)"><use xlink:href="#DejaVuSans-118"/><use x="59.18" xlink:href="#DejaVuSans-111"/><use x="120.361" xlink:href="#DejaVuSans-108"/><use x="148.145" xlink:href="#DejaVuSans-117"/><use x="211.523" xlink:href="#DejaVuSans-109"/><use x="308.936" xlink:href="#DejaVuSans-101"/><use x="370.459" xlink:href="#DejaVuSans-115"/><use x="422.559" xlink:href="#DejaVuSans-95"/><use x="472.559" xlink:href="#DejaVuSans-100"/><use x="536.035" xlink:href="#DejaVuSans-101"/><use x="597.559" xlink:href="#DejaVuSans-108"/><use x="625.342" xlink:href="#DejaVuSans-116"/><use x="664.551" xlink:href="#DejaVuSans-97"/></g></g></g><g transform="matrix(.1 0 0 -.1 366.784 361.036)" id="text_21"><use xlink:href="#DejaVuSans-102"/><use x="35.205" xlink:href="#DejaVuSans-101"/><use x="96.729" xlink:href="#DejaVuSans-97"/><use x="158.008" xlink:href="#DejaVuSans-116"/><use x="197.217" xlink:href="#DejaVuSans-117"/><use x="260.596" xlink:href="#DejaVuSans-114"/><use x="301.678" xlink:href="#DejaVuSans-101"/></g></g><g id="matplotlib.axis_2"><g id="ytick_1"><g id="line2d_21"><defs><path d="M0 0h-3.5" id="m310923bebe" stroke="#000" stroke-width=".8"/></defs><use x="50.144" xlink:href="#m310923bebe" y="239.758" stroke="#000" stroke-width=".8"/></g><g id="text_22"><defs><path d="M10.688 12.406H21V0H10.687z" id="DejaVuSans-46"/></defs><g transform="matrix(.1 0 0 -.1 20.878 243.557)"><use xlink:href="#DejaVuSans-48"/><use x="63.623" xlink:href="#DejaVuSans-46"/><use x="95.41" xlink:href="#DejaVuSans-48"/><use x="159.033" xlink:href="#DejaVuSans-48"/></g></g></g><g id="ytick_2"><use x="50.144" xlink:href="#m310923bebe" y="196.144" stroke="#000" stroke-width=".8" id="line2d_22"/><g transform="matrix(.1 0 0 -.1 20.878 199.943)" id="text_23"><use xlink:href="#DejaVuSans-48"/><use x="63.623" xlink:href="#DejaVuSans-46"/><use x="95.41" xlink:href="#DejaVuSans-48"/><use x="159.033" xlink:href="#DejaVuSans-53"/></g></g><g id="ytick_3"><use x="50.144" xlink:href="#m310923bebe" y="152.529" stroke="#000" stroke-width=".8" id="line2d_23"/><g transform="matrix(.1 0 0 -.1 20.878 156.328)" id="text_24"><use xlink:href="#DejaVuSans-48"/><use x="63.623" xlink:href="#DejaVuSans-46"/><use x="95.41" xlink:href="#DejaVuSans-49"/><use x="159.033" xlink:href="#DejaVuSans-48"/></g></g><g id="ytick_4"><use x="50.144" xlink:href="#m310923bebe" y="108.914" stroke="#000" stroke-width=".8" id="line2d_24"/><g transform="matrix(.1 0 0 -.1 20.878 112.714)" id="text_25"><use xlink:href="#DejaVuSans-48"/><use x="63.623" xlink:href="#DejaVuSans-46"/><use x="95.41" xlink:href="#DejaVuSans-49"/><use x="159.033" xlink:href="#DejaVuSans-53"/></g></g><g id="ytick_5"><use x="50.144" xlink:href="#m310923bebe" y="65.3" stroke="#000" stroke-width=".8" id="line2d_25"/><g transform="matrix(.1 0 0 -.1 20.878 69.1)" id="text_26"><use xlink:href="#DejaVuSans-48"/><use x="63.623" xlink:href="#DejaVuSans-46"/><use x="95.41" xlink:href="#DejaVuSans-50"/><use x="159.033" xlink:href="#DejaVuSans-48"/></g></g><g id="text_27"><g transform="matrix(0 -.1 -.1 0 14.798 195.845)"><use xlink:href="#DejaVuSans-110"/><use x="63.379" xlink:href="#DejaVuSans-111"/><use x="124.561" xlink:href="#DejaVuSans-114"/><use x="165.658" xlink:href="#DejaVuSans-109"/><use x="263.07" xlink:href="#DejaVuSans-101"/><use x="324.594" xlink:href="#DejaVuSans-100"/><use x="388.07" xlink:href="#DejaVuSans-32"/><use x="419.857" xlink:href="#DejaVuSans-105"/><use x="447.641" xlink:href="#DejaVuSans-109"/><use x="545.053" xlink:href="#DejaVuSans-112"/><use x="608.529" xlink:href="#DejaVuSans-111"/><use x="669.711" xlink:href="#DejaVuSans-114"/><use x="710.824" xlink:href="#DejaVuSans-116"/><use x="750.033" xlink:href="#DejaVuSans-97"/><use x="811.313" xlink:href="#DejaVuSans-110"/><use x="874.691" xlink:href="#DejaVuSans-99"/><use x="929.672" xlink:href="#DejaVuSans-101"/><use x="991.195" xlink:href="#DejaVuSans-32"/><use x="1022.982" xlink:href="#DejaVuSans-118"/><use x="1082.162" xlink:href="#DejaVuSans-97"/><use x="1143.441" xlink:href="#DejaVuSans-108"/><use x="1171.225" xlink:href="#DejaVuSans-117"/><use x="1234.604" xlink:href="#DejaVuSans-101"/></g></g></g><path d="M50.144 239.758V22.318" fill="none" stroke="#000" stroke-linecap="square" stroke-width=".8" id="patch_23"/><path d="M719.744 239.758V22.318" fill="none" stroke="#000" stroke-linecap="square" stroke-width=".8" id="patch_24"/><path d="M50.144 239.758h669.6" fill="none" stroke="#000" stroke-linecap="square" stroke-width=".8" id="patch_25"/><path d="M50.144 22.318h669.6" fill="none" stroke="#000" stroke-linecap="square" stroke-width=".8" id="patch_26"/><g id="text_28"><defs><path d="M40.578 39.313Q47.656 37.797 51.625 33q3.984-4.781 3.984-11.813 0-10.78-7.422-16.703-7.421-5.906-21.093-5.906-4.578 0-9.438.906-4.86.907-10.031 2.72v9.515q4.094-2.39 8.969-3.61 4.89-1.218 10.218-1.218 9.266 0 14.125 3.656 4.86 3.656 4.86 10.64 0 6.454-4.516 10.079-4.515 3.64-12.562 3.64h-8.5v8.11h8.89q7.266 0 11.125 2.906 3.86 2.906 3.86 8.375 0 5.61-3.985 8.61-3.968 3.015-11.39 3.015-4.063 0-8.703-.89-4.641-.876-10.203-2.72v8.782q5.624 1.562 10.53 2.344 4.907.78 9.25.78 11.235 0 17.766-5.109 6.547-5.093 6.547-13.78 0-6.063-3.468-10.235-3.47-4.172-9.86-5.782z" id="DejaVuSans-51"/><path d="M72.703 32.078q-4.25 0-6.672-3.61-2.406-3.609-2.406-10.062 0-6.343 2.406-9.984 2.422-3.64 6.672-3.64 4.156 0 6.563 3.64 2.421 3.64 2.421 9.984 0 6.407-2.421 10.032-2.407 3.64-6.563 3.64zm0 6.203q7.719 0 12.25-5.375 4.547-5.36 4.547-14.5 0-9.125-4.563-14.484-4.562-5.344-12.234-5.344-7.812 0-12.36 5.344-4.53 5.36-4.53 14.484 0 9.188 4.562 14.532 4.563 5.343 12.328 5.343zm-50.39 29.735q-4.204 0-6.625-3.641-2.407-3.625-2.407-9.984 0-6.438 2.39-10.063 2.392-3.61 6.642-3.61t6.656 3.61q2.422 3.625 2.422 10.063 0 6.297-2.438 9.953-2.437 3.672-6.64 3.672zm44.093 6.203h7.813l-45.61-75.64h-7.812zm-44.094 0q7.72 0 12.297-5.344 4.594-5.344 4.594-14.484 0-9.22-4.562-14.547-4.563-5.328-12.328-5.328-7.766 0-12.282 5.343-4.515 5.36-4.515 14.532 0 9.093 4.53 14.453 4.548 5.375 12.267 5.375z" id="DejaVuSans-37"/></defs><g transform="scale(.13 -.13) rotate(30 1247.787 886.739)"><use xlink:href="#DejaVuSans-48"/><use x="63.623" xlink:href="#DejaVuSans-46"/><use x="95.41" xlink:href="#DejaVuSans-51"/><use x="159.033" xlink:href="#DejaVuSans-53"/><use x="222.656" xlink:href="#DejaVuSans-37"/></g></g><g transform="scale(.13 -.13) rotate(30 1366.033 1328.036)" id="text_29"><use xlink:href="#DejaVuSans-48"/><use x="63.623" xlink:href="#DejaVuSans-46"/><use x="95.41" xlink:href="#DejaVuSans-52"/><use x="159.033" xlink:href="#DejaVuSans-50"/><use x="222.656" xlink:href="#DejaVuSans-37"/></g><g id="text_30"><defs><path d="M10.984 1.516V10.5q3.72-1.766 7.516-2.688 3.813-.921 7.484-.921 9.766 0 14.907 6.562 5.156 6.563 5.89 19.953-2.828-4.203-7.187-6.453-4.344-2.25-9.61-2.25-10.937 0-17.312 6.61-6.375 6.625-6.375 18.109 0 11.219 6.64 18 6.641 6.797 17.672 6.797 12.657 0 19.313-9.703 6.672-9.688 6.672-28.141 0-17.234-8.188-27.516Q40.234-1.42 26.422-1.42q-3.719 0-7.531.734-3.797.734-7.907 2.203zM30.61 32.422q6.641 0 10.516 4.531 3.89 4.547 3.89 12.469 0 7.86-3.89 12.422-3.875 4.562-10.516 4.562-6.64 0-10.515-4.562-3.875-4.563-3.875-12.422 0-7.922 3.875-12.469 3.875-4.531 10.515-4.531z" id="DejaVuSans-57"/></defs><g transform="scale(.13 -.13) rotate(30 1484.278 1769.334)"><use xlink:href="#DejaVuSans-49"/><use x="63.623" xlink:href="#DejaVuSans-46"/><use x="95.41" xlink:href="#DejaVuSans-55"/><use x="159.033" xlink:href="#DejaVuSans-57"/><use x="222.656" xlink:href="#DejaVuSans-37"/></g></g><g transform="scale(.13 -.13) rotate(30 1602.523 2210.632)" id="text_31"><use xlink:href="#DejaVuSans-48"/><use x="63.623" xlink:href="#DejaVuSans-46"/><use x="95.41" xlink:href="#DejaVuSans-53"/><use x="159.033" xlink:href="#DejaVuSans-48"/><use x="222.656" xlink:href="#DejaVuSans-37"/></g><g transform="scale(.13 -.13) rotate(30 1720.769 2651.93)" id="text_32"><use xlink:href="#DejaVuSans-49"/><use x="63.623" xlink:href="#DejaVuSans-46"/><use x="95.41" xlink:href="#DejaVuSans-51"/><use x="159.033" xlink:href="#DejaVuSans-54"/><use x="222.656" xlink:href="#DejaVuSans-37"/></g><g transform="scale(.13 -.13) rotate(30 1839.014 3093.228)" id="text_33"><use xlink:href="#DejaVuSans-50"/><use x="63.623" xlink:href="#DejaVuSans-51"/><use x="127.246" xlink:href="#DejaVuSans-46"/><use x="159.033" xlink:href="#DejaVuSans-55"/><use x="222.656" xlink:href="#DejaVuSans-52"/><use x="286.279" xlink:href="#DejaVuSans-37"/></g><g id="text_34"><defs><path d="M31.781 34.625q-7.031 0-11.062-3.766-4.016-3.765-4.016-10.343 0-6.594 4.016-10.36Q24.75 6.391 31.78 6.391q7.032 0 11.078 3.78 4.063 3.798 4.063 10.345 0 6.578-4.031 10.343-4.016 3.766-11.11 3.766zm-9.86 4.188q-6.343 1.562-9.89 5.906Q8.5 49.079 8.5 55.329q0 8.733 6.219 13.812 6.234 5.078 17.062 5.078 10.89 0 17.094-5.078 6.203-5.079 6.203-13.813 0-6.25-3.547-10.61-3.531-4.343-9.828-5.906 7.125-1.656 11.094-6.5 3.984-4.828 3.984-11.796 0-10.61-6.468-16.282-6.47-5.656-18.532-5.656-12.047 0-18.531 5.656-6.469 5.672-6.469 16.282 0 6.968 4 11.797 4.016 4.843 11.14 6.5zM18.314 54.39q0-5.657 3.53-8.828 3.548-3.172 9.938-3.172 6.36 0 9.938 3.172 3.593 3.171 3.593 8.828 0 5.672-3.593 8.843-3.578 3.172-9.938 3.172-6.39 0-9.937-3.172-3.532-3.172-3.532-8.843z" id="DejaVuSans-56"/></defs><g transform="scale(.13 -.13) rotate(30 1957.26 3534.525)"><use xlink:href="#DejaVuSans-48"/><use x="63.623" xlink:href="#DejaVuSans-46"/><use x="95.41" xlink:href="#DejaVuSans-55"/><use x="159.033" xlink:href="#DejaVuSans-56"/><use x="222.656" xlink:href="#DejaVuSans-37"/></g></g><g transform="scale(.13 -.13) rotate(30 2075.505 3975.823)" id="text_35"><use xlink:href="#DejaVuSans-51"/><use x="63.623" xlink:href="#DejaVuSans-46"/><use x="95.41" xlink:href="#DejaVuSans-53"/><use x="159.033" xlink:href="#DejaVuSans-55"/><use x="222.656" xlink:href="#DejaVuSans-37"/></g><g transform="scale(.13 -.13) rotate(30 2193.75 4417.121)" id="text_36"><use xlink:href="#DejaVuSans-50"/><use x="63.623" xlink:href="#DejaVuSans-46"/><use x="95.41" xlink:href="#DejaVuSans-56"/><use x="159.033" xlink:href="#DejaVuSans-50"/><use x="222.656" xlink:href="#DejaVuSans-37"/></g><g transform="scale(.13 -.13) rotate(30 2311.996 4858.419)" id="text_37"><use xlink:href="#DejaVuSans-48"/><use x="63.623" xlink:href="#DejaVuSans-46"/><use x="95.41" xlink:href="#DejaVuSans-50"/><use x="159.033" xlink:href="#DejaVuSans-54"/><use x="222.656" xlink:href="#DejaVuSans-37"/></g><g transform="scale(.13 -.13) rotate(30 2430.241 5299.717)" id="text_38"><use xlink:href="#DejaVuSans-51"/><use x="63.623" xlink:href="#DejaVuSans-46"/><use x="95.41" xlink:href="#DejaVuSans-48"/><use x="159.033" xlink:href="#DejaVuSans-51"/><use x="222.656" xlink:href="#DejaVuSans-37"/></g><g transform="scale(.13 -.13) rotate(30 2548.487 5741.014)" id="text_39"><use xlink:href="#DejaVuSans-50"/><use x="63.623" xlink:href="#DejaVuSans-46"/><use x="95.41" xlink:href="#DejaVuSans-53"/><use x="159.033" xlink:href="#DejaVuSans-52"/><use x="222.656" xlink:href="#DejaVuSans-37"/></g><g transform="scale(.13 -.13) rotate(30 2666.732 6182.312)" id="text_40"><use xlink:href="#DejaVuSans-49"/><use x="63.623" xlink:href="#DejaVuSans-46"/><use x="95.41" xlink:href="#DejaVuSans-56"/><use x="159.033" xlink:href="#DejaVuSans-53"/><use x="222.656" xlink:href="#DejaVuSans-37"/></g><g transform="scale(.13 -.13) rotate(30 2784.977 6623.61)" id="text_41"><use xlink:href="#DejaVuSans-53"/><use x="63.623" xlink:href="#DejaVuSans-46"/><use x="95.41" xlink:href="#DejaVuSans-53"/><use x="159.033" xlink:href="#DejaVuSans-50"/><use x="222.656" xlink:href="#DejaVuSans-37"/></g><g transform="scale(.13 -.13) rotate(30 2903.223 7064.908)" id="text_42"><use xlink:href="#DejaVuSans-49"/><use x="63.623" xlink:href="#DejaVuSans-50"/><use x="127.246" xlink:href="#DejaVuSans-46"/><use x="159.033" xlink:href="#DejaVuSans-49"/><use x="222.656" xlink:href="#DejaVuSans-54"/><use x="286.279" xlink:href="#DejaVuSans-37"/></g><g transform="scale(.13 -.13) rotate(30 3021.468 7506.206)" id="text_43"><use xlink:href="#DejaVuSans-53"/><use x="63.623" xlink:href="#DejaVuSans-46"/><use x="95.41" xlink:href="#DejaVuSans-50"/><use x="159.033" xlink:href="#DejaVuSans-54"/><use x="222.656" xlink:href="#DejaVuSans-37"/></g><g transform="scale(.13 -.13) rotate(30 3139.713 7947.503)" id="text_44"><use xlink:href="#DejaVuSans-48"/><use x="63.623" xlink:href="#DejaVuSans-46"/><use x="95.41" xlink:href="#DejaVuSans-52"/><use x="159.033" xlink:href="#DejaVuSans-55"/><use x="222.656" xlink:href="#DejaVuSans-37"/></g><g transform="scale(.13 -.13) rotate(30 3257.959 8388.801)" id="text_45"><use xlink:href="#DejaVuSans-49"/><use x="63.623" xlink:href="#DejaVuSans-56"/><use x="127.246" xlink:href="#DejaVuSans-46"/><use x="159.033" xlink:href="#DejaVuSans-57"/><use x="222.656" xlink:href="#DejaVuSans-49"/><use x="286.279" xlink:href="#DejaVuSans-37"/></g><g transform="scale(.13 -.13) rotate(30 3376.204 8830.1)" id="text_46"><use xlink:href="#DejaVuSans-50"/><use x="63.623" xlink:href="#DejaVuSans-46"/><use x="95.41" xlink:href="#DejaVuSans-52"/><use x="159.033" xlink:href="#DejaVuSans-56"/><use x="222.656" xlink:href="#DejaVuSans-37"/></g><g transform="scale(.13 -.13) rotate(30 3494.45 9271.397)" id="text_47"><use xlink:href="#DejaVuSans-49"/><use x="63.623" xlink:href="#DejaVuSans-50"/><use x="127.246" xlink:href="#DejaVuSans-46"/><use x="159.033" xlink:href="#DejaVuSans-49"/><use x="222.656" xlink:href="#DejaVuSans-57"/><use x="286.279" xlink:href="#DejaVuSans-37"/></g><g id="text_48"><defs><path d="M9.813 72.906h41.89v-8.312H19.672V43.109h28.906v-8.297H19.672V0h-9.86z" id="DejaVuSans-70"/></defs><g transform="matrix(.12 0 0 -.12 325.63 16.318)"><use xlink:href="#DejaVuSans-70"/><use x="57.441" xlink:href="#DejaVuSans-101"/><use x="118.965" xlink:href="#DejaVuSans-97"/><use x="180.244" xlink:href="#DejaVuSans-116"/><use x="219.453" xlink:href="#DejaVuSans-117"/><use x="282.832" xlink:href="#DejaVuSans-114"/><use x="323.914" xlink:href="#DejaVuSans-101"/><use x="385.438" xlink:href="#DejaVuSans-32"/><use x="417.225" xlink:href="#DejaVuSans-105"/><use x="445.008" xlink:href="#DejaVuSans-109"/><use x="542.42" xlink:href="#DejaVuSans-112"/><use x="605.896" xlink:href="#DejaVuSans-111"/><use x="667.078" xlink:href="#DejaVuSans-114"/><use x="708.191" xlink:href="#DejaVuSans-116"/><use x="747.4" xlink:href="#DejaVuSans-97"/><use x="808.68" xlink:href="#DejaVuSans-110"/><use x="872.059" xlink:href="#DejaVuSans-99"/><use x="927.039" xlink:href="#DejaVuSans-101"/></g></g></g></g><defs><clipPath id="p2a27189300"><path d="M50.144 22.318h669.6v217.44h-669.6z"/></clipPath></defs></svg>