<?xml version="1.0" encoding="utf-8" standalone="no"?>
<!DOCTYPE svg PUBLIC "-//W3C//DTD SVG 1.1//EN"
  "http://www.w3.org/Graphics/SVG/1.1/DTD/svg11.dtd">
<!-- Created with matplotlib (https://matplotlib.org/) -->
<svg height="370.315938pt" version="1.1" viewBox="0 0 726.94375 370.315938" width="726.94375pt" xmlns="http://www.w3.org/2000/svg" xmlns:xlink="http://www.w3.org/1999/xlink">
 <defs>
  <style type="text/css">
*{stroke-linecap:butt;stroke-linejoin:round;}
  </style>
 </defs>
 <g id="figure_1">
  <g id="patch_1">
   <path d="M 0 370.315938 
L 726.94375 370.315938 
L 726.94375 0 
L 0 0 
z
" style="fill:#ffffff;"/>
  </g>
  <g id="axes_1">
   <g id="patch_2">
    <path d="M 50.14375 239.758125 
L 719.74375 239.758125 
L 719.74375 22.318125 
L 50.14375 22.318125 
z
" style="fill:#ffffff;"/>
   </g>
   <g id="patch_3">
    <path clip-path="url(#p2a27189300)" d="M 80.580114 239.758125 
L 105.175155 239.758125 
L 105.175155 236.715038 
L 80.580114 236.715038 
z
" style="fill:#ff0000;"/>
   </g>
   <g id="patch_4">
    <path clip-path="url(#p2a27189300)" d="M 111.323915 239.758125 
L 135.918957 239.758125 
L 135.918957 236.102266 
L 111.323915 236.102266 
z
" style="fill:#ff0000;"/>
   </g>
   <g id="patch_5">
    <path clip-path="url(#p2a27189300)" d="M 142.067717 239.758125 
L 166.662758 239.758125 
L 166.662758 224.124014 
L 142.067717 224.124014 
z
" style="fill:#ff0000;"/>
   </g>
   <g id="patch_6">
    <path clip-path="url(#p2a27189300)" d="M 172.811519 239.758125 
L 197.40656 239.758125 
L 197.40656 235.427113 
L 172.811519 235.427113 
z
" style="fill:#ff0000;"/>
   </g>
   <g id="patch_7">
    <path clip-path="url(#p2a27189300)" d="M 203.55532 239.758125 
L 228.150362 239.758125 
L 228.150362 227.883535 
L 203.55532 227.883535 
z
" style="fill:#ff0000;"/>
   </g>
   <g id="patch_8">
    <path clip-path="url(#p2a27189300)" d="M 234.299122 239.758125 
L 258.894163 239.758125 
L 258.894163 32.672411 
L 234.299122 32.672411 
z
" style="fill:#ff0000;"/>
   </g>
   <g id="patch_9">
    <path clip-path="url(#p2a27189300)" d="M 265.042924 239.758125 
L 289.637965 239.758125 
L 289.637965 232.993597 
L 265.042924 232.993597 
z
" style="fill:#ff0000;"/>
   </g>
   <g id="patch_10">
    <path clip-path="url(#p2a27189300)" d="M 295.786725 239.758125 
L 320.381767 239.758125 
L 320.381767 208.595405 
L 295.786725 208.595405 
z
" style="fill:#ff0000;"/>
   </g>
   <g id="patch_11">
    <path clip-path="url(#p2a27189300)" d="M 326.530527 239.758125 
L 351.125568 239.758125 
L 351.125568 215.162168 
L 326.530527 215.162168 
z
" style="fill:#ff0000;"/>
   </g>
   <g id="patch_12">
    <path clip-path="url(#p2a27189300)" d="M 357.274329 239.758125 
L 381.86937 239.758125 
L 381.86937 237.495785 
L 357.274329 237.495785 
z
" style="fill:#ff0000;"/>
   </g>
   <g id="patch_13">
    <path clip-path="url(#p2a27189300)" d="M 388.01813 239.758125 
L 412.613171 239.758125 
L 412.613171 213.332146 
L 388.01813 213.332146 
z
" style="fill:#ff0000;"/>
   </g>
   <g id="patch_14">
    <path clip-path="url(#p2a27189300)" d="M 418.761932 239.758125 
L 443.356973 239.758125 
L 443.356973 217.609373 
L 418.761932 217.609373 
z
" style="fill:#ff0000;"/>
   </g>
   <g id="patch_15">
    <path clip-path="url(#p2a27189300)" d="M 449.505733 239.758125 
L 474.100775 239.758125 
L 474.100775 223.626955 
L 449.505733 223.626955 
z
" style="fill:#ff0000;"/>
   </g>
   <g id="patch_16">
    <path clip-path="url(#p2a27189300)" d="M 480.249535 239.758125 
L 504.844576 239.758125 
L 504.844576 191.619046 
L 480.249535 191.619046 
z
" style="fill:#ff0000;"/>
   </g>
   <g id="patch_17">
    <path clip-path="url(#p2a27189300)" d="M 510.993337 239.758125 
L 535.588378 239.758125 
L 535.588378 133.659357 
L 510.993337 133.659357 
z
" style="fill:#ff0000;"/>
   </g>
   <g id="patch_18">
    <path clip-path="url(#p2a27189300)" d="M 541.737138 239.758125 
L 566.33218 239.758125 
L 566.33218 193.847893 
L 541.737138 193.847893 
z
" style="fill:#ff0000;"/>
   </g>
   <g id="patch_19">
    <path clip-path="url(#p2a27189300)" d="M 572.48094 239.758125 
L 597.075981 239.758125 
L 597.075981 235.618201 
L 572.48094 235.618201 
z
" style="fill:#ff0000;"/>
   </g>
   <g id="patch_20">
    <path clip-path="url(#p2a27189300)" d="M 603.224742 239.758125 
L 627.819783 239.758125 
L 627.819783 74.779529 
L 603.224742 74.779529 
z
" style="fill:#ff0000;"/>
   </g>
   <g id="patch_21">
    <path clip-path="url(#p2a27189300)" d="M 633.968543 239.758125 
L 658.563585 239.758125 
L 658.563585 218.139045 
L 633.968543 218.139045 
z
" style="fill:#ff0000;"/>
   </g>
   <g id="patch_22">
    <path clip-path="url(#p2a27189300)" d="M 664.712345 239.758125 
L 689.307386 239.758125 
L 689.307386 133.4685 
L 664.712345 133.4685 
z
" style="fill:#ff0000;"/>
   </g>
   <g id="matplotlib.axis_1">
    <g id="xtick_1">
     <g id="line2d_1">
      <defs>
       <path d="M 0 0 
L 0 3.5 
" id="m04ce5230be" style="stroke:#000000;stroke-width:0.8;"/>
      </defs>
      <g>
       <use style="stroke:#000000;stroke-width:0.8;" x="92.877634" xlink:href="#m04ce5230be" y="239.758125"/>
      </g>
     </g>
     <g id="text_1">
      <!-- coordinate_E_delta -->
      <defs>
       <path d="M 48.78125 52.59375 
L 48.78125 44.1875 
Q 44.96875 46.296875 41.140625 47.34375 
Q 37.3125 48.390625 33.40625 48.390625 
Q 24.65625 48.390625 19.8125 42.84375 
Q 14.984375 37.3125 14.984375 27.296875 
Q 14.984375 17.28125 19.8125 11.734375 
Q 24.65625 6.203125 33.40625 6.203125 
Q 37.3125 6.203125 41.140625 7.25 
Q 44.96875 8.296875 48.78125 10.40625 
L 48.78125 2.09375 
Q 45.015625 0.34375 40.984375 -0.53125 
Q 36.96875 -1.421875 32.421875 -1.421875 
Q 20.0625 -1.421875 12.78125 6.34375 
Q 5.515625 14.109375 5.515625 27.296875 
Q 5.515625 40.671875 12.859375 48.328125 
Q 20.21875 56 33.015625 56 
Q 37.15625 56 41.109375 55.140625 
Q 45.0625 54.296875 48.78125 52.59375 
z
" id="DejaVuSans-99"/>
       <path d="M 30.609375 48.390625 
Q 23.390625 48.390625 19.1875 42.75 
Q 14.984375 37.109375 14.984375 27.296875 
Q 14.984375 17.484375 19.15625 11.84375 
Q 23.34375 6.203125 30.609375 6.203125 
Q 37.796875 6.203125 41.984375 11.859375 
Q 46.1875 17.53125 46.1875 27.296875 
Q 46.1875 37.015625 41.984375 42.703125 
Q 37.796875 48.390625 30.609375 48.390625 
z
M 30.609375 56 
Q 42.328125 56 49.015625 48.375 
Q 55.71875 40.765625 55.71875 27.296875 
Q 55.71875 13.875 49.015625 6.21875 
Q 42.328125 -1.421875 30.609375 -1.421875 
Q 18.84375 -1.421875 12.171875 6.21875 
Q 5.515625 13.875 5.515625 27.296875 
Q 5.515625 40.765625 12.171875 48.375 
Q 18.84375 56 30.609375 56 
z
" id="DejaVuSans-111"/>
       <path d="M 41.109375 46.296875 
Q 39.59375 47.171875 37.8125 47.578125 
Q 36.03125 48 33.890625 48 
Q 26.265625 48 22.1875 43.046875 
Q 18.109375 38.09375 18.109375 28.8125 
L 18.109375 0 
L 9.078125 0 
L 9.078125 54.6875 
L 18.109375 54.6875 
L 18.109375 46.1875 
Q 20.953125 51.171875 25.484375 53.578125 
Q 30.03125 56 36.53125 56 
Q 37.453125 56 38.578125 55.875 
Q 39.703125 55.765625 41.0625 55.515625 
z
" id="DejaVuSans-114"/>
       <path d="M 45.40625 46.390625 
L 45.40625 75.984375 
L 54.390625 75.984375 
L 54.390625 0 
L 45.40625 0 
L 45.40625 8.203125 
Q 42.578125 3.328125 38.25 0.953125 
Q 33.9375 -1.421875 27.875 -1.421875 
Q 17.96875 -1.421875 11.734375 6.484375 
Q 5.515625 14.40625 5.515625 27.296875 
Q 5.515625 40.1875 11.734375 48.09375 
Q 17.96875 56 27.875 56 
Q 33.9375 56 38.25 53.625 
Q 42.578125 51.265625 45.40625 46.390625 
z
M 14.796875 27.296875 
Q 14.796875 17.390625 18.875 11.75 
Q 22.953125 6.109375 30.078125 6.109375 
Q 37.203125 6.109375 41.296875 11.75 
Q 45.40625 17.390625 45.40625 27.296875 
Q 45.40625 37.203125 41.296875 42.84375 
Q 37.203125 48.484375 30.078125 48.484375 
Q 22.953125 48.484375 18.875 42.84375 
Q 14.796875 37.203125 14.796875 27.296875 
z
" id="DejaVuSans-100"/>
       <path d="M 9.421875 54.6875 
L 18.40625 54.6875 
L 18.40625 0 
L 9.421875 0 
z
M 9.421875 75.984375 
L 18.40625 75.984375 
L 18.40625 64.59375 
L 9.421875 64.59375 
z
" id="DejaVuSans-105"/>
       <path d="M 54.890625 33.015625 
L 54.890625 0 
L 45.90625 0 
L 45.90625 32.71875 
Q 45.90625 40.484375 42.875 44.328125 
Q 39.84375 48.1875 33.796875 48.1875 
Q 26.515625 48.1875 22.3125 43.546875 
Q 18.109375 38.921875 18.109375 30.90625 
L 18.109375 0 
L 9.078125 0 
L 9.078125 54.6875 
L 18.109375 54.6875 
L 18.109375 46.1875 
Q 21.34375 51.125 25.703125 53.5625 
Q 30.078125 56 35.796875 56 
Q 45.21875 56 50.046875 50.171875 
Q 54.890625 44.34375 54.890625 33.015625 
z
" id="DejaVuSans-110"/>
       <path d="M 34.28125 27.484375 
Q 23.390625 27.484375 19.1875 25 
Q 14.984375 22.515625 14.984375 16.5 
Q 14.984375 11.71875 18.140625 8.90625 
Q 21.296875 6.109375 26.703125 6.109375 
Q 34.1875 6.109375 38.703125 11.40625 
Q 43.21875 16.703125 43.21875 25.484375 
L 43.21875 27.484375 
z
M 52.203125 31.203125 
L 52.203125 0 
L 43.21875 0 
L 43.21875 8.296875 
Q 40.140625 3.328125 35.546875 0.953125 
Q 30.953125 -1.421875 24.3125 -1.421875 
Q 15.921875 -1.421875 10.953125 3.296875 
Q 6 8.015625 6 15.921875 
Q 6 25.140625 12.171875 29.828125 
Q 18.359375 34.515625 30.609375 34.515625 
L 43.21875 34.515625 
L 43.21875 35.40625 
Q 43.21875 41.609375 39.140625 45 
Q 35.0625 48.390625 27.6875 48.390625 
Q 23 48.390625 18.546875 47.265625 
Q 14.109375 46.140625 10.015625 43.890625 
L 10.015625 52.203125 
Q 14.9375 54.109375 19.578125 55.046875 
Q 24.21875 56 28.609375 56 
Q 40.484375 56 46.34375 49.84375 
Q 52.203125 43.703125 52.203125 31.203125 
z
" id="DejaVuSans-97"/>
       <path d="M 18.3125 70.21875 
L 18.3125 54.6875 
L 36.8125 54.6875 
L 36.8125 47.703125 
L 18.3125 47.703125 
L 18.3125 18.015625 
Q 18.3125 11.328125 20.140625 9.421875 
Q 21.96875 7.515625 27.59375 7.515625 
L 36.8125 7.515625 
L 36.8125 0 
L 27.59375 0 
Q 17.1875 0 13.234375 3.875 
Q 9.28125 7.765625 9.28125 18.015625 
L 9.28125 47.703125 
L 2.6875 47.703125 
L 2.6875 54.6875 
L 9.28125 54.6875 
L 9.28125 70.21875 
z
" id="DejaVuSans-116"/>
       <path d="M 56.203125 29.59375 
L 56.203125 25.203125 
L 14.890625 25.203125 
Q 15.484375 15.921875 20.484375 11.0625 
Q 25.484375 6.203125 34.421875 6.203125 
Q 39.59375 6.203125 44.453125 7.46875 
Q 49.3125 8.734375 54.109375 11.28125 
L 54.109375 2.78125 
Q 49.265625 0.734375 44.1875 -0.34375 
Q 39.109375 -1.421875 33.890625 -1.421875 
Q 20.796875 -1.421875 13.15625 6.1875 
Q 5.515625 13.8125 5.515625 26.8125 
Q 5.515625 40.234375 12.765625 48.109375 
Q 20.015625 56 32.328125 56 
Q 43.359375 56 49.78125 48.890625 
Q 56.203125 41.796875 56.203125 29.59375 
z
M 47.21875 32.234375 
Q 47.125 39.59375 43.09375 43.984375 
Q 39.0625 48.390625 32.421875 48.390625 
Q 24.90625 48.390625 20.390625 44.140625 
Q 15.875 39.890625 15.1875 32.171875 
z
" id="DejaVuSans-101"/>
       <path d="M 50.984375 -16.609375 
L 50.984375 -23.578125 
L -0.984375 -23.578125 
L -0.984375 -16.609375 
z
" id="DejaVuSans-95"/>
       <path d="M 9.8125 72.90625 
L 55.90625 72.90625 
L 55.90625 64.59375 
L 19.671875 64.59375 
L 19.671875 43.015625 
L 54.390625 43.015625 
L 54.390625 34.71875 
L 19.671875 34.71875 
L 19.671875 8.296875 
L 56.78125 8.296875 
L 56.78125 0 
L 9.8125 0 
z
" id="DejaVuSans-69"/>
       <path d="M 9.421875 75.984375 
L 18.40625 75.984375 
L 18.40625 0 
L 9.421875 0 
z
" id="DejaVuSans-108"/>
      </defs>
      <g transform="translate(95.497947 341.915938)rotate(-90)scale(0.1 -0.1)">
       <use xlink:href="#DejaVuSans-99"/>
       <use x="54.980469" xlink:href="#DejaVuSans-111"/>
       <use x="116.162109" xlink:href="#DejaVuSans-111"/>
       <use x="177.34375" xlink:href="#DejaVuSans-114"/>
       <use x="218.441406" xlink:href="#DejaVuSans-100"/>
       <use x="281.917969" xlink:href="#DejaVuSans-105"/>
       <use x="309.701172" xlink:href="#DejaVuSans-110"/>
       <use x="373.080078" xlink:href="#DejaVuSans-97"/>
       <use x="434.359375" xlink:href="#DejaVuSans-116"/>
       <use x="473.568359" xlink:href="#DejaVuSans-101"/>
       <use x="535.091797" xlink:href="#DejaVuSans-95"/>
       <use x="585.091797" xlink:href="#DejaVuSans-69"/>
       <use x="648.275391" xlink:href="#DejaVuSans-95"/>
       <use x="698.275391" xlink:href="#DejaVuSans-100"/>
       <use x="761.751953" xlink:href="#DejaVuSans-101"/>
       <use x="823.275391" xlink:href="#DejaVuSans-108"/>
       <use x="851.058594" xlink:href="#DejaVuSans-116"/>
       <use x="890.267578" xlink:href="#DejaVuSans-97"/>
      </g>
     </g>
    </g>
    <g id="xtick_2">
     <g id="line2d_2">
      <g>
       <use style="stroke:#000000;stroke-width:0.8;" x="123.621436" xlink:href="#m04ce5230be" y="239.758125"/>
      </g>
     </g>
     <g id="text_2">
      <!-- coordinate_N_delta -->
      <defs>
       <path d="M 9.8125 72.90625 
L 23.09375 72.90625 
L 55.421875 11.921875 
L 55.421875 72.90625 
L 64.984375 72.90625 
L 64.984375 0 
L 51.703125 0 
L 19.390625 60.984375 
L 19.390625 0 
L 9.8125 0 
z
" id="DejaVuSans-78"/>
      </defs>
      <g transform="translate(126.241748 343.078438)rotate(-90)scale(0.1 -0.1)">
       <use xlink:href="#DejaVuSans-99"/>
       <use x="54.980469" xlink:href="#DejaVuSans-111"/>
       <use x="116.162109" xlink:href="#DejaVuSans-111"/>
       <use x="177.34375" xlink:href="#DejaVuSans-114"/>
       <use x="218.441406" xlink:href="#DejaVuSans-100"/>
       <use x="281.917969" xlink:href="#DejaVuSans-105"/>
       <use x="309.701172" xlink:href="#DejaVuSans-110"/>
       <use x="373.080078" xlink:href="#DejaVuSans-97"/>
       <use x="434.359375" xlink:href="#DejaVuSans-116"/>
       <use x="473.568359" xlink:href="#DejaVuSans-101"/>
       <use x="535.091797" xlink:href="#DejaVuSans-95"/>
       <use x="585.091797" xlink:href="#DejaVuSans-78"/>
       <use x="659.896484" xlink:href="#DejaVuSans-95"/>
       <use x="709.896484" xlink:href="#DejaVuSans-100"/>
       <use x="773.373047" xlink:href="#DejaVuSans-101"/>
       <use x="834.896484" xlink:href="#DejaVuSans-108"/>
       <use x="862.679688" xlink:href="#DejaVuSans-116"/>
       <use x="901.888672" xlink:href="#DejaVuSans-97"/>
      </g>
     </g>
    </g>
    <g id="xtick_3">
     <g id="line2d_3">
      <g>
       <use style="stroke:#000000;stroke-width:0.8;" x="154.365238" xlink:href="#m04ce5230be" y="239.758125"/>
      </g>
     </g>
     <g id="text_3">
      <!-- corporate_full_delta -->
      <defs>
       <path d="M 18.109375 8.203125 
L 18.109375 -20.796875 
L 9.078125 -20.796875 
L 9.078125 54.6875 
L 18.109375 54.6875 
L 18.109375 46.390625 
Q 20.953125 51.265625 25.265625 53.625 
Q 29.59375 56 35.59375 56 
Q 45.5625 56 51.78125 48.09375 
Q 58.015625 40.1875 58.015625 27.296875 
Q 58.015625 14.40625 51.78125 6.484375 
Q 45.5625 -1.421875 35.59375 -1.421875 
Q 29.59375 -1.421875 25.265625 0.953125 
Q 20.953125 3.328125 18.109375 8.203125 
z
M 48.6875 27.296875 
Q 48.6875 37.203125 44.609375 42.84375 
Q 40.53125 48.484375 33.40625 48.484375 
Q 26.265625 48.484375 22.1875 42.84375 
Q 18.109375 37.203125 18.109375 27.296875 
Q 18.109375 17.390625 22.1875 11.75 
Q 26.265625 6.109375 33.40625 6.109375 
Q 40.53125 6.109375 44.609375 11.75 
Q 48.6875 17.390625 48.6875 27.296875 
z
" id="DejaVuSans-112"/>
       <path d="M 37.109375 75.984375 
L 37.109375 68.5 
L 28.515625 68.5 
Q 23.6875 68.5 21.796875 66.546875 
Q 19.921875 64.59375 19.921875 59.515625 
L 19.921875 54.6875 
L 34.71875 54.6875 
L 34.71875 47.703125 
L 19.921875 47.703125 
L 19.921875 0 
L 10.890625 0 
L 10.890625 47.703125 
L 2.296875 47.703125 
L 2.296875 54.6875 
L 10.890625 54.6875 
L 10.890625 58.5 
Q 10.890625 67.625 15.140625 71.796875 
Q 19.390625 75.984375 28.609375 75.984375 
z
" id="DejaVuSans-102"/>
       <path d="M 8.5 21.578125 
L 8.5 54.6875 
L 17.484375 54.6875 
L 17.484375 21.921875 
Q 17.484375 14.15625 20.5 10.265625 
Q 23.53125 6.390625 29.59375 6.390625 
Q 36.859375 6.390625 41.078125 11.03125 
Q 45.3125 15.671875 45.3125 23.6875 
L 45.3125 54.6875 
L 54.296875 54.6875 
L 54.296875 0 
L 45.3125 0 
L 45.3125 8.40625 
Q 42.046875 3.421875 37.71875 1 
Q 33.40625 -1.421875 27.6875 -1.421875 
Q 18.265625 -1.421875 13.375 4.4375 
Q 8.5 10.296875 8.5 21.578125 
z
M 31.109375 56 
z
" id="DejaVuSans-117"/>
      </defs>
      <g transform="translate(156.98555 346.008125)rotate(-90)scale(0.1 -0.1)">
       <use xlink:href="#DejaVuSans-99"/>
       <use x="54.980469" xlink:href="#DejaVuSans-111"/>
       <use x="116.162109" xlink:href="#DejaVuSans-114"/>
       <use x="157.275391" xlink:href="#DejaVuSans-112"/>
       <use x="220.751953" xlink:href="#DejaVuSans-111"/>
       <use x="281.933594" xlink:href="#DejaVuSans-114"/>
       <use x="323.046875" xlink:href="#DejaVuSans-97"/>
       <use x="384.326172" xlink:href="#DejaVuSans-116"/>
       <use x="423.535156" xlink:href="#DejaVuSans-101"/>
       <use x="485.058594" xlink:href="#DejaVuSans-95"/>
       <use x="535.058594" xlink:href="#DejaVuSans-102"/>
       <use x="570.263672" xlink:href="#DejaVuSans-117"/>
       <use x="633.642578" xlink:href="#DejaVuSans-108"/>
       <use x="661.425781" xlink:href="#DejaVuSans-108"/>
       <use x="689.208984" xlink:href="#DejaVuSans-95"/>
       <use x="739.208984" xlink:href="#DejaVuSans-100"/>
       <use x="802.685547" xlink:href="#DejaVuSans-101"/>
       <use x="864.208984" xlink:href="#DejaVuSans-108"/>
       <use x="891.992188" xlink:href="#DejaVuSans-116"/>
       <use x="931.201172" xlink:href="#DejaVuSans-97"/>
      </g>
     </g>
    </g>
    <g id="xtick_4">
     <g id="line2d_4">
      <g>
       <use style="stroke:#000000;stroke-width:0.8;" x="185.109039" xlink:href="#m04ce5230be" y="239.758125"/>
      </g>
     </g>
     <g id="text_4">
      <!-- doi_delta -->
      <g transform="translate(187.729352 292.331563)rotate(-90)scale(0.1 -0.1)">
       <use xlink:href="#DejaVuSans-100"/>
       <use x="63.476562" xlink:href="#DejaVuSans-111"/>
       <use x="124.658203" xlink:href="#DejaVuSans-105"/>
       <use x="152.441406" xlink:href="#DejaVuSans-95"/>
       <use x="202.441406" xlink:href="#DejaVuSans-100"/>
       <use x="265.917969" xlink:href="#DejaVuSans-101"/>
       <use x="327.441406" xlink:href="#DejaVuSans-108"/>
       <use x="355.224609" xlink:href="#DejaVuSans-116"/>
       <use x="394.433594" xlink:href="#DejaVuSans-97"/>
      </g>
     </g>
    </g>
    <g id="xtick_5">
     <g id="line2d_5">
      <g>
       <use style="stroke:#000000;stroke-width:0.8;" x="215.852841" xlink:href="#m04ce5230be" y="239.758125"/>
      </g>
     </g>
     <g id="text_5">
      <!-- edition_delta -->
      <g transform="translate(218.473153 311.520625)rotate(-90)scale(0.1 -0.1)">
       <use xlink:href="#DejaVuSans-101"/>
       <use x="61.523438" xlink:href="#DejaVuSans-100"/>
       <use x="125" xlink:href="#DejaVuSans-105"/>
       <use x="152.783203" xlink:href="#DejaVuSans-116"/>
       <use x="191.992188" xlink:href="#DejaVuSans-105"/>
       <use x="219.775391" xlink:href="#DejaVuSans-111"/>
       <use x="280.957031" xlink:href="#DejaVuSans-110"/>
       <use x="344.335938" xlink:href="#DejaVuSans-95"/>
       <use x="394.335938" xlink:href="#DejaVuSans-100"/>
       <use x="457.8125" xlink:href="#DejaVuSans-101"/>
       <use x="519.335938" xlink:href="#DejaVuSans-108"/>
       <use x="547.119141" xlink:href="#DejaVuSans-116"/>
       <use x="586.328125" xlink:href="#DejaVuSans-97"/>
      </g>
     </g>
    </g>
    <g id="xtick_6">
     <g id="line2d_6">
      <g>
       <use style="stroke:#000000;stroke-width:0.8;" x="246.596643" xlink:href="#m04ce5230be" y="239.758125"/>
      </g>
     </g>
     <g id="text_6">
      <!-- exactDate_delta -->
      <defs>
       <path d="M 54.890625 54.6875 
L 35.109375 28.078125 
L 55.90625 0 
L 45.3125 0 
L 29.390625 21.484375 
L 13.484375 0 
L 2.875 0 
L 24.125 28.609375 
L 4.6875 54.6875 
L 15.28125 54.6875 
L 29.78125 35.203125 
L 44.28125 54.6875 
z
" id="DejaVuSans-120"/>
       <path d="M 19.671875 64.796875 
L 19.671875 8.109375 
L 31.59375 8.109375 
Q 46.6875 8.109375 53.6875 14.9375 
Q 60.6875 21.78125 60.6875 36.53125 
Q 60.6875 51.171875 53.6875 57.984375 
Q 46.6875 64.796875 31.59375 64.796875 
z
M 9.8125 72.90625 
L 30.078125 72.90625 
Q 51.265625 72.90625 61.171875 64.09375 
Q 71.09375 55.28125 71.09375 36.53125 
Q 71.09375 17.671875 61.125 8.828125 
Q 51.171875 0 30.078125 0 
L 9.8125 0 
z
" id="DejaVuSans-68"/>
      </defs>
      <g transform="translate(249.216955 328.605)rotate(-90)scale(0.1 -0.1)">
       <use xlink:href="#DejaVuSans-101"/>
       <use x="61.507812" xlink:href="#DejaVuSans-120"/>
       <use x="120.6875" xlink:href="#DejaVuSans-97"/>
       <use x="181.966797" xlink:href="#DejaVuSans-99"/>
       <use x="236.947266" xlink:href="#DejaVuSans-116"/>
       <use x="276.15625" xlink:href="#DejaVuSans-68"/>
       <use x="353.158203" xlink:href="#DejaVuSans-97"/>
       <use x="414.4375" xlink:href="#DejaVuSans-116"/>
       <use x="453.646484" xlink:href="#DejaVuSans-101"/>
       <use x="515.169922" xlink:href="#DejaVuSans-95"/>
       <use x="565.169922" xlink:href="#DejaVuSans-100"/>
       <use x="628.646484" xlink:href="#DejaVuSans-101"/>
       <use x="690.169922" xlink:href="#DejaVuSans-108"/>
       <use x="717.953125" xlink:href="#DejaVuSans-116"/>
       <use x="757.162109" xlink:href="#DejaVuSans-97"/>
      </g>
     </g>
    </g>
    <g id="xtick_7">
     <g id="line2d_7">
      <g>
       <use style="stroke:#000000;stroke-width:0.8;" x="277.340444" xlink:href="#m04ce5230be" y="239.758125"/>
      </g>
     </g>
     <g id="text_7">
      <!-- format_prefix_delta -->
      <defs>
       <path d="M 52 44.1875 
Q 55.375 50.25 60.0625 53.125 
Q 64.75 56 71.09375 56 
Q 79.640625 56 84.28125 50.015625 
Q 88.921875 44.046875 88.921875 33.015625 
L 88.921875 0 
L 79.890625 0 
L 79.890625 32.71875 
Q 79.890625 40.578125 77.09375 44.375 
Q 74.3125 48.1875 68.609375 48.1875 
Q 61.625 48.1875 57.5625 43.546875 
Q 53.515625 38.921875 53.515625 30.90625 
L 53.515625 0 
L 44.484375 0 
L 44.484375 32.71875 
Q 44.484375 40.625 41.703125 44.40625 
Q 38.921875 48.1875 33.109375 48.1875 
Q 26.21875 48.1875 22.15625 43.53125 
Q 18.109375 38.875 18.109375 30.90625 
L 18.109375 0 
L 9.078125 0 
L 9.078125 54.6875 
L 18.109375 54.6875 
L 18.109375 46.1875 
Q 21.1875 51.21875 25.484375 53.609375 
Q 29.78125 56 35.6875 56 
Q 41.65625 56 45.828125 52.96875 
Q 50 49.953125 52 44.1875 
z
" id="DejaVuSans-109"/>
      </defs>
      <g transform="translate(279.960757 344.450313)rotate(-90)scale(0.1 -0.1)">
       <use xlink:href="#DejaVuSans-102"/>
       <use x="35.205078" xlink:href="#DejaVuSans-111"/>
       <use x="96.386719" xlink:href="#DejaVuSans-114"/>
       <use x="137.484375" xlink:href="#DejaVuSans-109"/>
       <use x="234.896484" xlink:href="#DejaVuSans-97"/>
       <use x="296.175781" xlink:href="#DejaVuSans-116"/>
       <use x="335.384766" xlink:href="#DejaVuSans-95"/>
       <use x="385.384766" xlink:href="#DejaVuSans-112"/>
       <use x="448.861328" xlink:href="#DejaVuSans-114"/>
       <use x="489.943359" xlink:href="#DejaVuSans-101"/>
       <use x="551.466797" xlink:href="#DejaVuSans-102"/>
       <use x="586.671875" xlink:href="#DejaVuSans-105"/>
       <use x="614.455078" xlink:href="#DejaVuSans-120"/>
       <use x="673.634766" xlink:href="#DejaVuSans-95"/>
       <use x="723.634766" xlink:href="#DejaVuSans-100"/>
       <use x="787.111328" xlink:href="#DejaVuSans-101"/>
       <use x="848.634766" xlink:href="#DejaVuSans-108"/>
       <use x="876.417969" xlink:href="#DejaVuSans-116"/>
       <use x="915.626953" xlink:href="#DejaVuSans-97"/>
      </g>
     </g>
    </g>
    <g id="xtick_8">
     <g id="line2d_8">
      <g>
       <use style="stroke:#000000;stroke-width:0.8;" x="308.084246" xlink:href="#m04ce5230be" y="239.758125"/>
      </g>
     </g>
     <g id="text_8">
      <!-- format_postfix_delta -->
      <defs>
       <path d="M 44.28125 53.078125 
L 44.28125 44.578125 
Q 40.484375 46.53125 36.375 47.5 
Q 32.28125 48.484375 27.875 48.484375 
Q 21.1875 48.484375 17.84375 46.4375 
Q 14.5 44.390625 14.5 40.28125 
Q 14.5 37.15625 16.890625 35.375 
Q 19.28125 33.59375 26.515625 31.984375 
L 29.59375 31.296875 
Q 39.15625 29.25 43.1875 25.515625 
Q 47.21875 21.78125 47.21875 15.09375 
Q 47.21875 7.46875 41.1875 3.015625 
Q 35.15625 -1.421875 24.609375 -1.421875 
Q 20.21875 -1.421875 15.453125 -0.5625 
Q 10.6875 0.296875 5.421875 2 
L 5.421875 11.28125 
Q 10.40625 8.6875 15.234375 7.390625 
Q 20.0625 6.109375 24.8125 6.109375 
Q 31.15625 6.109375 34.5625 8.28125 
Q 37.984375 10.453125 37.984375 14.40625 
Q 37.984375 18.0625 35.515625 20.015625 
Q 33.0625 21.96875 24.703125 23.78125 
L 21.578125 24.515625 
Q 13.234375 26.265625 9.515625 29.90625 
Q 5.8125 33.546875 5.8125 39.890625 
Q 5.8125 47.609375 11.28125 51.796875 
Q 16.75 56 26.8125 56 
Q 31.78125 56 36.171875 55.265625 
Q 40.578125 54.546875 44.28125 53.078125 
z
" id="DejaVuSans-115"/>
      </defs>
      <g transform="translate(310.704558 349.437813)rotate(-90)scale(0.1 -0.1)">
       <use xlink:href="#DejaVuSans-102"/>
       <use x="35.205078" xlink:href="#DejaVuSans-111"/>
       <use x="96.386719" xlink:href="#DejaVuSans-114"/>
       <use x="137.484375" xlink:href="#DejaVuSans-109"/>
       <use x="234.896484" xlink:href="#DejaVuSans-97"/>
       <use x="296.175781" xlink:href="#DejaVuSans-116"/>
       <use x="335.384766" xlink:href="#DejaVuSans-95"/>
       <use x="385.384766" xlink:href="#DejaVuSans-112"/>
       <use x="448.861328" xlink:href="#DejaVuSans-111"/>
       <use x="510.042969" xlink:href="#DejaVuSans-115"/>
       <use x="562.142578" xlink:href="#DejaVuSans-116"/>
       <use x="601.351562" xlink:href="#DejaVuSans-102"/>
       <use x="636.556641" xlink:href="#DejaVuSans-105"/>
       <use x="664.339844" xlink:href="#DejaVuSans-120"/>
       <use x="723.519531" xlink:href="#DejaVuSans-95"/>
       <use x="773.519531" xlink:href="#DejaVuSans-100"/>
       <use x="836.996094" xlink:href="#DejaVuSans-101"/>
       <use x="898.519531" xlink:href="#DejaVuSans-108"/>
       <use x="926.302734" xlink:href="#DejaVuSans-116"/>
       <use x="965.511719" xlink:href="#DejaVuSans-97"/>
      </g>
     </g>
    </g>
    <g id="xtick_9">
     <g id="line2d_9">
      <g>
       <use style="stroke:#000000;stroke-width:0.8;" x="338.828048" xlink:href="#m04ce5230be" y="239.758125"/>
      </g>
     </g>
     <g id="text_9">
      <!-- isbn_delta -->
      <defs>
       <path d="M 48.6875 27.296875 
Q 48.6875 37.203125 44.609375 42.84375 
Q 40.53125 48.484375 33.40625 48.484375 
Q 26.265625 48.484375 22.1875 42.84375 
Q 18.109375 37.203125 18.109375 27.296875 
Q 18.109375 17.390625 22.1875 11.75 
Q 26.265625 6.109375 33.40625 6.109375 
Q 40.53125 6.109375 44.609375 11.75 
Q 48.6875 17.390625 48.6875 27.296875 
z
M 18.109375 46.390625 
Q 20.953125 51.265625 25.265625 53.625 
Q 29.59375 56 35.59375 56 
Q 45.5625 56 51.78125 48.09375 
Q 58.015625 40.1875 58.015625 27.296875 
Q 58.015625 14.40625 51.78125 6.484375 
Q 45.5625 -1.421875 35.59375 -1.421875 
Q 29.59375 -1.421875 25.265625 0.953125 
Q 20.953125 3.328125 18.109375 8.203125 
L 18.109375 0 
L 9.078125 0 
L 9.078125 75.984375 
L 18.109375 75.984375 
z
" id="DejaVuSans-98"/>
      </defs>
      <g transform="translate(341.44836 297.759688)rotate(-90)scale(0.1 -0.1)">
       <use xlink:href="#DejaVuSans-105"/>
       <use x="27.783203" xlink:href="#DejaVuSans-115"/>
       <use x="79.882812" xlink:href="#DejaVuSans-98"/>
       <use x="143.359375" xlink:href="#DejaVuSans-110"/>
       <use x="206.738281" xlink:href="#DejaVuSans-95"/>
       <use x="256.738281" xlink:href="#DejaVuSans-100"/>
       <use x="320.214844" xlink:href="#DejaVuSans-101"/>
       <use x="381.738281" xlink:href="#DejaVuSans-108"/>
       <use x="409.521484" xlink:href="#DejaVuSans-116"/>
       <use x="448.730469" xlink:href="#DejaVuSans-97"/>
      </g>
     </g>
    </g>
    <g id="xtick_10">
     <g id="line2d_10">
      <g>
       <use style="stroke:#000000;stroke-width:0.8;" x="369.571849" xlink:href="#m04ce5230be" y="239.758125"/>
      </g>
     </g>
     <g id="text_10">
      <!-- ismn_delta -->
      <g transform="translate(372.192162 301.151875)rotate(-90)scale(0.1 -0.1)">
       <use xlink:href="#DejaVuSans-105"/>
       <use x="27.783203" xlink:href="#DejaVuSans-115"/>
       <use x="79.882812" xlink:href="#DejaVuSans-109"/>
       <use x="177.294922" xlink:href="#DejaVuSans-110"/>
       <use x="240.673828" xlink:href="#DejaVuSans-95"/>
       <use x="290.673828" xlink:href="#DejaVuSans-100"/>
       <use x="354.150391" xlink:href="#DejaVuSans-101"/>
       <use x="415.673828" xlink:href="#DejaVuSans-108"/>
       <use x="443.457031" xlink:href="#DejaVuSans-116"/>
       <use x="482.666016" xlink:href="#DejaVuSans-97"/>
      </g>
     </g>
    </g>
    <g id="xtick_11">
     <g id="line2d_11">
      <g>
       <use style="stroke:#000000;stroke-width:0.8;" x="400.315651" xlink:href="#m04ce5230be" y="239.758125"/>
      </g>
     </g>
     <g id="text_11">
      <!-- musicid_delta -->
      <g transform="translate(402.935963 315.776875)rotate(-90)scale(0.1 -0.1)">
       <use xlink:href="#DejaVuSans-109"/>
       <use x="97.412109" xlink:href="#DejaVuSans-117"/>
       <use x="160.791016" xlink:href="#DejaVuSans-115"/>
       <use x="212.890625" xlink:href="#DejaVuSans-105"/>
       <use x="240.673828" xlink:href="#DejaVuSans-99"/>
       <use x="295.654297" xlink:href="#DejaVuSans-105"/>
       <use x="323.4375" xlink:href="#DejaVuSans-100"/>
       <use x="386.914062" xlink:href="#DejaVuSans-95"/>
       <use x="436.914062" xlink:href="#DejaVuSans-100"/>
       <use x="500.390625" xlink:href="#DejaVuSans-101"/>
       <use x="561.914062" xlink:href="#DejaVuSans-108"/>
       <use x="589.697266" xlink:href="#DejaVuSans-116"/>
       <use x="628.90625" xlink:href="#DejaVuSans-97"/>
      </g>
     </g>
    </g>
    <g id="xtick_12">
     <g id="line2d_12">
      <g>
       <use style="stroke:#000000;stroke-width:0.8;" x="431.059452" xlink:href="#m04ce5230be" y="239.758125"/>
      </g>
     </g>
     <g id="text_12">
      <!-- part_delta -->
      <g transform="translate(433.679765 297.594063)rotate(-90)scale(0.1 -0.1)">
       <use xlink:href="#DejaVuSans-112"/>
       <use x="63.476562" xlink:href="#DejaVuSans-97"/>
       <use x="124.755859" xlink:href="#DejaVuSans-114"/>
       <use x="165.869141" xlink:href="#DejaVuSans-116"/>
       <use x="205.078125" xlink:href="#DejaVuSans-95"/>
       <use x="255.078125" xlink:href="#DejaVuSans-100"/>
       <use x="318.554688" xlink:href="#DejaVuSans-101"/>
       <use x="380.078125" xlink:href="#DejaVuSans-108"/>
       <use x="407.861328" xlink:href="#DejaVuSans-116"/>
       <use x="447.070312" xlink:href="#DejaVuSans-97"/>
      </g>
     </g>
    </g>
    <g id="xtick_13">
     <g id="line2d_13">
      <g>
       <use style="stroke:#000000;stroke-width:0.8;" x="461.803254" xlink:href="#m04ce5230be" y="239.758125"/>
      </g>
     </g>
     <g id="text_13">
      <!-- person_100_delta -->
      <defs>
       <path d="M 12.40625 8.296875 
L 28.515625 8.296875 
L 28.515625 63.921875 
L 10.984375 60.40625 
L 10.984375 69.390625 
L 28.421875 72.90625 
L 38.28125 72.90625 
L 38.28125 8.296875 
L 54.390625 8.296875 
L 54.390625 0 
L 12.40625 0 
z
" id="DejaVuSans-49"/>
       <path d="M 31.78125 66.40625 
Q 24.171875 66.40625 20.328125 58.90625 
Q 16.5 51.421875 16.5 36.375 
Q 16.5 21.390625 20.328125 13.890625 
Q 24.171875 6.390625 31.78125 6.390625 
Q 39.453125 6.390625 43.28125 13.890625 
Q 47.125 21.390625 47.125 36.375 
Q 47.125 51.421875 43.28125 58.90625 
Q 39.453125 66.40625 31.78125 66.40625 
z
M 31.78125 74.21875 
Q 44.046875 74.21875 50.515625 64.515625 
Q 56.984375 54.828125 56.984375 36.375 
Q 56.984375 17.96875 50.515625 8.265625 
Q 44.046875 -1.421875 31.78125 -1.421875 
Q 19.53125 -1.421875 13.0625 8.265625 
Q 6.59375 17.96875 6.59375 36.375 
Q 6.59375 54.828125 13.0625 64.515625 
Q 19.53125 74.21875 31.78125 74.21875 
z
" id="DejaVuSans-48"/>
      </defs>
      <g transform="translate(464.423567 335.451875)rotate(-90)scale(0.1 -0.1)">
       <use xlink:href="#DejaVuSans-112"/>
       <use x="63.476562" xlink:href="#DejaVuSans-101"/>
       <use x="125" xlink:href="#DejaVuSans-114"/>
       <use x="166.113281" xlink:href="#DejaVuSans-115"/>
       <use x="218.212891" xlink:href="#DejaVuSans-111"/>
       <use x="279.394531" xlink:href="#DejaVuSans-110"/>
       <use x="342.773438" xlink:href="#DejaVuSans-95"/>
       <use x="392.773438" xlink:href="#DejaVuSans-49"/>
       <use x="456.396484" xlink:href="#DejaVuSans-48"/>
       <use x="520.019531" xlink:href="#DejaVuSans-48"/>
       <use x="583.642578" xlink:href="#DejaVuSans-95"/>
       <use x="633.642578" xlink:href="#DejaVuSans-100"/>
       <use x="697.119141" xlink:href="#DejaVuSans-101"/>
       <use x="758.642578" xlink:href="#DejaVuSans-108"/>
       <use x="786.425781" xlink:href="#DejaVuSans-116"/>
       <use x="825.634766" xlink:href="#DejaVuSans-97"/>
      </g>
     </g>
    </g>
    <g id="xtick_14">
     <g id="line2d_14">
      <g>
       <use style="stroke:#000000;stroke-width:0.8;" x="492.547056" xlink:href="#m04ce5230be" y="239.758125"/>
      </g>
     </g>
     <g id="text_14">
      <!-- person_700_delta -->
      <defs>
       <path d="M 8.203125 72.90625 
L 55.078125 72.90625 
L 55.078125 68.703125 
L 28.609375 0 
L 18.3125 0 
L 43.21875 64.59375 
L 8.203125 64.59375 
z
" id="DejaVuSans-55"/>
      </defs>
      <g transform="translate(495.167368 335.451875)rotate(-90)scale(0.1 -0.1)">
       <use xlink:href="#DejaVuSans-112"/>
       <use x="63.476562" xlink:href="#DejaVuSans-101"/>
       <use x="125" xlink:href="#DejaVuSans-114"/>
       <use x="166.113281" xlink:href="#DejaVuSans-115"/>
       <use x="218.212891" xlink:href="#DejaVuSans-111"/>
       <use x="279.394531" xlink:href="#DejaVuSans-110"/>
       <use x="342.773438" xlink:href="#DejaVuSans-95"/>
       <use x="392.773438" xlink:href="#DejaVuSans-55"/>
       <use x="456.396484" xlink:href="#DejaVuSans-48"/>
       <use x="520.019531" xlink:href="#DejaVuSans-48"/>
       <use x="583.642578" xlink:href="#DejaVuSans-95"/>
       <use x="633.642578" xlink:href="#DejaVuSans-100"/>
       <use x="697.119141" xlink:href="#DejaVuSans-101"/>
       <use x="758.642578" xlink:href="#DejaVuSans-108"/>
       <use x="786.425781" xlink:href="#DejaVuSans-116"/>
       <use x="825.634766" xlink:href="#DejaVuSans-97"/>
      </g>
     </g>
    </g>
    <g id="xtick_15">
     <g id="line2d_15">
      <g>
       <use style="stroke:#000000;stroke-width:0.8;" x="523.290857" xlink:href="#m04ce5230be" y="239.758125"/>
      </g>
     </g>
     <g id="text_15">
      <!-- person_245c_delta -->
      <defs>
       <path d="M 19.1875 8.296875 
L 53.609375 8.296875 
L 53.609375 0 
L 7.328125 0 
L 7.328125 8.296875 
Q 12.9375 14.109375 22.625 23.890625 
Q 32.328125 33.6875 34.8125 36.53125 
Q 39.546875 41.84375 41.421875 45.53125 
Q 43.3125 49.21875 43.3125 52.78125 
Q 43.3125 58.59375 39.234375 62.25 
Q 35.15625 65.921875 28.609375 65.921875 
Q 23.96875 65.921875 18.8125 64.3125 
Q 13.671875 62.703125 7.8125 59.421875 
L 7.8125 69.390625 
Q 13.765625 71.78125 18.9375 73 
Q 24.125 74.21875 28.421875 74.21875 
Q 39.75 74.21875 46.484375 68.546875 
Q 53.21875 62.890625 53.21875 53.421875 
Q 53.21875 48.921875 51.53125 44.890625 
Q 49.859375 40.875 45.40625 35.40625 
Q 44.1875 33.984375 37.640625 27.21875 
Q 31.109375 20.453125 19.1875 8.296875 
z
" id="DejaVuSans-50"/>
       <path d="M 37.796875 64.3125 
L 12.890625 25.390625 
L 37.796875 25.390625 
z
M 35.203125 72.90625 
L 47.609375 72.90625 
L 47.609375 25.390625 
L 58.015625 25.390625 
L 58.015625 17.1875 
L 47.609375 17.1875 
L 47.609375 0 
L 37.796875 0 
L 37.796875 17.1875 
L 4.890625 17.1875 
L 4.890625 26.703125 
z
" id="DejaVuSans-52"/>
       <path d="M 10.796875 72.90625 
L 49.515625 72.90625 
L 49.515625 64.59375 
L 19.828125 64.59375 
L 19.828125 46.734375 
Q 21.96875 47.46875 24.109375 47.828125 
Q 26.265625 48.1875 28.421875 48.1875 
Q 40.625 48.1875 47.75 41.5 
Q 54.890625 34.8125 54.890625 23.390625 
Q 54.890625 11.625 47.5625 5.09375 
Q 40.234375 -1.421875 26.90625 -1.421875 
Q 22.3125 -1.421875 17.546875 -0.640625 
Q 12.796875 0.140625 7.71875 1.703125 
L 7.71875 11.625 
Q 12.109375 9.234375 16.796875 8.0625 
Q 21.484375 6.890625 26.703125 6.890625 
Q 35.15625 6.890625 40.078125 11.328125 
Q 45.015625 15.765625 45.015625 23.390625 
Q 45.015625 31 40.078125 35.4375 
Q 35.15625 39.890625 26.703125 39.890625 
Q 22.75 39.890625 18.8125 39.015625 
Q 14.890625 38.140625 10.796875 36.28125 
z
" id="DejaVuSans-53"/>
      </defs>
      <g transform="translate(525.91117 340.950313)rotate(-90)scale(0.1 -0.1)">
       <use xlink:href="#DejaVuSans-112"/>
       <use x="63.476562" xlink:href="#DejaVuSans-101"/>
       <use x="125" xlink:href="#DejaVuSans-114"/>
       <use x="166.113281" xlink:href="#DejaVuSans-115"/>
       <use x="218.212891" xlink:href="#DejaVuSans-111"/>
       <use x="279.394531" xlink:href="#DejaVuSans-110"/>
       <use x="342.773438" xlink:href="#DejaVuSans-95"/>
       <use x="392.773438" xlink:href="#DejaVuSans-50"/>
       <use x="456.396484" xlink:href="#DejaVuSans-52"/>
       <use x="520.019531" xlink:href="#DejaVuSans-53"/>
       <use x="583.642578" xlink:href="#DejaVuSans-99"/>
       <use x="638.623047" xlink:href="#DejaVuSans-95"/>
       <use x="688.623047" xlink:href="#DejaVuSans-100"/>
       <use x="752.099609" xlink:href="#DejaVuSans-101"/>
       <use x="813.623047" xlink:href="#DejaVuSans-108"/>
       <use x="841.40625" xlink:href="#DejaVuSans-116"/>
       <use x="880.615234" xlink:href="#DejaVuSans-97"/>
      </g>
     </g>
    </g>
    <g id="xtick_16">
     <g id="line2d_16">
      <g>
       <use style="stroke:#000000;stroke-width:0.8;" x="554.034659" xlink:href="#m04ce5230be" y="239.758125"/>
      </g>
     </g>
     <g id="text_16">
      <!-- pubinit_delta -->
      <g transform="translate(556.654972 311.934688)rotate(-90)scale(0.1 -0.1)">
       <use xlink:href="#DejaVuSans-112"/>
       <use x="63.476562" xlink:href="#DejaVuSans-117"/>
       <use x="126.855469" xlink:href="#DejaVuSans-98"/>
       <use x="190.332031" xlink:href="#DejaVuSans-105"/>
       <use x="218.115234" xlink:href="#DejaVuSans-110"/>
       <use x="281.494141" xlink:href="#DejaVuSans-105"/>
       <use x="309.277344" xlink:href="#DejaVuSans-116"/>
       <use x="348.486328" xlink:href="#DejaVuSans-95"/>
       <use x="398.486328" xlink:href="#DejaVuSans-100"/>
       <use x="461.962891" xlink:href="#DejaVuSans-101"/>
       <use x="523.486328" xlink:href="#DejaVuSans-108"/>
       <use x="551.269531" xlink:href="#DejaVuSans-116"/>
       <use x="590.478516" xlink:href="#DejaVuSans-97"/>
      </g>
     </g>
    </g>
    <g id="xtick_17">
     <g id="line2d_17">
      <g>
       <use style="stroke:#000000;stroke-width:0.8;" x="584.778461" xlink:href="#m04ce5230be" y="239.758125"/>
      </g>
     </g>
     <g id="text_17">
      <!-- scale_delta -->
      <g transform="translate(587.398773 302.853438)rotate(-90)scale(0.1 -0.1)">
       <use xlink:href="#DejaVuSans-115"/>
       <use x="52.099609" xlink:href="#DejaVuSans-99"/>
       <use x="107.080078" xlink:href="#DejaVuSans-97"/>
       <use x="168.359375" xlink:href="#DejaVuSans-108"/>
       <use x="196.142578" xlink:href="#DejaVuSans-101"/>
       <use x="257.666016" xlink:href="#DejaVuSans-95"/>
       <use x="307.666016" xlink:href="#DejaVuSans-100"/>
       <use x="371.142578" xlink:href="#DejaVuSans-101"/>
       <use x="432.666016" xlink:href="#DejaVuSans-108"/>
       <use x="460.449219" xlink:href="#DejaVuSans-116"/>
       <use x="499.658203" xlink:href="#DejaVuSans-97"/>
      </g>
     </g>
    </g>
    <g id="xtick_18">
     <g id="line2d_18">
      <g>
       <use style="stroke:#000000;stroke-width:0.8;" x="615.522262" xlink:href="#m04ce5230be" y="239.758125"/>
      </g>
     </g>
     <g id="text_18">
      <!-- ttlfull_245_delta -->
      <g transform="translate(618.142575 327.206563)rotate(-90)scale(0.1 -0.1)">
       <use xlink:href="#DejaVuSans-116"/>
       <use x="39.208984" xlink:href="#DejaVuSans-116"/>
       <use x="78.417969" xlink:href="#DejaVuSans-108"/>
       <use x="106.201172" xlink:href="#DejaVuSans-102"/>
       <use x="141.40625" xlink:href="#DejaVuSans-117"/>
       <use x="204.785156" xlink:href="#DejaVuSans-108"/>
       <use x="232.568359" xlink:href="#DejaVuSans-108"/>
       <use x="260.351562" xlink:href="#DejaVuSans-95"/>
       <use x="310.351562" xlink:href="#DejaVuSans-50"/>
       <use x="373.974609" xlink:href="#DejaVuSans-52"/>
       <use x="437.597656" xlink:href="#DejaVuSans-53"/>
       <use x="501.220703" xlink:href="#DejaVuSans-95"/>
       <use x="551.220703" xlink:href="#DejaVuSans-100"/>
       <use x="614.697266" xlink:href="#DejaVuSans-101"/>
       <use x="676.220703" xlink:href="#DejaVuSans-108"/>
       <use x="704.003906" xlink:href="#DejaVuSans-116"/>
       <use x="743.212891" xlink:href="#DejaVuSans-97"/>
      </g>
     </g>
    </g>
    <g id="xtick_19">
     <g id="line2d_19">
      <g>
       <use style="stroke:#000000;stroke-width:0.8;" x="646.266064" xlink:href="#m04ce5230be" y="239.758125"/>
      </g>
     </g>
     <g id="text_19">
      <!-- ttlfull_246_delta -->
      <defs>
       <path d="M 33.015625 40.375 
Q 26.375 40.375 22.484375 35.828125 
Q 18.609375 31.296875 18.609375 23.390625 
Q 18.609375 15.53125 22.484375 10.953125 
Q 26.375 6.390625 33.015625 6.390625 
Q 39.65625 6.390625 43.53125 10.953125 
Q 47.40625 15.53125 47.40625 23.390625 
Q 47.40625 31.296875 43.53125 35.828125 
Q 39.65625 40.375 33.015625 40.375 
z
M 52.59375 71.296875 
L 52.59375 62.3125 
Q 48.875 64.0625 45.09375 64.984375 
Q 41.3125 65.921875 37.59375 65.921875 
Q 27.828125 65.921875 22.671875 59.328125 
Q 17.53125 52.734375 16.796875 39.40625 
Q 19.671875 43.65625 24.015625 45.921875 
Q 28.375 48.1875 33.59375 48.1875 
Q 44.578125 48.1875 50.953125 41.515625 
Q 57.328125 34.859375 57.328125 23.390625 
Q 57.328125 12.15625 50.6875 5.359375 
Q 44.046875 -1.421875 33.015625 -1.421875 
Q 20.359375 -1.421875 13.671875 8.265625 
Q 6.984375 17.96875 6.984375 36.375 
Q 6.984375 53.65625 15.1875 63.9375 
Q 23.390625 74.21875 37.203125 74.21875 
Q 40.921875 74.21875 44.703125 73.484375 
Q 48.484375 72.75 52.59375 71.296875 
z
" id="DejaVuSans-54"/>
      </defs>
      <g transform="translate(648.886377 327.206563)rotate(-90)scale(0.1 -0.1)">
       <use xlink:href="#DejaVuSans-116"/>
       <use x="39.208984" xlink:href="#DejaVuSans-116"/>
       <use x="78.417969" xlink:href="#DejaVuSans-108"/>
       <use x="106.201172" xlink:href="#DejaVuSans-102"/>
       <use x="141.40625" xlink:href="#DejaVuSans-117"/>
       <use x="204.785156" xlink:href="#DejaVuSans-108"/>
       <use x="232.568359" xlink:href="#DejaVuSans-108"/>
       <use x="260.351562" xlink:href="#DejaVuSans-95"/>
       <use x="310.351562" xlink:href="#DejaVuSans-50"/>
       <use x="373.974609" xlink:href="#DejaVuSans-52"/>
       <use x="437.597656" xlink:href="#DejaVuSans-54"/>
       <use x="501.220703" xlink:href="#DejaVuSans-95"/>
       <use x="551.220703" xlink:href="#DejaVuSans-100"/>
       <use x="614.697266" xlink:href="#DejaVuSans-101"/>
       <use x="676.220703" xlink:href="#DejaVuSans-108"/>
       <use x="704.003906" xlink:href="#DejaVuSans-116"/>
       <use x="743.212891" xlink:href="#DejaVuSans-97"/>
      </g>
     </g>
    </g>
    <g id="xtick_20">
     <g id="line2d_20">
      <g>
       <use style="stroke:#000000;stroke-width:0.8;" x="677.009866" xlink:href="#m04ce5230be" y="239.758125"/>
      </g>
     </g>
     <g id="text_20">
      <!-- volumes_delta -->
      <defs>
       <path d="M 2.984375 54.6875 
L 12.5 54.6875 
L 29.59375 8.796875 
L 46.6875 54.6875 
L 56.203125 54.6875 
L 35.6875 0 
L 23.484375 0 
z
" id="DejaVuSans-118"/>
      </defs>
      <g transform="translate(679.630178 319.3425)rotate(-90)scale(0.1 -0.1)">
       <use xlink:href="#DejaVuSans-118"/>
       <use x="59.179688" xlink:href="#DejaVuSans-111"/>
       <use x="120.361328" xlink:href="#DejaVuSans-108"/>
       <use x="148.144531" xlink:href="#DejaVuSans-117"/>
       <use x="211.523438" xlink:href="#DejaVuSans-109"/>
       <use x="308.935547" xlink:href="#DejaVuSans-101"/>
       <use x="370.458984" xlink:href="#DejaVuSans-115"/>
       <use x="422.558594" xlink:href="#DejaVuSans-95"/>
       <use x="472.558594" xlink:href="#DejaVuSans-100"/>
       <use x="536.035156" xlink:href="#DejaVuSans-101"/>
       <use x="597.558594" xlink:href="#DejaVuSans-108"/>
       <use x="625.341797" xlink:href="#DejaVuSans-116"/>
       <use x="664.550781" xlink:href="#DejaVuSans-97"/>
      </g>
     </g>
    </g>
    <g id="text_21">
     <!-- feature -->
     <g transform="translate(366.783594 361.03625)scale(0.1 -0.1)">
      <use xlink:href="#DejaVuSans-102"/>
      <use x="35.205078" xlink:href="#DejaVuSans-101"/>
      <use x="96.728516" xlink:href="#DejaVuSans-97"/>
      <use x="158.007812" xlink:href="#DejaVuSans-116"/>
      <use x="197.216797" xlink:href="#DejaVuSans-117"/>
      <use x="260.595703" xlink:href="#DejaVuSans-114"/>
      <use x="301.677734" xlink:href="#DejaVuSans-101"/>
     </g>
    </g>
   </g>
   <g id="matplotlib.axis_2">
    <g id="ytick_1">
     <g id="line2d_21">
      <defs>
       <path d="M 0 0 
L -3.5 0 
" id="m310923bebe" style="stroke:#000000;stroke-width:0.8;"/>
      </defs>
      <g>
       <use style="stroke:#000000;stroke-width:0.8;" x="50.14375" xlink:href="#m310923bebe" y="239.758125"/>
      </g>
     </g>
     <g id="text_22">
      <!-- 0.00 -->
      <defs>
       <path d="M 10.6875 12.40625 
L 21 12.40625 
L 21 0 
L 10.6875 0 
z
" id="DejaVuSans-46"/>
      </defs>
      <g transform="translate(20.878125 243.557344)scale(0.1 -0.1)">
       <use xlink:href="#DejaVuSans-48"/>
       <use x="63.623047" xlink:href="#DejaVuSans-46"/>
       <use x="95.410156" xlink:href="#DejaVuSans-48"/>
       <use x="159.033203" xlink:href="#DejaVuSans-48"/>
      </g>
     </g>
    </g>
    <g id="ytick_2">
     <g id="line2d_22">
      <g>
       <use style="stroke:#000000;stroke-width:0.8;" x="50.14375" xlink:href="#m310923bebe" y="196.143569"/>
      </g>
     </g>
     <g id="text_23">
      <!-- 0.05 -->
      <g transform="translate(20.878125 199.942788)scale(0.1 -0.1)">
       <use xlink:href="#DejaVuSans-48"/>
       <use x="63.623047" xlink:href="#DejaVuSans-46"/>
       <use x="95.410156" xlink:href="#DejaVuSans-48"/>
       <use x="159.033203" xlink:href="#DejaVuSans-53"/>
      </g>
     </g>
    </g>
    <g id="ytick_3">
     <g id="line2d_23">
      <g>
       <use style="stroke:#000000;stroke-width:0.8;" x="50.14375" xlink:href="#m310923bebe" y="152.529013"/>
      </g>
     </g>
     <g id="text_24">
      <!-- 0.10 -->
      <g transform="translate(20.878125 156.328231)scale(0.1 -0.1)">
       <use xlink:href="#DejaVuSans-48"/>
       <use x="63.623047" xlink:href="#DejaVuSans-46"/>
       <use x="95.410156" xlink:href="#DejaVuSans-49"/>
       <use x="159.033203" xlink:href="#DejaVuSans-48"/>
      </g>
     </g>
    </g>
    <g id="ytick_4">
     <g id="line2d_24">
      <g>
       <use style="stroke:#000000;stroke-width:0.8;" x="50.14375" xlink:href="#m310923bebe" y="108.914456"/>
      </g>
     </g>
     <g id="text_25">
      <!-- 0.15 -->
      <g transform="translate(20.878125 112.713675)scale(0.1 -0.1)">
       <use xlink:href="#DejaVuSans-48"/>
       <use x="63.623047" xlink:href="#DejaVuSans-46"/>
       <use x="95.410156" xlink:href="#DejaVuSans-49"/>
       <use x="159.033203" xlink:href="#DejaVuSans-53"/>
      </g>
     </g>
    </g>
    <g id="ytick_5">
     <g id="line2d_25">
      <g>
       <use style="stroke:#000000;stroke-width:0.8;" x="50.14375" xlink:href="#m310923bebe" y="65.2999"/>
      </g>
     </g>
     <g id="text_26">
      <!-- 0.20 -->
      <g transform="translate(20.878125 69.099119)scale(0.1 -0.1)">
       <use xlink:href="#DejaVuSans-48"/>
       <use x="63.623047" xlink:href="#DejaVuSans-46"/>
       <use x="95.410156" xlink:href="#DejaVuSans-50"/>
       <use x="159.033203" xlink:href="#DejaVuSans-48"/>
      </g>
     </g>
    </g>
    <g id="text_27">
     <!-- normed importance value -->
     <defs>
      <path id="DejaVuSans-32"/>
     </defs>
     <g transform="translate(14.798438 195.845156)rotate(-90)scale(0.1 -0.1)">
      <use xlink:href="#DejaVuSans-110"/>
      <use x="63.378906" xlink:href="#DejaVuSans-111"/>
      <use x="124.560547" xlink:href="#DejaVuSans-114"/>
      <use x="165.658203" xlink:href="#DejaVuSans-109"/>
      <use x="263.070312" xlink:href="#DejaVuSans-101"/>
      <use x="324.59375" xlink:href="#DejaVuSans-100"/>
      <use x="388.070312" xlink:href="#DejaVuSans-32"/>
      <use x="419.857422" xlink:href="#DejaVuSans-105"/>
      <use x="447.640625" xlink:href="#DejaVuSans-109"/>
      <use x="545.052734" xlink:href="#DejaVuSans-112"/>
      <use x="608.529297" xlink:href="#DejaVuSans-111"/>
      <use x="669.710938" xlink:href="#DejaVuSans-114"/>
      <use x="710.824219" xlink:href="#DejaVuSans-116"/>
      <use x="750.033203" xlink:href="#DejaVuSans-97"/>
      <use x="811.3125" xlink:href="#DejaVuSans-110"/>
      <use x="874.691406" xlink:href="#DejaVuSans-99"/>
      <use x="929.671875" xlink:href="#DejaVuSans-101"/>
      <use x="991.195312" xlink:href="#DejaVuSans-32"/>
      <use x="1022.982422" xlink:href="#DejaVuSans-118"/>
      <use x="1082.162109" xlink:href="#DejaVuSans-97"/>
      <use x="1143.441406" xlink:href="#DejaVuSans-108"/>
      <use x="1171.224609" xlink:href="#DejaVuSans-117"/>
      <use x="1234.603516" xlink:href="#DejaVuSans-101"/>
     </g>
    </g>
   </g>
   <g id="patch_23">
    <path d="M 50.14375 239.758125 
L 50.14375 22.318125 
" style="fill:none;stroke:#000000;stroke-linecap:square;stroke-linejoin:miter;stroke-width:0.8;"/>
   </g>
   <g id="patch_24">
    <path d="M 719.74375 239.758125 
L 719.74375 22.318125 
" style="fill:none;stroke:#000000;stroke-linecap:square;stroke-linejoin:miter;stroke-width:0.8;"/>
   </g>
   <g id="patch_25">
    <path d="M 50.14375 239.758125 
L 719.74375 239.758125 
" style="fill:none;stroke:#000000;stroke-linecap:square;stroke-linejoin:miter;stroke-width:0.8;"/>
   </g>
   <g id="patch_26">
    <path d="M 50.14375 22.318125 
L 719.74375 22.318125 
" style="fill:none;stroke:#000000;stroke-linecap:square;stroke-linejoin:miter;stroke-width:0.8;"/>
   </g>
   <g id="text_28">
    <!-- 0.35% -->
    <defs>
     <path d="M 40.578125 39.3125 
Q 47.65625 37.796875 51.625 33 
Q 55.609375 28.21875 55.609375 21.1875 
Q 55.609375 10.40625 48.1875 4.484375 
Q 40.765625 -1.421875 27.09375 -1.421875 
Q 22.515625 -1.421875 17.65625 -0.515625 
Q 12.796875 0.390625 7.625 2.203125 
L 7.625 11.71875 
Q 11.71875 9.328125 16.59375 8.109375 
Q 21.484375 6.890625 26.8125 6.890625 
Q 36.078125 6.890625 40.9375 10.546875 
Q 45.796875 14.203125 45.796875 21.1875 
Q 45.796875 27.640625 41.28125 31.265625 
Q 36.765625 34.90625 28.71875 34.90625 
L 20.21875 34.90625 
L 20.21875 43.015625 
L 29.109375 43.015625 
Q 36.375 43.015625 40.234375 45.921875 
Q 44.09375 48.828125 44.09375 54.296875 
Q 44.09375 59.90625 40.109375 62.90625 
Q 36.140625 65.921875 28.71875 65.921875 
Q 24.65625 65.921875 20.015625 65.03125 
Q 15.375 64.15625 9.8125 62.3125 
L 9.8125 71.09375 
Q 15.4375 72.65625 20.34375 73.4375 
Q 25.25 74.21875 29.59375 74.21875 
Q 40.828125 74.21875 47.359375 69.109375 
Q 53.90625 64.015625 53.90625 55.328125 
Q 53.90625 49.265625 50.4375 45.09375 
Q 46.96875 40.921875 40.578125 39.3125 
z
" id="DejaVuSans-51"/>
     <path d="M 72.703125 32.078125 
Q 68.453125 32.078125 66.03125 28.46875 
Q 63.625 24.859375 63.625 18.40625 
Q 63.625 12.0625 66.03125 8.421875 
Q 68.453125 4.78125 72.703125 4.78125 
Q 76.859375 4.78125 79.265625 8.421875 
Q 81.6875 12.0625 81.6875 18.40625 
Q 81.6875 24.8125 79.265625 28.4375 
Q 76.859375 32.078125 72.703125 32.078125 
z
M 72.703125 38.28125 
Q 80.421875 38.28125 84.953125 32.90625 
Q 89.5 27.546875 89.5 18.40625 
Q 89.5 9.28125 84.9375 3.921875 
Q 80.375 -1.421875 72.703125 -1.421875 
Q 64.890625 -1.421875 60.34375 3.921875 
Q 55.8125 9.28125 55.8125 18.40625 
Q 55.8125 27.59375 60.375 32.9375 
Q 64.9375 38.28125 72.703125 38.28125 
z
M 22.3125 68.015625 
Q 18.109375 68.015625 15.6875 64.375 
Q 13.28125 60.75 13.28125 54.390625 
Q 13.28125 47.953125 15.671875 44.328125 
Q 18.0625 40.71875 22.3125 40.71875 
Q 26.5625 40.71875 28.96875 44.328125 
Q 31.390625 47.953125 31.390625 54.390625 
Q 31.390625 60.6875 28.953125 64.34375 
Q 26.515625 68.015625 22.3125 68.015625 
z
M 66.40625 74.21875 
L 74.21875 74.21875 
L 28.609375 -1.421875 
L 20.796875 -1.421875 
z
M 22.3125 74.21875 
Q 30.03125 74.21875 34.609375 68.875 
Q 39.203125 63.53125 39.203125 54.390625 
Q 39.203125 45.171875 34.640625 39.84375 
Q 30.078125 34.515625 22.3125 34.515625 
Q 14.546875 34.515625 10.03125 39.859375 
Q 5.515625 45.21875 5.515625 54.390625 
Q 5.515625 63.484375 10.046875 68.84375 
Q 14.59375 74.21875 22.3125 74.21875 
z
" id="DejaVuSans-37"/>
    </defs>
    <g transform="translate(79.370338 65.662113)rotate(-30)scale(0.13 -0.13)">
     <use xlink:href="#DejaVuSans-48"/>
     <use x="63.623047" xlink:href="#DejaVuSans-46"/>
     <use x="95.410156" xlink:href="#DejaVuSans-51"/>
     <use x="159.033203" xlink:href="#DejaVuSans-53"/>
     <use x="222.65625" xlink:href="#DejaVuSans-37"/>
    </g>
   </g>
   <g id="text_29">
    <!-- 0.42% -->
    <g transform="translate(110.114139 65.662113)rotate(-30)scale(0.13 -0.13)">
     <use xlink:href="#DejaVuSans-48"/>
     <use x="63.623047" xlink:href="#DejaVuSans-46"/>
     <use x="95.410156" xlink:href="#DejaVuSans-52"/>
     <use x="159.033203" xlink:href="#DejaVuSans-50"/>
     <use x="222.65625" xlink:href="#DejaVuSans-37"/>
    </g>
   </g>
   <g id="text_30">
    <!-- 1.79% -->
    <defs>
     <path d="M 10.984375 1.515625 
L 10.984375 10.5 
Q 14.703125 8.734375 18.5 7.8125 
Q 22.3125 6.890625 25.984375 6.890625 
Q 35.75 6.890625 40.890625 13.453125 
Q 46.046875 20.015625 46.78125 33.40625 
Q 43.953125 29.203125 39.59375 26.953125 
Q 35.25 24.703125 29.984375 24.703125 
Q 19.046875 24.703125 12.671875 31.3125 
Q 6.296875 37.9375 6.296875 49.421875 
Q 6.296875 60.640625 12.9375 67.421875 
Q 19.578125 74.21875 30.609375 74.21875 
Q 43.265625 74.21875 49.921875 64.515625 
Q 56.59375 54.828125 56.59375 36.375 
Q 56.59375 19.140625 48.40625 8.859375 
Q 40.234375 -1.421875 26.421875 -1.421875 
Q 22.703125 -1.421875 18.890625 -0.6875 
Q 15.09375 0.046875 10.984375 1.515625 
z
M 30.609375 32.421875 
Q 37.25 32.421875 41.125 36.953125 
Q 45.015625 41.5 45.015625 49.421875 
Q 45.015625 57.28125 41.125 61.84375 
Q 37.25 66.40625 30.609375 66.40625 
Q 23.96875 66.40625 20.09375 61.84375 
Q 16.21875 57.28125 16.21875 49.421875 
Q 16.21875 41.5 20.09375 36.953125 
Q 23.96875 32.421875 30.609375 32.421875 
z
" id="DejaVuSans-57"/>
    </defs>
    <g transform="translate(140.857941 65.662113)rotate(-30)scale(0.13 -0.13)">
     <use xlink:href="#DejaVuSans-49"/>
     <use x="63.623047" xlink:href="#DejaVuSans-46"/>
     <use x="95.410156" xlink:href="#DejaVuSans-55"/>
     <use x="159.033203" xlink:href="#DejaVuSans-57"/>
     <use x="222.65625" xlink:href="#DejaVuSans-37"/>
    </g>
   </g>
   <g id="text_31">
    <!-- 0.50% -->
    <g transform="translate(171.601743 65.662113)rotate(-30)scale(0.13 -0.13)">
     <use xlink:href="#DejaVuSans-48"/>
     <use x="63.623047" xlink:href="#DejaVuSans-46"/>
     <use x="95.410156" xlink:href="#DejaVuSans-53"/>
     <use x="159.033203" xlink:href="#DejaVuSans-48"/>
     <use x="222.65625" xlink:href="#DejaVuSans-37"/>
    </g>
   </g>
   <g id="text_32">
    <!-- 1.36% -->
    <g transform="translate(202.345544 65.662113)rotate(-30)scale(0.13 -0.13)">
     <use xlink:href="#DejaVuSans-49"/>
     <use x="63.623047" xlink:href="#DejaVuSans-46"/>
     <use x="95.410156" xlink:href="#DejaVuSans-51"/>
     <use x="159.033203" xlink:href="#DejaVuSans-54"/>
     <use x="222.65625" xlink:href="#DejaVuSans-37"/>
    </g>
   </g>
   <g id="text_33">
    <!-- 23.74% -->
    <g transform="translate(233.089346 65.662113)rotate(-30)scale(0.13 -0.13)">
     <use xlink:href="#DejaVuSans-50"/>
     <use x="63.623047" xlink:href="#DejaVuSans-51"/>
     <use x="127.246094" xlink:href="#DejaVuSans-46"/>
     <use x="159.033203" xlink:href="#DejaVuSans-55"/>
     <use x="222.65625" xlink:href="#DejaVuSans-52"/>
     <use x="286.279297" xlink:href="#DejaVuSans-37"/>
    </g>
   </g>
   <g id="text_34">
    <!-- 0.78% -->
    <defs>
     <path d="M 31.78125 34.625 
Q 24.75 34.625 20.71875 30.859375 
Q 16.703125 27.09375 16.703125 20.515625 
Q 16.703125 13.921875 20.71875 10.15625 
Q 24.75 6.390625 31.78125 6.390625 
Q 38.8125 6.390625 42.859375 10.171875 
Q 46.921875 13.96875 46.921875 20.515625 
Q 46.921875 27.09375 42.890625 30.859375 
Q 38.875 34.625 31.78125 34.625 
z
M 21.921875 38.8125 
Q 15.578125 40.375 12.03125 44.71875 
Q 8.5 49.078125 8.5 55.328125 
Q 8.5 64.0625 14.71875 69.140625 
Q 20.953125 74.21875 31.78125 74.21875 
Q 42.671875 74.21875 48.875 69.140625 
Q 55.078125 64.0625 55.078125 55.328125 
Q 55.078125 49.078125 51.53125 44.71875 
Q 48 40.375 41.703125 38.8125 
Q 48.828125 37.15625 52.796875 32.3125 
Q 56.78125 27.484375 56.78125 20.515625 
Q 56.78125 9.90625 50.3125 4.234375 
Q 43.84375 -1.421875 31.78125 -1.421875 
Q 19.734375 -1.421875 13.25 4.234375 
Q 6.78125 9.90625 6.78125 20.515625 
Q 6.78125 27.484375 10.78125 32.3125 
Q 14.796875 37.15625 21.921875 38.8125 
z
M 18.3125 54.390625 
Q 18.3125 48.734375 21.84375 45.5625 
Q 25.390625 42.390625 31.78125 42.390625 
Q 38.140625 42.390625 41.71875 45.5625 
Q 45.3125 48.734375 45.3125 54.390625 
Q 45.3125 60.0625 41.71875 63.234375 
Q 38.140625 66.40625 31.78125 66.40625 
Q 25.390625 66.40625 21.84375 63.234375 
Q 18.3125 60.0625 18.3125 54.390625 
z
" id="DejaVuSans-56"/>
    </defs>
    <g transform="translate(263.833148 65.662113)rotate(-30)scale(0.13 -0.13)">
     <use xlink:href="#DejaVuSans-48"/>
     <use x="63.623047" xlink:href="#DejaVuSans-46"/>
     <use x="95.410156" xlink:href="#DejaVuSans-55"/>
     <use x="159.033203" xlink:href="#DejaVuSans-56"/>
     <use x="222.65625" xlink:href="#DejaVuSans-37"/>
    </g>
   </g>
   <g id="text_35">
    <!-- 3.57% -->
    <g transform="translate(294.576949 65.662113)rotate(-30)scale(0.13 -0.13)">
     <use xlink:href="#DejaVuSans-51"/>
     <use x="63.623047" xlink:href="#DejaVuSans-46"/>
     <use x="95.410156" xlink:href="#DejaVuSans-53"/>
     <use x="159.033203" xlink:href="#DejaVuSans-55"/>
     <use x="222.65625" xlink:href="#DejaVuSans-37"/>
    </g>
   </g>
   <g id="text_36">
    <!-- 2.82% -->
    <g transform="translate(325.320751 65.662113)rotate(-30)scale(0.13 -0.13)">
     <use xlink:href="#DejaVuSans-50"/>
     <use x="63.623047" xlink:href="#DejaVuSans-46"/>
     <use x="95.410156" xlink:href="#DejaVuSans-56"/>
     <use x="159.033203" xlink:href="#DejaVuSans-50"/>
     <use x="222.65625" xlink:href="#DejaVuSans-37"/>
    </g>
   </g>
   <g id="text_37">
    <!-- 0.26% -->
    <g transform="translate(356.064553 65.662113)rotate(-30)scale(0.13 -0.13)">
     <use xlink:href="#DejaVuSans-48"/>
     <use x="63.623047" xlink:href="#DejaVuSans-46"/>
     <use x="95.410156" xlink:href="#DejaVuSans-50"/>
     <use x="159.033203" xlink:href="#DejaVuSans-54"/>
     <use x="222.65625" xlink:href="#DejaVuSans-37"/>
    </g>
   </g>
   <g id="text_38">
    <!-- 3.03% -->
    <g transform="translate(386.808354 65.662113)rotate(-30)scale(0.13 -0.13)">
     <use xlink:href="#DejaVuSans-51"/>
     <use x="63.623047" xlink:href="#DejaVuSans-46"/>
     <use x="95.410156" xlink:href="#DejaVuSans-48"/>
     <use x="159.033203" xlink:href="#DejaVuSans-51"/>
     <use x="222.65625" xlink:href="#DejaVuSans-37"/>
    </g>
   </g>
   <g id="text_39">
    <!-- 2.54% -->
    <g transform="translate(417.552156 65.662113)rotate(-30)scale(0.13 -0.13)">
     <use xlink:href="#DejaVuSans-50"/>
     <use x="63.623047" xlink:href="#DejaVuSans-46"/>
     <use x="95.410156" xlink:href="#DejaVuSans-53"/>
     <use x="159.033203" xlink:href="#DejaVuSans-52"/>
     <use x="222.65625" xlink:href="#DejaVuSans-37"/>
    </g>
   </g>
   <g id="text_40">
    <!-- 1.85% -->
    <g transform="translate(448.295958 65.662113)rotate(-30)scale(0.13 -0.13)">
     <use xlink:href="#DejaVuSans-49"/>
     <use x="63.623047" xlink:href="#DejaVuSans-46"/>
     <use x="95.410156" xlink:href="#DejaVuSans-56"/>
     <use x="159.033203" xlink:href="#DejaVuSans-53"/>
     <use x="222.65625" xlink:href="#DejaVuSans-37"/>
    </g>
   </g>
   <g id="text_41">
    <!-- 5.52% -->
    <g transform="translate(479.039759 65.662113)rotate(-30)scale(0.13 -0.13)">
     <use xlink:href="#DejaVuSans-53"/>
     <use x="63.623047" xlink:href="#DejaVuSans-46"/>
     <use x="95.410156" xlink:href="#DejaVuSans-53"/>
     <use x="159.033203" xlink:href="#DejaVuSans-50"/>
     <use x="222.65625" xlink:href="#DejaVuSans-37"/>
    </g>
   </g>
   <g id="text_42">
    <!-- 12.16% -->
    <g transform="translate(509.783561 65.662113)rotate(-30)scale(0.13 -0.13)">
     <use xlink:href="#DejaVuSans-49"/>
     <use x="63.623047" xlink:href="#DejaVuSans-50"/>
     <use x="127.246094" xlink:href="#DejaVuSans-46"/>
     <use x="159.033203" xlink:href="#DejaVuSans-49"/>
     <use x="222.65625" xlink:href="#DejaVuSans-54"/>
     <use x="286.279297" xlink:href="#DejaVuSans-37"/>
    </g>
   </g>
   <g id="text_43">
    <!-- 5.26% -->
    <g transform="translate(540.527362 65.662113)rotate(-30)scale(0.13 -0.13)">
     <use xlink:href="#DejaVuSans-53"/>
     <use x="63.623047" xlink:href="#DejaVuSans-46"/>
     <use x="95.410156" xlink:href="#DejaVuSans-50"/>
     <use x="159.033203" xlink:href="#DejaVuSans-54"/>
     <use x="222.65625" xlink:href="#DejaVuSans-37"/>
    </g>
   </g>
   <g id="text_44">
    <!-- 0.47% -->
    <g transform="translate(571.271164 65.662113)rotate(-30)scale(0.13 -0.13)">
     <use xlink:href="#DejaVuSans-48"/>
     <use x="63.623047" xlink:href="#DejaVuSans-46"/>
     <use x="95.410156" xlink:href="#DejaVuSans-52"/>
     <use x="159.033203" xlink:href="#DejaVuSans-55"/>
     <use x="222.65625" xlink:href="#DejaVuSans-37"/>
    </g>
   </g>
   <g id="text_45">
    <!-- 18.91% -->
    <g transform="translate(602.014966 65.662113)rotate(-30)scale(0.13 -0.13)">
     <use xlink:href="#DejaVuSans-49"/>
     <use x="63.623047" xlink:href="#DejaVuSans-56"/>
     <use x="127.246094" xlink:href="#DejaVuSans-46"/>
     <use x="159.033203" xlink:href="#DejaVuSans-57"/>
     <use x="222.65625" xlink:href="#DejaVuSans-49"/>
     <use x="286.279297" xlink:href="#DejaVuSans-37"/>
    </g>
   </g>
   <g id="text_46">
    <!-- 2.48% -->
    <g transform="translate(632.758767 65.662113)rotate(-30)scale(0.13 -0.13)">
     <use xlink:href="#DejaVuSans-50"/>
     <use x="63.623047" xlink:href="#DejaVuSans-46"/>
     <use x="95.410156" xlink:href="#DejaVuSans-52"/>
     <use x="159.033203" xlink:href="#DejaVuSans-56"/>
     <use x="222.65625" xlink:href="#DejaVuSans-37"/>
    </g>
   </g>
   <g id="text_47">
    <!-- 12.19% -->
    <g transform="translate(663.502569 65.662113)rotate(-30)scale(0.13 -0.13)">
     <use xlink:href="#DejaVuSans-49"/>
     <use x="63.623047" xlink:href="#DejaVuSans-50"/>
     <use x="127.246094" xlink:href="#DejaVuSans-46"/>
     <use x="159.033203" xlink:href="#DejaVuSans-49"/>
     <use x="222.65625" xlink:href="#DejaVuSans-57"/>
     <use x="286.279297" xlink:href="#DejaVuSans-37"/>
    </g>
   </g>
   <g id="text_48">
    <!-- Feature importance -->
    <defs>
     <path d="M 9.8125 72.90625 
L 51.703125 72.90625 
L 51.703125 64.59375 
L 19.671875 64.59375 
L 19.671875 43.109375 
L 48.578125 43.109375 
L 48.578125 34.8125 
L 19.671875 34.8125 
L 19.671875 0 
L 9.8125 0 
z
" id="DejaVuSans-70"/>
    </defs>
    <g transform="translate(325.63 16.318125)scale(0.12 -0.12)">
     <use xlink:href="#DejaVuSans-70"/>
     <use x="57.441406" xlink:href="#DejaVuSans-101"/>
     <use x="118.964844" xlink:href="#DejaVuSans-97"/>
     <use x="180.244141" xlink:href="#DejaVuSans-116"/>
     <use x="219.453125" xlink:href="#DejaVuSans-117"/>
     <use x="282.832031" xlink:href="#DejaVuSans-114"/>
     <use x="323.914062" xlink:href="#DejaVuSans-101"/>
     <use x="385.4375" xlink:href="#DejaVuSans-32"/>
     <use x="417.224609" xlink:href="#DejaVuSans-105"/>
     <use x="445.007812" xlink:href="#DejaVuSans-109"/>
     <use x="542.419922" xlink:href="#DejaVuSans-112"/>
     <use x="605.896484" xlink:href="#DejaVuSans-111"/>
     <use x="667.078125" xlink:href="#DejaVuSans-114"/>
     <use x="708.191406" xlink:href="#DejaVuSans-116"/>
     <use x="747.400391" xlink:href="#DejaVuSans-97"/>
     <use x="808.679688" xlink:href="#DejaVuSans-110"/>
     <use x="872.058594" xlink:href="#DejaVuSans-99"/>
     <use x="927.039062" xlink:href="#DejaVuSans-101"/>
    </g>
   </g>
  </g>
 </g>
 <defs>
  <clipPath id="p2a27189300">
   <rect height="217.44" width="669.6" x="50.14375" y="22.318125"/>
  </clipPath>
 </defs>
</svg>
